<svg width="138" height="161" viewBox="0 0 138 161" fill="none" xmlns="http://www.w3.org/2000/svg">
<g style="mix-blend-mode:multiply">
<path d="M69.0186 160.681C106.267 160.681 136.464 159.289 136.464 157.571C136.464 155.854 106.267 154.462 69.0186 154.462C31.7698 154.462 1.57361 155.854 1.57361 157.571C1.57361 159.289 31.7698 160.681 69.0186 160.681Z" fill="#A6A8AB"/>
</g>
<path d="M79.0005 144.162H58.9987C58.203 144.162 57.5579 144.859 57.5579 145.719V156.015C57.5579 156.874 58.203 157.571 58.9987 157.571H79.0005C79.7962 157.571 80.4413 156.874 80.4413 156.015V145.719C80.4413 144.859 79.7962 144.162 79.0005 144.162Z" fill="#EC1C24"/>
<path d="M68.6634 155.901L1.13754 157.571C0.136762 157.596 -0.381019 156.374 0.328503 155.653L9.52316 146.271L68.4337 144.815L68.6634 155.901Z" fill="#EC1C24"/>
<path opacity="0.5" d="M0.0356445 156.159L68.6335 154.462L68.4337 144.815L9.52317 146.271L0.326087 155.653C0.188672 155.79 0.088291 155.965 0.0356445 156.159Z" fill="white"/>
<path d="M68.623 153.958L2.50073 155.316L6.6899 150.114L68.5105 148.585L68.623 153.958Z" fill="black"/>
<path d="M8.19629 145.693L16.3319 138.564C40.0099 138.01 51.6648 123.04 68.9999 137.797V145.927C14.8757 152.213 8.19629 145.693 8.19629 145.693Z" fill="#FEF8E8"/>
<path d="M2.51697 155.092L8.19638 145.693C31.8743 145.139 53.0572 130.888 69 145.929L59.3628 154.129C38.0303 149.694 43.9839 154.653 2.51697 155.092Z" fill="#E0CAA1"/>
<path d="M69.3365 155.901L136.862 157.571C137.863 157.596 138.381 156.374 137.671 155.653L128.477 146.271L69.5663 144.815L69.3365 155.901Z" fill="#EC1C24"/>
<path opacity="0.5" d="M137.964 156.159L69.3665 154.462L69.5687 144.815L128.479 146.271L137.674 155.653C137.811 155.79 137.912 155.965 137.964 156.159Z" fill="white"/>
<path d="M69.377 153.958L135.499 155.316L131.31 150.114L69.4894 148.585L69.377 153.958Z" fill="black"/>
<path d="M129.804 145.693L121.668 138.564C97.9901 138.01 86.3351 123.04 69 137.797V145.927C123.124 152.213 129.804 145.693 129.804 145.693Z" fill="#FBF4D8"/>
<path d="M135.483 155.092L129.804 145.693C106.126 145.139 84.9428 130.888 69 145.929L78.6105 154.129C99.9431 149.693 94.0161 154.653 135.483 155.092Z" fill="#E0CAA1"/>
<path d="M63.3125 147.101C62.3802 146.668 61.4259 146.294 60.4542 145.979C59.9688 145.82 59.4833 145.669 58.9931 145.53C58.5028 145.391 58.0109 145.268 57.5182 145.143C57.0255 145.018 56.5287 144.915 56.0304 144.819C55.532 144.723 55.0345 144.632 54.5345 144.557C53.5345 144.403 52.5297 144.281 51.5225 144.207C50.5152 144.133 49.5055 144.098 48.4967 144.105C47.9918 144.105 47.4894 144.121 46.9854 144.147L46.6076 144.164L46.2298 144.191C45.9773 144.207 45.7257 144.224 45.4741 144.248C43.4588 144.423 41.4492 144.726 39.446 145.081C37.4429 145.436 35.4446 145.843 33.4446 146.239C31.4447 146.635 29.4423 147.025 27.4319 147.375C23.4134 148.065 19.3561 148.561 15.2859 148.62V148.561C19.3513 148.422 23.3883 147.843 27.3874 147.074C29.3889 146.699 31.3832 146.277 33.3742 145.851C35.3653 145.424 37.3636 144.99 39.3684 144.6C40.3699 144.402 41.3753 144.221 42.3844 144.058C43.3925 143.894 44.407 143.748 45.4248 143.652C45.6788 143.623 45.9345 143.604 46.1901 143.584L46.5728 143.553L46.9563 143.531C47.2119 143.517 47.4684 143.502 47.7249 143.5L48.1091 143.492C48.2378 143.492 48.3656 143.487 48.4934 143.492C49.5177 143.492 50.5419 143.539 51.5621 143.637C52.5823 143.735 53.5984 143.871 54.6057 144.062C55.1097 144.157 55.6121 144.26 56.1121 144.377C56.6121 144.494 57.108 144.624 57.6031 144.76C58.5918 145.04 59.5691 145.366 60.5286 145.742C61.0076 145.932 61.4819 146.134 61.9517 146.349C62.4217 146.564 62.8853 146.794 63.3359 147.053L63.3125 147.101Z" fill="#496767"/>
<path d="M59.7244 150.802C59.3503 150.583 58.9652 150.386 58.5707 150.214C58.1775 150.039 57.779 149.879 57.375 149.735C56.971 149.59 56.5641 149.457 56.1541 149.335C55.744 149.215 55.3322 149.102 54.9171 149.005C53.2571 148.611 51.5715 148.356 49.8752 148.241C49.4513 148.208 49.0274 148.191 48.6026 148.171C48.1779 148.152 47.754 148.147 47.3292 148.15C46.9045 148.152 46.4797 148.155 46.055 148.16C45.6303 148.165 45.2063 148.187 44.7816 148.215C43.0826 148.303 41.3901 148.472 39.7057 148.74C38.0213 149.007 36.349 149.366 34.6719 149.714C32.9948 150.061 31.312 150.393 29.6219 150.665C27.9319 150.937 26.2337 151.155 24.5331 151.332C22.8325 151.508 21.1287 151.64 19.4241 151.74V151.696C22.8285 151.434 26.2248 151.032 29.5904 150.43C31.2732 150.135 32.9471 149.781 34.6185 149.408C36.29 149.034 37.9622 148.652 39.6531 148.359C40.4986 148.21 41.3472 148.08 42.1991 147.977L42.8391 147.907L43.4798 147.848C43.907 147.813 44.335 147.777 44.763 147.761C46.4768 147.665 48.1947 147.692 49.9052 147.843C51.6166 147.989 53.3136 148.29 54.9786 148.742C55.8099 148.969 56.6286 149.247 57.4308 149.574C57.831 149.739 58.2258 149.918 58.6152 150.112C59.0051 150.305 59.3834 150.524 59.7479 150.768L59.7244 150.802Z" fill="#496767"/>
<path d="M75.0256 147.101C75.958 146.669 76.9123 146.294 77.8839 145.979C78.3694 145.82 78.8548 145.669 79.3451 145.53C79.8353 145.391 80.3272 145.268 80.8199 145.143C81.3126 145.018 81.8102 144.915 82.3077 144.819C82.8053 144.723 83.3037 144.632 83.8036 144.557C84.8044 144.403 85.8084 144.281 86.8157 144.207C87.8229 144.133 88.8326 144.098 89.8423 144.105C90.3466 144.105 90.8503 144.119 91.3535 144.147L91.7313 144.164L92.1092 144.191C92.3608 144.207 92.6132 144.224 92.8648 144.248C94.8793 144.423 96.8897 144.726 98.8921 145.081C100.894 145.436 102.894 145.843 104.893 146.239C106.893 146.635 108.897 147.025 110.906 147.375C114.925 148.065 118.983 148.561 123.053 148.62V148.561C118.988 148.422 114.951 147.843 110.952 147.074C108.95 146.699 106.956 146.277 104.965 145.851C102.974 145.424 100.975 144.99 98.9714 144.6C97.9698 144.402 96.9644 144.221 95.9553 144.058C94.9464 143.894 93.9327 143.748 92.9141 143.652C92.6601 143.623 92.4045 143.604 92.1496 143.584L91.7661 143.553L91.3827 143.531C91.127 143.517 90.8713 143.502 90.6141 143.5L90.2298 143.492C90.1011 143.492 89.9733 143.487 89.8455 143.492C88.8213 143.492 87.797 143.539 86.7768 143.637C85.7566 143.735 84.7413 143.871 83.7332 144.062C83.2292 144.157 82.7268 144.26 82.2268 144.377C81.7268 144.494 81.2309 144.624 80.7358 144.76C79.7472 145.04 78.7723 145.367 77.8111 145.742C77.3316 145.932 76.857 146.134 76.3872 146.349C75.918 146.564 75.4544 146.794 75.0038 147.053L75.0256 147.101Z" fill="#496767"/>
<path d="M78.6145 150.802C78.9882 150.582 79.3731 150.386 79.7674 150.214C80.1606 150.039 80.5592 149.879 80.9631 149.735C81.3671 149.59 81.774 149.457 82.184 149.335C82.5941 149.215 83.0059 149.102 83.421 149.005C85.0812 148.611 86.7671 148.356 88.4637 148.241C88.8868 148.208 89.3115 148.191 89.7355 148.171C90.1594 148.152 90.5842 148.147 91.0089 148.15C91.4336 148.152 91.8584 148.155 92.2831 148.16C92.7079 148.165 93.1326 148.187 93.5565 148.215C95.2555 148.303 96.9488 148.472 98.6324 148.74C100.316 149.007 101.989 149.366 103.666 149.714C105.343 150.061 107.026 150.393 108.717 150.665C110.408 150.937 112.104 151.155 113.805 151.332C115.506 151.508 117.209 151.64 118.914 151.74V151.696C115.509 151.434 112.113 151.032 108.748 150.43C107.064 150.135 105.391 149.781 103.72 149.408C102.048 149.034 100.375 148.652 98.6842 148.359C97.8396 148.21 96.9901 148.08 96.1382 147.977L95.4982 147.907L94.8575 147.848C94.4303 147.813 94.0031 147.777 93.5743 147.761C91.8605 147.665 90.1426 147.692 88.4321 147.843C86.7207 147.99 85.0237 148.29 83.3587 148.742C82.5271 148.97 81.7082 149.248 80.9057 149.575C80.5055 149.74 80.1107 149.92 79.7213 150.114C79.3314 150.307 78.9531 150.526 78.5886 150.77L78.6145 150.802Z" fill="#496767"/>
<path d="M68.9588 146.025L69 145.929C53.0572 130.888 31.8743 145.142 8.19638 145.693L8.11548 145.805C33.079 144.663 52.4901 134.339 68.9588 146.025Z" fill="#496767"/>
<path d="M69.0413 146.025L69 145.929C84.9428 130.888 106.126 145.142 129.804 145.693L129.885 145.805C104.921 144.663 85.5099 134.339 69.0413 146.025Z" fill="#496767"/>
<path d="M78.731 155.454C78.731 150.194 74.3744 145.926 69 145.926C63.6256 145.926 59.2689 150.19 59.2689 155.454C59.2689 155.691 59.2776 155.926 59.2948 156.159H78.7084C78.7235 155.926 78.731 155.691 78.731 155.454Z" fill="#FA9054"/>
<path d="M78.731 155.577C78.731 151.227 74.3744 147.7 69 147.7C63.6256 147.7 59.2689 151.227 59.2689 155.577C59.2689 155.772 59.2776 155.967 59.2948 156.159H78.7084C78.7235 155.965 78.731 155.771 78.731 155.577Z" fill="black"/>
<g style="mix-blend-mode:multiply">
<path d="M96.9221 144.22V154.523L97.4957 155.158L97.4067 156.595L100.113 158.538L104.364 159.781L104.7 155.984L96.9221 144.22Z" fill="#929497"/>
</g>
<path d="M104.364 159.781L99.8193 158.012C97.9981 153.947 97.0054 149.393 96.927 144.748C96.927 144.573 96.9221 144.399 96.9221 144.224C97.6055 144.34 98.2878 144.466 98.969 144.601C100.58 144.915 102.185 145.256 103.788 145.599C103.788 145.74 103.788 145.88 103.796 146.02C103.919 150.006 104.977 153.864 106.848 157.122L104.364 159.781Z" fill="#F6931D"/>
<g style="mix-blend-mode:multiply">
<path d="M103.796 146.017C102.162 145.691 100.53 145.368 98.8921 145.077C98.2379 144.96 97.5828 144.851 96.927 144.748C96.927 144.573 96.9221 144.399 96.9221 144.224C97.6055 144.34 98.2878 144.466 98.969 144.601C100.58 144.915 102.185 145.256 103.788 145.599C103.788 145.736 103.788 145.877 103.796 146.017Z" fill="#496767"/>
</g>
<g style="mix-blend-mode:multiply">
<path d="M83.5561 134.013C76.9932 134.188 71.631 138.838 69 138.89C66.369 138.838 61.0068 134.191 54.4439 134.013C41.6717 133.664 37.3668 137.186 37.3668 139.07C37.3668 139.716 40.1418 137.401 52.918 137.401C62.0933 137.401 66.6344 140.635 68.9984 143.628C71.3624 140.636 75.9035 137.401 85.0787 137.401C97.855 137.401 100.63 139.716 100.63 139.07C100.633 137.186 96.3283 133.664 83.5561 134.013Z" fill="#A7A9AC"/>
</g>
<path d="M69 131.955C84.605 131.955 97.2554 118.286 97.2554 101.425C97.2554 84.5633 84.605 70.8943 69 70.8943C53.3949 70.8943 40.7445 84.5633 40.7445 101.425C40.7445 118.286 53.3949 131.955 69 131.955Z" fill="#0E8FBE"/>
<path d="M88.4103 79.2401L86.8221 79.5521L85.1539 78.3388L85.1402 78.3283C85.1013 78.3012 85.0593 78.2741 85.0301 78.2566C84.9537 78.2099 84.8745 78.1687 84.7931 78.1334C84.5423 78.0248 84.2736 77.9731 84.0036 77.9816C83.7336 77.99 83.4681 78.0583 83.2236 78.1823L83.1977 78.1963L83.1621 78.2147L83.0998 78.2505L80.8531 79.602L80.7722 79.6492C80.7309 79.6754 80.6978 79.6964 80.6533 79.72L78.5263 80.8258L78.511 80.8337C78.4535 80.8643 78.4074 80.8905 78.3637 80.9211C78.0238 81.1403 77.756 81.4689 77.5976 81.8608C77.5895 81.8818 77.5814 81.9028 77.5741 81.9238C77.5338 82.0332 77.5021 82.146 77.4794 82.2612L77.3346 82.9335C77.3346 82.9335 77.3103 83.048 77.3023 83.1083C77.2909 83.1902 77.2842 83.2729 77.282 83.3557C77.2735 83.6943 77.343 84.0298 77.4843 84.3321C77.5561 84.4858 77.6458 84.6289 77.7513 84.7579C77.7917 84.8068 77.8322 84.8549 77.8791 84.8995H76.8896C76.6606 84.8932 76.4328 84.9363 76.2194 85.0264C76.006 85.1164 75.8114 85.2516 75.647 85.424L75.6162 85.4572L74.4367 86.8043C74.4221 86.8209 74.4083 86.8375 74.3946 86.855C74.333 86.9323 74.2768 87.0144 74.2263 87.1007C74.1925 87.1568 74.1619 87.2152 74.1349 87.2755L73.1082 89.5991C73.0961 89.6244 73.0823 89.6559 73.0573 89.7214C73.0557 89.7265 73.0538 89.7315 73.0516 89.7363C72.9208 90.0963 72.9069 90.4936 73.0121 90.8632C73.1173 91.2329 73.3355 91.553 73.6309 91.7714L72.1058 92.7041L72.0727 92.7251L72.0581 92.7347L72.0411 92.7452C71.9974 92.7749 71.9545 92.8064 71.9198 92.8326C71.8374 92.8971 71.7595 92.9681 71.6868 93.0451C71.6779 93.0547 71.669 93.0643 71.6609 93.0748L71.6293 93.1097L71.5832 93.1639L71.5735 93.1771L70.2693 94.838L70.2483 94.8668L70.2248 94.8983L70.203 94.9289C70.1723 94.9735 70.1431 95.0163 70.1221 95.0609C70.0132 95.2455 69.9313 95.4472 69.8794 95.6588C69.8539 95.7612 69.8358 95.8655 69.8252 95.9709C69.8179 96.0374 69.8141 96.1042 69.8138 96.1711V96.1895V96.2026L69.8082 98.1065L69.521 99.5201L69.4199 100.032C69.3613 100.329 69.3627 100.636 69.4239 100.932C69.4239 100.947 69.4296 100.961 69.4328 100.976L70.0517 103.593C70.1762 104.133 70.4928 104.598 70.9327 104.887L72.8639 106.146L73.482 106.546L73.516 106.567C73.5645 106.596 73.6139 106.622 73.6648 106.645C73.7601 106.691 73.8586 106.728 73.9593 106.757C74.1455 106.811 74.3387 106.833 74.5313 106.82L77.8831 106.766L77.964 106.99C78.0121 107.137 78.0774 107.277 78.1582 107.406L79.0433 108.853L78.8127 111.388C78.8127 111.411 78.807 111.438 78.8046 111.496C78.8046 111.502 78.8046 111.509 78.8046 111.515C78.8046 111.595 78.8046 111.677 78.8087 111.758V111.773V111.794C78.8087 111.83 78.8168 111.876 78.8224 111.912L79.4583 116.116C79.4579 116.121 79.4579 116.125 79.4583 116.129C79.4678 116.198 79.4805 116.266 79.4963 116.333L79.5061 116.373C79.5873 116.681 79.7412 116.961 79.9526 117.185L80.5885 117.866L80.5732 118.053C80.5732 118.112 80.5675 118.171 80.5683 118.236C80.5709 118.351 80.5833 118.466 80.6055 118.578C80.6761 118.93 80.8409 119.252 81.0796 119.504C81.1417 119.567 81.208 119.626 81.2778 119.679L82.8611 120.933C83.1519 121.187 83.5124 121.329 83.8862 121.338H83.891C84.1062 121.338 84.3194 121.293 84.5188 121.206C84.6201 121.162 84.7172 121.107 84.8085 121.042C84.8465 121.016 84.8837 120.987 84.9193 120.955C84.9314 120.945 84.9419 120.936 84.9533 120.925L87.7363 118.445C87.8802 118.916 88.1909 119.306 88.6004 119.529C89.0098 119.753 89.4846 119.792 89.9207 119.638L90.1149 119.57C90.3625 119.48 90.6055 119.376 90.843 119.259L91.4369 118.975C91.8152 118.796 92.1784 118.583 92.5226 118.337C93.1557 117.311 93.7306 116.246 94.2442 115.145C94.2377 115.125 94.2313 115.105 94.2248 115.087L94.2199 115.073L94.1253 114.816C94.0597 114.642 93.9983 114.472 93.9635 114.339C93.9269 114.206 93.9033 114.07 93.8931 113.932V113.895C93.8882 113.823 93.8882 113.752 93.8931 113.68V113.641C93.8979 113.597 93.902 113.553 93.9036 113.508C93.9109 113.231 93.8541 112.957 93.7384 112.71C93.6226 112.463 93.4517 112.252 93.241 112.094C93.0425 111.949 92.8158 111.855 92.5784 111.819H92.5663H92.5533L92.5169 111.809C92.4457 111.792 92.3745 111.769 92.3033 111.747L92.1787 111.71L92.0639 111.669C91.9724 111.637 91.8697 111.6 91.7548 111.568C91.6602 111.539 91.576 111.519 91.5072 111.503L92.1383 107.438L94.8308 104.268L95.1875 103.848L95.2029 103.83L95.2248 103.803L95.2506 103.77C95.287 103.722 95.3218 103.672 95.3518 103.626C95.6179 103.205 95.7329 102.693 95.6754 102.187C95.619 101.683 95.3923 101.219 95.0387 100.884L95.8784 100.422L95.8922 100.414L95.9108 100.404L95.9367 100.389L95.9925 100.356L96.0289 100.331C96.0411 100.324 96.0524 100.316 96.0637 100.309C96.4621 100.033 96.7591 99.616 96.9035 99.1293C96.9108 99.1031 96.9181 99.0777 96.9245 99.0524H96.9698C97.0394 99.0524 97.1066 99.0463 97.1721 99.0384C96.6312 91.4914 93.5075 84.4329 88.4103 79.2401ZM69.7459 81.9727L69.9975 81.8364C70.1674 81.749 70.3381 81.6528 70.5056 81.5584L70.9772 81.2961L71.4934 81.2515L71.906 81.2166H71.9262L72.5646 81.1519H72.5775L72.9011 81.1169H72.9149C72.9561 81.1126 72.9958 81.1082 73.0767 81.0942L73.1349 81.0828C73.3789 81.0257 73.6065 80.9057 73.7983 80.7332C73.9618 80.5877 74.0954 80.4069 74.1907 80.2026C74.286 79.9982 74.3408 79.7746 74.3517 79.546C74.3752 79.3712 74.3962 79.1964 74.4164 79.0215L74.685 78.8082C74.7748 78.7365 74.8638 78.6622 74.9528 78.5888L75.4479 78.1753C75.4666 78.1596 75.4844 78.1438 75.5013 78.1272C75.5421 78.089 75.581 78.0484 75.6179 78.0057C75.8124 77.7852 75.9571 77.519 76.0405 77.2279C76.1239 76.9369 76.1437 76.6289 76.0984 76.3282C76.0533 76.0264 75.9445 75.7399 75.7803 75.491C75.6162 75.2421 75.4011 75.0374 75.1518 74.8928C75.1012 74.863 75.049 74.8361 74.9957 74.8124L74.9771 74.8036L73.4173 74.1323L73.4003 74.1253L72.4909 73.7572L72.0144 73.5684H72.0015L71.974 73.5579C71.9343 73.5431 71.8761 73.5247 71.8356 73.5133C71.7416 73.4872 71.6459 73.4691 71.5492 73.4591C71.3524 73.4377 71.1538 73.4492 70.9602 73.4932C70.8651 73.5149 70.7715 73.5441 70.6803 73.5806L70.6633 73.5876L69.1852 74.2197L68.6343 74.0099L68.6141 74.0029L68.0057 73.7826L67.9911 73.7773L67.4482 73.5894L67.4054 73.5754C67.0026 73.4549 66.5742 73.4817 66.187 73.6515L66.1562 73.6663L66.1352 73.6759C66.1182 73.6838 66.0874 73.6995 66.0705 73.7091L66.0575 73.7161L66.0114 73.7406C65.6554 73.9329 65.2727 74.1454 64.8512 74.3858H64.8456L64.8351 74.3718L64.8213 74.3543C64.67 74.1652 64.4844 74.0117 64.276 73.9032C64.1912 73.8599 64.1032 73.8239 64.0131 73.7957L63.9759 73.7852L63.8019 73.7362C63.357 73.6156 62.9193 73.481 62.4557 73.3394L62.3157 73.2957L62.0544 73.2082C61.8975 73.1575 61.7397 73.1077 61.5755 73.0518L61.3862 72.9888C61.2691 72.9487 61.1484 72.9223 61.0261 72.9102C60.693 72.8786 60.3588 72.9569 60.0678 73.1348C59.7767 73.3128 59.5425 73.5819 59.3959 73.9067L59.3781 73.9469L59.2293 74.3132C59.1557 74.4942 59.0804 74.6786 59.0019 74.8648H58.8353L58.4105 74.8569C58.349 74.8551 58.2874 74.8572 58.2261 74.8631C58.1711 74.8683 58.1152 74.8762 58.0643 74.8867C57.9538 74.908 57.8455 74.9405 57.7407 74.9837C57.5308 75.0698 57.3372 75.1966 57.1695 75.3578L55.5223 76.9148C55.5146 76.9213 55.5073 76.9283 55.5004 76.9357L55.4673 76.969L55.4527 76.9847L55.4252 77.0144C55.3864 77.0581 55.3516 77.1018 55.3176 77.1447C55.1094 77.4167 54.9666 77.7401 54.9017 78.0861C54.8367 78.432 54.8518 78.79 54.9455 79.1282L54.5045 79.2899L52.3339 78.5302L52.3096 78.5224L52.2894 78.5154L52.2667 78.5084C52.2174 78.4935 52.1664 78.4804 52.1114 78.4682C52.0047 78.4454 51.8965 78.4314 51.7878 78.4262H51.7425H51.6616L50.4165 78.4315C45.0791 83.4586 41.6876 90.4717 40.916 98.0768C41.0304 98.0941 41.1461 98.0999 41.2615 98.0943L41.6555 98.0724C41.7451 98.0695 41.8343 98.0593 41.9225 98.0418L41.9985 98.0244L42.3359 97.9457L42.759 98.6372L42.7922 98.9868C42.7922 98.9964 42.7922 99.0069 42.7922 99.0166C42.8201 99.2633 42.8945 99.5013 43.0106 99.7159C43.0669 99.8217 43.1331 99.9209 43.208 100.012C43.246 100.059 43.2889 100.104 43.3302 100.147L43.3512 100.168L44.8512 101.594C44.9743 101.715 45.1133 101.817 45.2638 101.894C45.4544 101.994 45.6609 102.053 45.8721 102.069H45.8916C45.9611 102.069 45.9992 102.069 46.0291 102.069H46.0396L47.1423 102.038L48.6463 103.037L50.0095 104.416C50.0864 104.497 50.1707 104.57 50.2612 104.632L50.2789 104.644C50.2531 104.713 50.2256 104.781 50.198 104.849L50.1924 104.861C50.1803 104.893 50.1673 104.922 50.1535 104.954C50.1244 105.021 50.0945 105.092 50.0678 105.161C49.8778 105.649 49.7275 106.154 49.6188 106.67C49.5556 106.96 49.5118 107.255 49.4877 107.552C49.4812 107.639 49.4772 107.711 49.4756 107.814V107.91C49.4756 107.965 49.4756 108.033 49.4804 108.111C49.4804 108.153 49.4877 108.206 49.4926 108.249L49.4966 108.285C49.4971 108.287 49.4971 108.29 49.4966 108.293C49.5023 108.349 49.5087 108.405 49.5217 108.474C49.5217 108.485 49.5257 108.496 49.5274 108.507C49.5484 108.607 49.5743 108.717 49.5961 108.799C49.6189 108.883 49.6478 108.965 49.6827 109.043L49.6973 109.077C49.7191 109.128 49.7442 109.181 49.7782 109.241L49.8243 109.328C49.8457 109.371 49.8695 109.413 49.8955 109.453L51.1479 111.429C51.1891 111.495 51.2288 111.564 51.2757 111.63C51.3493 111.746 51.4197 111.857 51.4731 111.951C51.5319 112.08 51.5995 112.205 51.6753 112.324C51.7182 112.391 51.7562 112.448 51.7975 112.505L51.8315 112.554C51.8533 112.586 51.876 112.616 51.9003 112.641L52.1705 112.975C52.3973 113.264 52.6454 113.532 52.9124 113.777C52.9779 113.836 53.0564 113.907 53.1405 113.975C53.2052 114.027 53.3023 114.106 53.4293 114.19L53.4552 114.207C53.4552 114.219 53.4552 114.232 53.4552 114.243C53.4665 114.338 53.4771 114.434 53.4876 114.524L53.5127 114.739C53.5127 114.763 53.5183 114.786 53.5224 114.809L53.6283 115.462L53.6332 115.49L53.7829 116.312C53.7829 116.316 53.7829 116.321 53.7829 116.327L53.74 116.414C53.6091 116.679 53.4994 116.956 53.4123 117.241C53.3166 117.558 53.2534 117.885 53.2238 118.217C53.1899 118.587 53.2041 118.96 53.2659 119.326C53.2997 119.526 53.3487 119.722 53.4123 119.913C53.4123 119.924 53.4204 119.936 53.4253 119.948L53.4932 120.131C53.4932 120.138 53.4989 120.146 53.5013 120.153L53.5191 120.198C53.5256 120.214 53.5321 120.231 53.5394 120.248L53.5434 120.257L53.5054 120.419V120.43C53.494 120.477 53.4827 120.523 53.469 120.605C53.4686 120.613 53.4686 120.621 53.469 120.629L53.4584 120.695L53.4536 120.726V120.759C53.4479 120.799 53.4439 120.839 53.4415 120.881V120.929C53.4415 120.942 53.4415 120.955 53.4415 120.968C53.4361 121.114 53.4423 121.26 53.4601 121.405C53.4601 121.42 53.4601 121.434 53.4665 121.449C53.4746 121.498 53.4835 121.548 53.494 121.597C53.5023 121.648 53.5134 121.697 53.5272 121.746C53.5326 121.768 53.5391 121.79 53.5466 121.812L53.5507 121.826C53.5511 121.83 53.5511 121.834 53.5507 121.838C53.5806 121.937 53.613 122.033 53.6445 122.129L53.6882 122.259C53.6904 122.267 53.6931 122.276 53.6963 122.284C53.7101 122.324 53.723 122.365 53.7368 122.406C53.774 122.52 53.8177 122.648 53.867 122.778L53.9334 122.952C53.9285 123.04 53.9334 123.119 53.9334 123.188C53.9334 123.242 53.9366 123.296 53.9431 123.349L53.9503 123.417C53.9872 123.701 54.0559 123.98 54.155 124.246C54.193 124.351 54.2359 124.459 54.2804 124.565L54.3225 124.667C54.324 124.672 54.3259 124.676 54.3282 124.681L54.4681 125.021C54.5086 125.119 54.549 125.216 54.5846 125.317L54.6356 125.45C54.7076 125.639 54.7893 125.854 54.8783 126.073C54.9438 126.231 55.0086 126.374 55.0749 126.51C55.1721 126.715 55.2844 126.911 55.4106 127.097C55.5944 127.37 55.8172 127.609 56.0708 127.807C56.2459 127.941 56.4363 128.05 56.6371 128.132C56.8659 128.226 57.1065 128.282 57.3507 128.298C57.3992 128.301 57.4486 128.303 57.4988 128.303H57.5635H57.6088C57.6282 128.303 57.6468 128.303 57.6654 128.303H57.7034L57.7617 128.296C57.8191 128.288 57.9057 128.273 57.9761 128.259H57.9906L58.0586 128.245L58.1274 128.228L58.5772 128.113H58.5918C58.7978 128.06 58.9996 127.989 59.1953 127.902C59.4995 127.76 59.7785 127.562 60.0197 127.317C60.1733 127.165 60.3092 126.993 60.4242 126.806C60.533 126.628 60.6236 126.439 60.6944 126.24C60.7292 126.141 60.7592 126.041 60.7842 125.939C60.7956 125.892 60.8061 125.845 60.8182 125.779C60.8182 125.768 60.8182 125.758 60.8239 125.746L60.832 125.699L60.8368 125.665V125.636V125.611C60.8636 125.419 60.872 125.224 60.8619 125.03C60.8619 125.003 60.8619 124.975 60.8546 124.948V124.905C60.8546 124.894 60.8546 124.883 60.8546 124.871L60.8473 124.784C60.8473 124.778 60.8473 124.762 60.8473 124.756C60.8415 124.683 60.8315 124.611 60.8174 124.539L60.688 123.834V123.82C60.6621 123.683 60.6338 123.547 60.6071 123.41C60.5731 123.246 60.5399 123.082 60.5092 122.917L60.4606 122.663L61.0059 122.389C61.0237 122.381 61.0569 122.364 61.1354 122.32L61.1548 122.309C61.5381 122.084 61.8437 121.73 62.0259 121.302C62.2082 120.874 62.2573 120.393 62.1661 119.932C62.1377 119.79 62.0965 119.651 62.0431 119.518C62.107 119.487 62.1709 119.458 62.2259 119.43L62.3991 119.358C62.86 119.179 63.2427 118.821 63.4727 118.353C63.5504 118.195 63.6096 118.026 63.649 117.852L63.8788 116.78L64.5446 116.566C64.5689 116.558 64.5924 116.549 64.6158 116.539C65.0131 116.381 65.3501 116.084 65.5729 115.695C65.7417 115.4 65.8381 115.064 65.8528 114.718C65.8528 114.705 65.8528 114.692 65.8528 114.679V114.635C65.8528 114.622 65.8528 114.609 65.8528 114.597C65.8528 114.397 65.8528 114.202 65.8609 114.014C65.8706 113.649 65.9016 113.285 65.954 112.925C65.9766 112.784 65.9985 112.674 66.0203 112.589L66.0486 112.565C66.1974 112.429 66.3374 112.283 66.4677 112.127C66.6789 111.873 66.8712 111.6 67.0429 111.313C67.331 110.834 67.5889 110.336 67.8147 109.82L67.8228 109.802L67.9709 109.459C67.9735 109.452 67.9765 109.445 67.9798 109.438L68.0477 109.273C68.0785 109.201 68.1055 109.127 68.1286 109.051C68.2408 108.66 68.2302 108.241 68.0985 107.857C67.9668 107.473 67.7214 107.148 67.4005 106.93C67.3278 106.881 67.2518 106.838 67.1732 106.801L67.1513 106.791L67.1335 106.784L67.1076 106.772L67.068 106.756C66.8471 106.668 66.6238 106.572 66.3997 106.485C66.1756 106.397 65.9321 106.305 65.6959 106.222C65.585 106.184 65.4394 106.135 65.2986 106.094C65.1211 106.04 64.9398 106.002 64.7566 105.98L64.7 105.964L64.6789 105.958L64.6069 105.933L64.4977 105.895L64.0123 105.72L62.9929 105.34C62.6539 105.211 62.323 105.083 61.9929 104.946L61.857 104.891L61.726 103.505C61.726 103.492 61.726 103.481 61.7219 103.469C61.7058 103.338 61.6756 103.21 61.6321 103.087L61.6248 103.066C61.5281 102.805 61.3726 102.575 61.1726 102.395C61.1291 102.356 61.0838 102.32 61.0367 102.287L61.0124 102.269L60.5585 101.954C59.637 101.319 58.7981 100.795 57.9882 100.35C57.5201 100.089 57.0382 99.8589 56.5449 99.6599C56.2538 99.5408 55.9543 99.447 55.6493 99.3793C55.4489 99.3331 55.245 99.3071 55.0401 99.3015C54.74 99.2914 54.4408 99.3412 54.1574 99.4484C54.0828 99.4771 54.0096 99.51 53.9382 99.5472L53.7141 99.6599C53.672 99.68 53.6332 99.701 53.5887 99.7229C53.5442 99.7447 53.4957 99.771 53.4415 99.7946C53.2578 99.882 53.0612 99.9598 52.8573 100.038C52.6753 100.108 52.486 100.176 52.2862 100.242L51.5346 99.6765L51.1066 99.1634L51.2644 98.7316C51.2674 98.7247 51.2701 98.7177 51.2724 98.7106C51.2854 98.6756 51.3064 98.6092 51.321 98.555C51.3522 98.4374 51.3723 98.3168 51.3808 98.1948C51.3808 98.18 51.3808 98.1651 51.3808 98.1494H51.3865H51.4092C51.4577 98.1599 51.5063 98.1677 51.5548 98.1738C51.5774 98.1738 51.5993 98.1791 51.6219 98.1808L52.2295 98.2962C52.314 98.3128 52.3994 98.323 52.4852 98.3268C52.9573 98.3487 53.4202 98.1816 53.7854 97.8575C54.1505 97.5335 54.3922 97.0752 54.4641 96.5706C54.4641 96.5575 54.4641 96.5435 54.4697 96.5295L54.4786 96.4473V96.4299L54.5854 95.3808L55.4438 94.7121C55.6019 94.5894 55.7423 94.4421 55.8605 94.275C55.8904 94.2331 55.9195 94.1876 55.947 94.1421C55.9543 94.129 55.9624 94.1168 55.9689 94.1037L55.9907 94.0643L55.9988 94.0504L56.4033 93.2986C56.5368 93.2409 56.6574 93.1858 56.7731 93.129C56.9858 93.0276 57.1662 92.9314 57.3394 92.8291C57.4332 92.7741 57.5133 92.7164 57.5821 92.6692L57.5975 92.6578L57.7285 92.5599C57.8084 92.5001 57.8841 92.434 57.955 92.3623C58.0385 92.2783 58.1162 92.1877 58.1872 92.0913C58.2204 92.0459 58.2503 92.0039 58.2787 91.9567C58.2837 91.9498 58.2883 91.9425 58.2924 91.9349L58.2965 91.9279L58.3442 91.8868L58.4397 91.7994L58.6524 91.6053L58.667 91.5922C58.7099 91.552 58.7382 91.5266 58.7479 91.5187C58.7576 91.5109 58.7746 91.4995 58.7875 91.4899L58.8733 91.4252L59.3676 91.6647C59.3805 91.6717 59.3937 91.6779 59.4073 91.6831C59.7398 91.831 60.1027 91.8811 60.459 91.8282C60.6371 91.8013 60.8112 91.7493 60.9768 91.6735C61.058 91.6366 61.137 91.5939 61.213 91.5458C61.2567 91.5179 61.2996 91.489 61.3489 91.4514L61.3732 91.4322L61.3853 91.4235L62.6693 90.4173L62.7081 90.3858C62.9967 90.138 63.2186 89.811 63.3505 89.4391C63.4186 89.2475 63.4613 89.0465 63.4775 88.842C63.4771 88.8359 63.4771 88.8298 63.4775 88.8237L63.4985 88.5448C63.5074 88.4478 63.5171 88.3516 63.5277 88.2572C63.5382 88.1628 63.5519 88.0692 63.5657 87.9748C63.5705 87.9399 63.5786 87.9084 63.5851 87.8769V87.8638C63.6558 87.7743 63.7197 87.6787 63.776 87.578C63.8442 87.4589 63.9027 87.3338 63.9508 87.2038L63.9556 87.1889L63.9686 87.1531L63.9759 87.133C63.988 87.0972 64.0074 87.0333 64.0196 86.9905C64.0349 86.9337 64.0487 86.8777 64.0568 86.8375C64.1178 86.5491 64.1388 86.2524 64.1191 85.9572C64.0981 85.6503 64.0518 85.3461 63.9807 85.0481C63.9804 85.0437 63.9804 85.0393 63.9807 85.035C63.9419 84.8689 63.8998 84.7028 63.8497 84.5323L65.0098 84.4694H65.0292L66.3674 84.3759C66.8338 84.3427 67.2704 84.1167 67.5866 83.7447L68.1917 83.0357L68.5574 82.5986L68.9619 82.3915L68.9773 82.3836L69.7313 81.9841L69.7459 81.9727ZM60.5148 80.8984L60.476 80.8695L60.4372 80.8424L60.4161 80.8276C60.3692 80.7952 60.3223 80.7664 60.2729 80.7402C60.2236 80.7139 60.15 80.6755 60.086 80.6475L60.5561 80.5915C60.6246 80.7308 60.6942 80.8692 60.7648 81.0068L60.7867 81.1082L60.5148 80.8984Z" fill="#3EA5CB"/>
<path d="M66.5098 108.435C66.009 108.213 65.5074 107.998 64.9897 107.816C64.8579 107.768 64.7226 107.732 64.5851 107.709L64.5301 107.704L64.4864 107.696C64.4554 107.692 64.4248 107.685 64.395 107.674C64.3311 107.655 64.2672 107.637 64.2033 107.614C63.9476 107.527 63.6936 107.428 63.4404 107.331C62.9339 107.132 62.4291 106.924 61.9259 106.719L60.4243 106.083L60.2261 103.68C60.2253 103.673 60.2232 103.666 60.2198 103.66C60.2165 103.654 60.212 103.649 60.2067 103.645C59.5832 103.196 58.9462 102.768 58.2957 102.364C57.6471 101.952 56.9742 101.587 56.2812 101.27C55.9303 101.105 55.5618 100.988 55.1842 100.921C54.9804 100.882 54.7707 100.909 54.5806 100.997C54.4188 101.084 54.2489 101.171 54.0782 101.251C53.4075 101.555 52.7179 101.808 52.0144 102.007L50.5274 100.907L49.3381 99.5079L49.8324 98.1093C49.8438 98.0769 49.8438 98.0411 49.8324 98.0087C49.8199 97.9726 49.7947 97.9433 49.7624 97.9269C49.73 97.9106 49.693 97.9086 49.6593 97.9213L47.9433 98.5691L46.9507 97.9755L47.4288 95.1965L49.8769 95.2018C49.9052 95.2022 49.9331 95.1947 49.9578 95.1799L51.0808 94.4972C51.1617 94.8993 51.2426 95.297 51.3591 95.6974C51.3949 95.8225 51.4384 95.9448 51.4893 96.0637C51.5043 96.0978 51.5214 96.1308 51.5403 96.1625C51.568 96.2107 51.6049 96.2518 51.6487 96.2831L51.6738 96.2997C51.6866 96.3059 51.6999 96.3108 51.7134 96.3146L51.7571 96.3224H51.7749H51.8097L51.8906 96.3294C52.1018 96.3539 52.3251 96.3976 52.5378 96.4431H52.5548C52.5771 96.4454 52.5995 96.4429 52.6208 96.4357C52.6421 96.4286 52.6619 96.417 52.6791 96.4016C52.6962 96.3861 52.7104 96.3672 52.7207 96.3458C52.731 96.3244 52.7374 96.301 52.7393 96.277L52.9084 94.3197L54.3913 93.1308C54.4104 93.1152 54.4264 93.0956 54.4383 93.0731L55.151 91.7059C55.3686 91.6185 55.583 91.5232 55.7982 91.4236C56.0368 91.3165 56.2694 91.1945 56.4948 91.0582C56.5569 91.019 56.6161 90.9749 56.672 90.9262C56.7131 90.8914 56.7479 90.8487 56.7747 90.8003C56.7836 90.781 56.795 90.7469 56.7982 90.7373C56.7994 90.741 56.7994 90.745 56.7982 90.7487C56.7982 90.7434 56.8039 90.7382 56.8112 90.7277C56.8831 90.6313 56.9615 90.5407 57.0458 90.4567C57.2221 90.2766 57.4123 90.1071 57.6056 89.9383C57.799 89.7696 57.998 89.6158 58.2035 89.4741C58.3035 89.4044 58.407 89.3405 58.5134 89.2827C58.5629 89.256 58.614 89.2326 58.6663 89.2128C58.6997 89.1994 58.735 89.192 58.7706 89.1909C58.7806 89.1926 58.7904 89.1955 58.7997 89.1997L58.841 89.2128L58.9219 89.2442L59.0934 89.3142C59.2083 89.3631 59.3224 89.4138 59.4373 89.4672C59.6654 89.5729 59.8944 89.6822 60.1201 89.795C60.1453 89.8075 60.1732 89.8124 60.2008 89.8094C60.2284 89.8063 60.2547 89.7953 60.277 89.7775L61.5319 88.7801C61.5494 88.7661 61.564 88.7481 61.5745 88.7274C61.5849 88.7067 61.5911 88.6838 61.5925 88.6603C61.6136 88.3027 61.6484 87.94 61.7009 87.5868C61.7263 87.4102 61.7601 87.2352 61.8021 87.0623C61.8223 86.9802 61.8474 86.8996 61.8773 86.821C61.8999 86.755 61.9333 86.694 61.976 86.6409C61.9833 86.6348 61.9914 86.6261 61.9938 86.627C61.9938 86.627 61.9938 86.627 62.0051 86.6208C62.0255 86.6129 62.0452 86.6032 62.0642 86.592C62.1258 86.546 62.1706 86.4783 62.1912 86.4005C62.2166 86.2942 62.224 86.1837 62.2131 86.0745C62.1963 85.8835 62.1638 85.6945 62.116 85.5098C62.027 85.151 61.9189 84.7982 61.7924 84.4529C61.7833 84.4285 61.7679 84.4075 61.7479 84.3926L59.3871 82.6119C59.3655 82.5956 59.3392 82.5884 59.313 82.5914C59.2869 82.5945 59.2626 82.6076 59.2447 82.6285L57.1615 85.029L54.613 85.4031L53.766 83.8672C54.1519 83.7326 54.5345 83.5936 54.9156 83.4467C55.3258 83.2876 55.7343 83.1224 56.1356 82.9353C56.3396 82.8431 56.5372 82.7353 56.727 82.6127C56.7767 82.5798 56.8236 82.542 56.867 82.5C56.9094 82.452 56.9453 82.3979 56.9738 82.3391C57.0244 82.2306 57.0674 82.1181 57.1024 82.0026C57.231 81.5493 57.3244 81.0853 57.3815 80.6152C57.3839 80.6052 57.3839 80.5947 57.3815 80.5847C57.3791 80.5759 57.375 80.5678 57.3695 80.5609C57.364 80.5539 57.3573 80.5483 57.3496 80.5444C57.342 80.5404 57.3337 80.5382 57.3253 80.5379C57.3169 80.5376 57.3084 80.5393 57.3006 80.5427L54.5184 81.5279L51.7337 80.5392C51.7267 80.5383 51.7196 80.5383 51.7126 80.5392L48.8559 80.5339L48.4619 80.4666C44.6391 84.8311 42.0972 90.3203 41.1564 96.2429C41.1653 96.2434 41.1742 96.2434 41.1831 96.2429L41.5876 96.228H41.6094L42.4686 96.0462C42.4932 96.0411 42.5162 96.0293 42.5353 96.0118C42.5545 95.9944 42.5691 95.9719 42.5778 95.9466L43.1199 94.3879C43.3008 94.3838 43.4814 94.4052 43.6571 94.4517C43.7363 94.4681 43.8089 94.5105 43.865 94.5732C43.8715 94.5837 43.8796 94.5933 43.8788 94.6038C43.878 94.6143 43.8836 94.6117 43.8836 94.6204V94.6475C43.8846 94.669 43.8827 94.6905 43.878 94.7113C43.8748 94.7365 43.8697 94.7614 43.8626 94.7856C43.7943 95.0083 43.7022 95.2215 43.5883 95.4212C43.4759 95.6292 43.3456 95.8373 43.221 96.0331C43.2009 96.062 43.1895 96.0969 43.1885 96.1331C43.1874 96.1693 43.1968 96.2049 43.2154 96.235L44.2728 98.0559L44.3254 98.8138C44.3288 98.8616 44.3487 98.9062 44.3812 98.9389L45.8674 100.425C45.9005 100.458 45.9437 100.476 45.9887 100.477H47.5372L49.4789 101.863L51.0161 103.306C51.0509 103.339 51.0953 103.357 51.1414 103.358H52.1932C52.1772 103.505 52.1543 103.651 52.1244 103.795C52.0791 104.013 52.0233 104.232 51.9626 104.45C51.8377 104.886 51.6905 105.314 51.5217 105.732C51.3543 106.177 51.228 106.639 51.1447 107.112C51.0991 107.353 51.0747 107.599 51.0719 107.845C51.0714 107.911 51.075 107.977 51.0824 108.043L51.0953 108.146C51.1018 108.181 51.1131 108.218 51.122 108.255L51.1374 108.309L51.1649 108.369C51.1811 108.404 51.1998 108.439 51.2207 108.472L51.3154 108.614C51.8178 109.367 52.3307 110.114 52.8113 110.872L52.8971 111.013L52.9359 111.08L52.9456 111.097V111.104L52.9529 111.114C52.9626 111.14 52.9739 111.165 52.9852 111.19C52.9966 111.214 53.0038 111.222 53.0127 111.239C53.0314 111.271 53.0483 111.297 53.0661 111.326C53.1009 111.379 53.1365 111.425 53.1721 111.473C53.3135 111.658 53.4634 111.835 53.6211 112.003C53.7791 112.175 53.9469 112.335 54.1235 112.483C54.2175 112.562 54.3173 112.632 54.4221 112.693C54.5287 112.752 54.6407 112.799 54.7562 112.834C54.8088 112.851 54.8557 112.866 54.8881 112.881C54.9112 112.891 54.9321 112.906 54.9496 112.926C54.9939 112.993 55.025 113.069 55.041 113.15C55.0901 113.366 55.1271 113.584 55.1518 113.804C55.1793 114.028 55.2036 114.268 55.2408 114.504C55.278 114.74 55.3217 114.968 55.3638 115.197L55.4997 115.876C55.5457 116.09 55.5755 116.309 55.5887 116.528C55.5937 116.625 55.5872 116.722 55.5693 116.817C55.5599 116.858 55.5466 116.897 55.5296 116.936L55.5029 116.99C55.4924 117.01 55.4738 117.04 55.4593 117.065C55.3364 117.274 55.2346 117.497 55.1559 117.729C55.0739 117.966 55.0235 118.214 55.0062 118.466C54.9893 118.727 55.0207 118.988 55.0984 119.235C55.1169 119.298 55.1399 119.359 55.1672 119.417L55.2376 119.576C55.2759 119.664 55.306 119.757 55.3274 119.852C55.3738 120.052 55.3824 120.26 55.3525 120.464C55.338 120.57 55.3169 120.675 55.2894 120.778C55.2764 120.834 55.261 120.886 55.2465 120.96C55.2419 120.982 55.2386 121.004 55.2368 121.026C55.2328 121.053 55.2328 121.081 55.2368 121.108C55.2397 121.134 55.244 121.159 55.2497 121.184L55.2627 121.232C55.3339 121.476 55.4139 121.684 55.494 121.904C55.6122 122.221 55.7368 122.534 55.8581 122.846C55.8229 122.872 55.7949 122.908 55.7772 122.951C55.7524 123.015 55.7448 123.085 55.7554 123.154C55.778 123.295 55.8169 123.434 55.8711 123.565C55.9164 123.686 55.9681 123.805 56.0175 123.915C56.0668 124.025 56.1121 124.137 56.1575 124.251C56.3435 124.703 56.4981 125.171 56.7311 125.634C56.7921 125.756 56.8636 125.87 56.9446 125.977C57.0367 126.105 57.1596 126.202 57.2998 126.259C57.3792 126.289 57.4638 126.299 57.5474 126.289C57.5862 126.285 57.6246 126.277 57.6623 126.266L57.7432 126.244L58.0789 126.156C58.1999 126.127 58.3189 126.088 58.4349 126.041C58.5669 125.989 58.6875 125.908 58.7892 125.803C58.8943 125.685 58.9652 125.537 58.9931 125.376C59.006 125.302 59.0114 125.227 59.0093 125.152C59.0095 125.081 59.0038 125.01 58.9923 124.939C58.9527 124.677 58.9001 124.44 58.8507 124.193L58.6986 123.462C58.5991 122.975 58.4972 122.488 58.4211 122.005C58.4025 121.884 58.3863 121.764 58.3758 121.647C58.3716 121.597 58.3699 121.547 58.371 121.496H58.3774C58.5732 121.386 58.782 121.278 58.9923 121.172L60.2479 120.543C60.2658 120.534 60.2819 120.522 60.2957 120.507C60.3235 120.473 60.3384 120.43 60.3375 120.385C60.3366 120.341 60.3199 120.298 60.2908 120.266C60.0382 120.018 59.8329 119.72 59.6865 119.387C59.6215 119.24 59.6 119.075 59.625 118.914C59.6399 118.841 59.6701 118.773 59.7132 118.714C59.7633 118.65 59.8213 118.593 59.8855 118.546C60.1708 118.32 60.4743 118.121 60.7924 117.954C61.1113 117.782 61.4392 117.631 61.7746 117.501H61.7786C61.7999 117.493 61.8189 117.479 61.834 117.461C61.8491 117.443 61.8598 117.421 61.8652 117.397L62.3506 115.243L63.9937 114.75C64.0174 114.742 64.0379 114.726 64.0525 114.704C64.067 114.682 64.0748 114.656 64.0746 114.629C64.0769 114.057 64.1153 113.486 64.1895 112.92C64.2256 112.638 64.2797 112.36 64.3513 112.087C64.4322 111.825 64.5253 111.552 64.6887 111.365C64.7105 111.345 64.7308 111.322 64.7534 111.303L64.827 111.248C64.8876 111.207 64.9457 111.161 65.001 111.112C65.1063 111.014 65.2047 110.908 65.2955 110.794C65.4727 110.57 65.635 110.333 65.7809 110.084C66.0674 109.59 66.3233 109.077 66.547 108.547C66.552 108.537 66.555 108.526 66.5558 108.515C66.5566 108.504 66.5552 108.493 66.5517 108.482C66.5482 108.471 66.5426 108.462 66.5354 108.454C66.5282 108.446 66.5195 108.439 66.5098 108.435ZM72.9902 79.4334L72.9958 78.1221L73.6657 77.4805L74.3898 76.7811C74.411 76.7608 74.4268 76.7348 74.4358 76.7057C74.4448 76.6767 74.4465 76.6456 74.4409 76.6156C74.4352 76.5856 74.4224 76.5577 74.4036 76.5347C74.3848 76.5118 74.3608 76.4945 74.334 76.4848C73.8486 76.3029 73.3542 76.1351 72.8648 75.9603L71.394 75.4358C71.3715 75.4266 71.3468 75.4266 71.3244 75.4358L70.2597 75.9235L69.2144 76.393C68.4475 76.0934 67.6824 75.7883 66.9192 75.4777C66.9044 75.4712 66.8879 75.4712 66.8731 75.4777L65.6223 76.0669L64.4403 76.6141L63.6475 75.4567C63.6326 75.4349 63.6116 75.419 63.5876 75.4113H63.5836L62.2592 74.9681L60.9332 74.531C60.8944 74.5176 60.8523 74.5205 60.8154 74.5392C60.7786 74.5578 60.7495 74.5908 60.7341 74.6315L59.9906 76.5477L58.388 76.6211C58.34 76.6238 58.2945 76.6452 58.2601 76.6815L57.481 77.5102L56.7027 78.3459C56.6801 78.3706 56.663 78.4005 56.6526 78.4333C56.6354 78.4895 56.6396 78.5508 56.6641 78.6037C56.6887 78.6567 56.7317 78.6969 56.7836 78.7157L57.3848 78.9325C57.4136 78.9432 57.4444 78.9463 57.4746 78.9412L59.6209 78.637C60.2973 78.5426 60.9736 78.4368 61.6492 78.3354L62.6362 80.2315L63.1014 82.3295V82.3339C63.106 82.359 63.1186 82.3816 63.1371 82.3976C63.1557 82.4136 63.1788 82.422 63.2025 82.4213C63.7098 82.4117 64.2162 82.3977 64.7186 82.3793L66.2162 82.3286C66.6255 81.8915 67.0381 81.4422 67.4548 80.9885C67.9734 80.7621 68.4879 80.5252 69.0049 80.2892L70.5315 79.5898C71.2944 79.5986 72.0582 79.6099 72.8211 79.6126C72.8654 79.6128 72.9081 79.5941 72.9398 79.5606C72.9714 79.527 72.9895 79.4813 72.9902 79.4334ZM92.538 114.022L92.5024 113.489V113.47C92.5002 113.44 92.4871 113.413 92.466 113.393C92.4449 113.374 92.4176 113.364 92.39 113.366C92.1893 113.382 91.9855 113.398 91.7889 113.409C91.5923 113.42 91.3843 113.425 91.1869 113.426C91.1788 113.426 91.1708 113.428 91.1634 113.431C91.156 113.435 91.1494 113.44 91.1441 113.447C91.0276 113.584 90.9119 113.723 90.7897 113.854C90.6675 113.985 90.547 114.116 90.4175 114.245C90.2881 114.373 90.1651 114.501 90.043 114.632C89.9208 114.763 89.8003 114.894 89.6838 115.035C89.6625 115.062 89.6482 115.094 89.6425 115.129C89.6077 115.358 89.5867 115.593 89.5616 115.828C89.5365 116.063 89.5252 116.293 89.5131 116.519L89.4589 117.772C89.6813 117.632 89.9184 117.489 90.1651 117.34L90.9321 116.875C91.1942 116.712 91.4612 116.542 91.7249 116.361C91.8576 116.274 91.9887 116.181 92.1181 116.087C92.2476 115.992 92.377 115.899 92.5016 115.801L92.5129 115.793C92.5388 115.773 92.5597 115.747 92.5738 115.717C92.5879 115.686 92.5948 115.652 92.5938 115.618L92.5655 114.551C92.5558 114.378 92.5493 114.2 92.538 114.022ZM90.0058 81.0078L86.4128 81.6713L84.1475 79.9719C84.124 79.9544 84.0965 79.9441 84.068 79.9423C84.0395 79.9404 84.011 79.947 83.9857 79.9614L81.6598 81.312C81.4688 81.4309 81.2634 81.5183 81.0651 81.6205L80.4656 81.9178L79.2659 82.5131C79.2428 82.5244 79.2224 82.5413 79.2061 82.5623C79.1899 82.5833 79.1782 82.608 79.172 82.6346L78.9989 83.3759C78.9913 83.409 78.9923 83.4437 79.0017 83.4762C79.0111 83.5087 79.0286 83.5378 79.0523 83.5603L80.3589 84.7991L80.2116 86.6672L76.8501 86.585C76.828 86.5846 76.806 86.589 76.7854 86.5978C76.7649 86.6067 76.7462 86.6199 76.7303 86.6366L75.5305 87.9382C75.5194 87.9503 75.5101 87.9641 75.503 87.9793L74.3971 90.3046L74.3898 90.323C74.3766 90.3631 74.3786 90.4072 74.3954 90.4458C74.4122 90.4843 74.4425 90.514 74.4796 90.5284L76.3736 91.2592C76.4026 91.2706 76.4343 91.2706 76.4634 91.2592L79.2683 90.2294L82.9526 90.5677L83.2892 92.1596C83.2944 92.1835 83.3079 92.2043 83.3268 92.2178C83.3458 92.2312 83.3688 92.2364 83.3911 92.2322L86.7437 91.5818L86.9055 93.9193L83.3725 93.9281C83.3626 93.9281 83.3529 93.9308 83.3442 93.9359L82.43 94.4832L79.8872 92.4603C79.8762 92.4516 79.8628 92.447 79.8492 92.4472L76.8436 92.4411C76.8339 92.4413 76.8243 92.4434 76.8153 92.4472L74.6633 93.463H74.656L73.0201 94.4753C73.0118 94.4802 73.0044 94.4867 72.9983 94.4945L71.7038 96.1555C71.6897 96.1732 71.6819 96.1959 71.682 96.2193L71.6731 98.3409L71.237 100.463C71.233 100.48 71.233 100.498 71.237 100.516L71.8268 103.125C71.8305 103.142 71.8371 103.158 71.8465 103.171C71.8558 103.185 71.8675 103.197 71.881 103.206L74.3647 104.879C74.3858 104.893 74.4102 104.901 74.4351 104.901L79.0466 104.923L79.5191 106.39C79.5229 106.403 79.528 106.414 79.5344 106.425L80.6954 108.416L80.3524 111.598C80.3504 111.615 80.3504 111.632 80.3524 111.648L80.9454 115.919C80.9513 115.962 80.9698 116.001 80.998 116.032L82.1306 117.264L82.0497 118.188C82.047 118.224 82.053 118.261 82.0672 118.293C82.0814 118.326 82.1032 118.354 82.1306 118.375L83.76 119.678C83.7955 119.706 83.8386 119.72 83.8825 119.719C83.9264 119.718 83.9687 119.701 84.0027 119.671L87.0997 116.894C87.1324 116.864 87.1559 116.825 87.1669 116.781L87.7599 114.392L88.8367 112.24L89.8173 111.621C89.8431 111.605 89.8653 111.582 89.8822 111.555C89.8991 111.528 89.9104 111.498 89.9151 111.466L90.5899 106.609L93.8972 102.57C93.9223 102.54 93.939 102.503 93.9451 102.464C93.9512 102.424 93.9465 102.383 93.9316 102.346C93.9167 102.309 93.8923 102.278 93.8612 102.255C93.8301 102.233 93.7937 102.221 93.7564 102.221L90.2679 102.144L88.5924 97.5288L90.6336 100.838C90.6519 100.868 90.6794 100.888 90.711 100.897C90.7426 100.906 90.7761 100.902 90.8051 100.886L95.0007 98.5385C95.0182 98.5288 95.0328 98.5139 95.0428 98.4956C95.0498 98.4827 95.0543 98.4685 95.0562 98.4536C95.0581 98.4388 95.0572 98.4238 95.0537 98.4093C95.0501 98.3949 95.044 98.3813 95.0356 98.3694C95.0272 98.3575 95.0167 98.3475 95.0048 98.34L91.8431 96.3382L91.4385 94.7297L93.2184 95.1484L96.4084 96.8802L96.9319 96.8872C96.1182 90.9734 93.709 85.45 90.0058 81.0078Z" fill="#9EE854"/>
<g style="mix-blend-mode:multiply">
<path d="M88.4281 79.2567C90.0656 83.1922 90.9098 87.4591 90.9045 91.774C90.9045 108.635 78.2537 122.305 62.6491 122.305C55.4197 122.315 48.4634 119.321 43.2209 113.942C47.6415 124.562 57.523 131.956 69 131.956C84.6054 131.956 97.2554 118.286 97.2554 101.425C97.2601 97.2749 96.4794 93.1676 94.9614 89.3554C93.4434 85.5432 91.2201 82.1066 88.4281 79.2567Z" fill="#D1D3D4"/>
</g>
<path opacity="0.2" d="M44.5397 105.526C44.5397 88.6646 57.1905 74.9951 72.796 74.9951C79.3647 74.9857 85.7294 77.4598 90.7872 81.9885C88.139 78.5161 84.8118 75.7207 81.0447 73.8031C77.2776 71.8855 73.1642 70.8933 69 70.8978C53.3946 70.8978 40.7445 84.5665 40.7445 101.428C40.7404 105.928 41.6586 110.372 43.4332 114.443C45.2078 118.513 47.7946 122.108 51.0079 124.97C46.8172 119.503 44.5289 112.624 44.5397 105.526Z" fill="white"/>
<g style="mix-blend-mode:multiply" opacity="0.5">
<path d="M93.0477 114.682L93.0121 114.149V114.13C93.0111 114.115 93.0073 114.101 93.0011 114.088C92.9949 114.074 92.9863 114.063 92.9759 114.053C92.9654 114.043 92.9533 114.036 92.9402 114.031C92.9271 114.027 92.9133 114.025 92.8996 114.026C92.6998 114.043 92.4951 114.059 92.2985 114.07C92.1019 114.081 91.894 114.085 91.6974 114.086C91.6807 114.086 91.665 114.094 91.6537 114.107C91.538 114.245 91.4223 114.383 91.3002 114.515C91.178 114.647 91.0575 114.777 90.928 114.906C90.7986 115.034 90.6756 115.161 90.5534 115.293C90.4313 115.425 90.3107 115.555 90.1942 115.695C90.1727 115.722 90.1584 115.754 90.153 115.789C90.1182 116.02 90.0971 116.254 90.072 116.489C90.047 116.724 90.0356 116.955 90.0227 117.181L89.9685 118.434C90.1918 118.294 90.4288 118.15 90.6756 118.002L91.4417 117.536C91.7047 117.373 91.9717 117.203 92.2354 117.023C92.3681 116.935 92.4991 116.843 92.6278 116.747C92.7564 116.652 92.8867 116.56 93.0121 116.462L93.0234 116.454C93.0492 116.434 93.0701 116.408 93.0842 116.377C93.0984 116.347 93.1052 116.313 93.1043 116.279L93.0752 115.212C93.0655 115.038 93.0582 114.859 93.0477 114.682ZM96.931 97.5576H97.0313C96.3725 91.9338 94.2707 86.6215 90.9636 82.221C90.8155 82.0339 90.6659 81.8486 90.513 81.665L86.9193 82.3294L84.654 80.6291C84.6301 80.6123 84.6027 80.6026 84.5742 80.6009C84.5458 80.5992 84.5175 80.6056 84.4922 80.6195L82.167 81.9701C81.9761 82.089 81.7706 82.1764 81.5724 82.2787L80.972 82.5759L79.7731 83.1704C79.7502 83.182 79.7299 83.1989 79.7137 83.2199C79.6974 83.2409 79.6857 83.2654 79.6792 83.2919L79.5061 84.0341C79.4983 84.0671 79.4992 84.1019 79.5086 84.1344C79.5181 84.167 79.5357 84.1961 79.5595 84.2185L80.8661 85.4563L80.7188 87.3245L77.3573 87.2432C77.3351 87.2424 77.3131 87.2466 77.2925 87.2555C77.2719 87.2644 77.2532 87.2777 77.2376 87.2947L76.0386 88.599C76.0278 88.6114 76.0186 88.6252 76.0111 88.6401L74.9059 90.9671L74.8986 90.9864C74.8921 91.0062 74.8892 91.0272 74.8902 91.0482C74.8912 91.0692 74.896 91.0898 74.9043 91.1088C74.9126 91.1278 74.9244 91.1448 74.9388 91.1589C74.9532 91.173 74.9701 91.1839 74.9884 91.1909L76.8816 91.9217C76.9104 91.9323 76.9417 91.9323 76.9706 91.9217L79.7763 90.892L83.4598 91.2303L83.7964 92.8221C83.8014 92.8462 83.8148 92.8672 83.8338 92.8808C83.8528 92.8945 83.8759 92.8998 83.8983 92.8956L87.2509 92.2452L87.4128 94.5819L83.8797 94.5915C83.8696 94.5915 83.8596 94.5942 83.8506 94.5993L82.9396 95.1378L80.396 93.1159C80.3854 93.1069 80.3723 93.102 80.3588 93.1019L77.3524 93.0966C77.343 93.0966 77.3336 93.0986 77.3249 93.1028L75.1753 94.1185H75.1681L73.5306 95.1387C73.5221 95.1442 73.5145 95.1509 73.5079 95.1588L72.2135 96.8198C72.1999 96.8378 72.1925 96.8603 72.1924 96.8836L72.1827 99.0052L71.7466 101.127C71.743 101.144 71.743 101.163 71.7466 101.18L72.3372 103.79C72.3448 103.824 72.3639 103.852 72.3906 103.871L74.8744 105.544C74.8953 105.558 74.9194 105.565 74.9439 105.566L79.5554 105.588L80.0287 107.055C80.0325 107.068 80.0377 107.08 80.0441 107.09L81.2051 109.081L80.8612 112.263C80.8592 112.28 80.8592 112.297 80.8612 112.314L81.4542 116.584C81.46 116.627 81.4784 116.666 81.5068 116.697L82.6395 117.93L82.5586 118.854C82.5559 118.89 82.5619 118.927 82.5761 118.959C82.5903 118.992 82.6121 119.02 82.6395 119.041L84.2689 120.344C84.3043 120.372 84.3475 120.386 84.3915 120.385C84.4354 120.384 84.4777 120.366 84.5116 120.336L87.6077 117.559C87.6404 117.529 87.6639 117.49 87.6749 117.445L88.2687 115.057L89.3447 112.905L90.3261 112.286C90.3519 112.269 90.3741 112.247 90.391 112.22C90.408 112.193 90.4192 112.162 90.424 112.13L91.0987 107.274L94.4052 103.234C94.4356 103.198 94.4528 103.151 94.4538 103.102C94.4543 103.074 94.4498 103.047 94.4406 103.021C94.4314 102.996 94.4175 102.973 94.4 102.953C94.3824 102.933 94.3613 102.917 94.3381 102.906C94.3148 102.895 94.2898 102.89 94.2645 102.889L90.7767 102.813L89.1012 98.1975L91.1424 101.507C91.1607 101.536 91.1883 101.557 91.2199 101.566C91.2515 101.575 91.2849 101.57 91.3139 101.554L95.5088 99.2071C95.5263 99.1971 95.5409 99.182 95.5508 99.1634C95.5579 99.1506 95.5626 99.1364 95.5646 99.1216C95.5666 99.1068 95.5658 99.0917 95.5624 99.0772C95.5589 99.0627 95.5528 99.0491 95.5444 99.0372C95.5361 99.0253 95.5256 99.0153 95.5136 99.0078L92.3519 97.0068L91.9474 95.3975L93.7273 95.8171L96.931 97.5576ZM67.0195 109.099C66.5187 108.876 66.0171 108.662 65.4993 108.48C65.3675 108.432 65.2322 108.397 65.0948 108.374L65.0398 108.368L64.9969 108.36C64.9658 108.356 64.9352 108.348 64.9055 108.338C64.8416 108.319 64.7776 108.301 64.7137 108.278C64.4581 108.19 64.204 108.092 63.95 107.994C63.4436 107.796 62.9395 107.588 62.4363 107.382L60.9364 106.739L60.7357 104.334C60.7349 104.327 60.7328 104.321 60.7295 104.315C60.7261 104.309 60.7216 104.304 60.7163 104.3C60.0901 103.851 59.4534 103.425 58.8062 103.021C58.1571 102.61 57.4843 102.245 56.7917 101.928C56.4405 101.763 56.0721 101.646 55.6946 101.578C55.4906 101.54 55.2809 101.567 55.0903 101.654C54.9285 101.741 54.7594 101.829 54.5887 101.909C53.9178 102.213 53.2282 102.465 52.5248 102.665L51.0395 101.567L49.8502 100.169L50.3445 98.77C50.3554 98.7373 50.3554 98.7014 50.3445 98.6686C50.3319 98.6323 50.3066 98.6028 50.2741 98.5864C50.2416 98.5701 50.2044 98.5682 50.1706 98.5812L48.4506 99.2211L47.4571 98.6284L47.936 95.8485L50.3833 95.8547C50.4116 95.8551 50.4395 95.8476 50.4642 95.8328L51.5872 95.1501C51.6681 95.5531 51.749 95.9508 51.8655 96.3512C51.9005 96.4763 51.944 96.5984 51.9957 96.7166C52.0108 96.7507 52.0278 96.7837 52.0467 96.8154C52.0737 96.8641 52.1105 96.9056 52.1543 96.9369L52.1794 96.9526C52.1922 96.9589 52.2054 96.9639 52.219 96.9675C52.2336 96.9717 52.2485 96.9746 52.2635 96.9762H52.2813H52.3161L52.397 96.9824C52.6082 97.0068 52.8315 97.0514 53.0443 97.096H53.0612C53.106 97.1001 53.1505 97.085 53.1851 97.0539C53.2196 97.0228 53.2414 96.9783 53.2457 96.9299L53.4148 94.9726L54.8969 93.7837C54.9163 93.7682 54.9325 93.7486 54.9447 93.726L55.6566 92.358C55.8751 92.2705 56.0894 92.1753 56.3038 92.0765C56.5422 91.9693 56.7746 91.847 56.9996 91.7102C57.062 91.6715 57.1215 91.6277 57.1776 91.5791C57.2184 91.5438 57.2529 91.5009 57.2795 91.4523C57.2888 91.4322 57.2969 91.4115 57.3038 91.3902C57.3046 91.394 57.3046 91.3979 57.3038 91.4016C57.3038 91.3964 57.3095 91.3903 57.3168 91.3806C57.3878 91.2834 57.4663 91.1927 57.5514 91.1096C57.7277 90.9287 57.9171 90.76 58.1104 90.5913C58.3038 90.4225 58.5036 90.2678 58.7083 90.1271C58.8088 90.0574 58.9125 89.9932 59.019 89.9347C59.0685 89.9081 59.1195 89.885 59.1719 89.8657C59.2052 89.8519 59.2405 89.8445 59.2762 89.8438C59.2762 89.8438 59.2924 89.8438 59.3053 89.8517L59.3466 89.8657L59.4275 89.8972L59.599 89.9671C59.7131 90.0152 59.828 90.0667 59.9421 90.1192C60.1702 90.2258 60.4 90.3351 60.6249 90.447C60.65 90.4596 60.6779 90.4648 60.7055 90.4618C60.7331 90.4589 60.7594 90.4481 60.7818 90.4304L62.0423 89.4391C62.0598 89.4248 62.0743 89.4067 62.0847 89.3859C62.0952 89.365 62.1014 89.3421 62.103 89.3184C62.124 88.9618 62.1588 88.599 62.2114 88.245C62.2364 88.0683 62.2701 87.8932 62.3125 87.7204C62.3326 87.6383 62.3577 87.5577 62.3878 87.4792C62.4105 87.413 62.4439 87.3518 62.4865 87.2982C62.4937 87.293 62.501 87.2842 62.5043 87.2842C62.5043 87.2842 62.5043 87.2842 62.5156 87.2781C62.5354 87.2696 62.5549 87.2599 62.5738 87.2493C62.6357 87.2034 62.6809 87.1357 62.7017 87.0578C62.7271 86.9512 62.7345 86.8404 62.7235 86.7309C62.7063 86.5403 62.6738 86.3516 62.6264 86.167C62.5359 85.8083 62.4265 85.4555 62.2988 85.1102C62.2895 85.0859 62.274 85.0651 62.2543 85.0498L59.8976 83.27C59.8761 83.2539 59.85 83.2467 59.8241 83.2495C59.7981 83.2524 59.7739 83.2653 59.756 83.2858L57.6735 85.6889L55.1243 86.0639L54.2756 84.528C54.6607 84.3933 55.0439 84.2529 55.4252 84.1066C55.8354 83.9484 56.244 83.7832 56.6453 83.5952C56.8489 83.5033 57.0463 83.3958 57.2358 83.2735C57.2857 83.2401 57.3328 83.202 57.3766 83.1599C57.4187 83.1122 57.4544 83.0584 57.4826 82.9999C57.5338 82.8916 57.5768 82.7791 57.6112 82.6633C57.7399 82.2101 57.8335 81.746 57.8912 81.276C57.8928 81.2659 57.8928 81.2556 57.8912 81.2454C57.886 81.229 57.875 81.2153 57.8607 81.2075C57.8463 81.1996 57.8296 81.1982 57.8143 81.2035L55.028 82.1869L52.2425 81.1991C52.2358 81.1977 52.229 81.1977 52.2223 81.1991L49.3648 81.1939L48.9716 81.1265C45.1485 85.4904 42.6065 90.9795 41.666 96.9019C41.6747 96.9046 41.6837 96.9064 41.6927 96.9072L42.0972 96.8923H42.1183L42.9775 96.7114C43.0021 96.7061 43.025 96.694 43.0442 96.6764C43.0633 96.6588 43.0779 96.6363 43.0867 96.6108L43.6279 95.0513C43.8088 95.0474 43.9894 95.0691 44.1651 95.116C44.2446 95.1324 44.3174 95.1748 44.3738 95.2375C44.381 95.2461 44.3857 95.2567 44.3876 95.2681C44.3876 95.2742 44.3925 95.276 44.3925 95.2847V95.3118C44.3931 95.3333 44.3909 95.3548 44.386 95.3756C44.3836 95.4007 44.3785 95.4253 44.3706 95.449C44.3031 95.6718 44.2113 95.8852 44.0972 96.0846C43.9839 96.2935 43.8544 96.5016 43.729 96.6965C43.7098 96.7258 43.699 96.7606 43.698 96.7965C43.697 96.8325 43.7058 96.8679 43.7234 96.8984L44.7808 98.7185L44.8334 99.4764C44.837 99.5243 44.8568 99.5692 44.8892 99.6023L46.3754 101.088C46.4082 101.122 46.4517 101.14 46.4967 101.14H48.0444L49.9861 102.527L51.5233 103.971C51.5581 104.003 51.6026 104.021 51.6487 104.021H52.7004C52.6841 104.166 52.6609 104.31 52.6308 104.453C52.5855 104.672 52.5297 104.89 52.469 105.109C52.3437 105.545 52.1963 105.973 52.0273 106.391C51.8604 106.837 51.7344 107.299 51.6511 107.771C51.6052 108.012 51.5806 108.258 51.5775 108.504C51.5779 108.57 51.5814 108.636 51.588 108.702L51.6017 108.804C51.6087 108.841 51.6177 108.877 51.6284 108.913L51.6438 108.968L51.6705 109.027C51.687 109.062 51.7056 109.097 51.7263 109.13L51.821 109.272C52.3234 110.025 52.8363 110.773 53.3169 111.531L53.4035 111.672L53.4415 111.739L53.4512 111.756V111.763C53.4531 111.767 53.4555 111.77 53.4585 111.773C53.4682 111.799 53.4787 111.824 53.49 111.849C53.5013 111.873 53.5086 111.881 53.5183 111.898C53.5345 111.928 53.5523 111.957 53.5717 111.985C53.6065 112.038 53.6413 112.084 53.6769 112.133C53.8201 112.32 53.9698 112.494 54.1267 112.662C54.2843 112.834 54.4521 112.995 54.6291 113.143C54.7233 113.221 54.8231 113.291 54.9277 113.352C55.0341 113.412 55.1461 113.459 55.2618 113.494C55.3144 113.511 55.3605 113.526 55.3929 113.541C55.4163 113.551 55.4373 113.566 55.4544 113.586C55.4995 113.652 55.5307 113.729 55.5458 113.81C55.5953 114.025 55.6323 114.243 55.6566 114.463C55.6841 114.687 55.7092 114.927 55.7464 115.163C55.7836 115.399 55.8273 115.628 55.8694 115.857L56.0053 116.536C56.0505 116.75 56.0802 116.968 56.0943 117.187C56.0995 117.284 56.0927 117.381 56.0741 117.476C56.0649 117.517 56.0519 117.557 56.0352 117.595L56.0085 117.649C55.998 117.67 55.9794 117.699 55.9649 117.725C55.8418 117.933 55.7401 118.156 55.6615 118.388C55.5793 118.625 55.5287 118.873 55.511 119.125C55.4947 119.386 55.5263 119.647 55.604 119.895C55.6224 119.957 55.6454 120.018 55.6728 120.077L55.7432 120.235C55.7846 120.326 55.8171 120.422 55.8403 120.521C55.8867 120.721 55.8953 120.93 55.8653 121.133C55.8508 121.24 55.8297 121.345 55.8022 121.448C55.7885 121.504 55.7739 121.555 55.7594 121.629C55.754 121.65 55.7508 121.672 55.7497 121.694C55.7447 121.723 55.7447 121.753 55.7497 121.782C55.7525 121.807 55.7568 121.832 55.7626 121.857L55.7755 121.906C55.8459 122.15 55.9268 122.357 56.0069 122.577C56.125 122.894 56.2496 123.207 56.3702 123.52C56.3348 123.546 56.3069 123.582 56.2893 123.625C56.2645 123.688 56.2569 123.758 56.2674 123.827C56.2899 123.963 56.3274 124.096 56.3791 124.223C56.4252 124.343 56.477 124.461 56.5255 124.572C56.5741 124.683 56.6202 124.794 56.6663 124.907C56.8516 125.359 57.0069 125.828 57.2399 126.292C57.3008 126.413 57.372 126.527 57.4527 126.634C57.5449 126.761 57.6681 126.859 57.8086 126.916C57.888 126.946 57.9727 126.956 58.0562 126.946C58.095 126.941 58.1334 126.934 58.1711 126.923L58.252 126.9L58.5877 126.813C58.7086 126.783 58.8273 126.745 58.9429 126.696C59.0749 126.645 59.1955 126.564 59.2973 126.46C59.4027 126.342 59.4739 126.193 59.5019 126.032C59.5145 125.958 59.5197 125.883 59.5173 125.807C59.5175 125.737 59.5118 125.666 59.5003 125.596C59.4615 125.334 59.4081 125.097 59.3596 124.848L59.2075 124.118C59.1079 123.632 59.006 123.145 58.93 122.661C58.9114 122.541 58.8944 122.42 58.8847 122.304C58.88 122.253 58.8784 122.202 58.8798 122.152H58.8863C59.0812 122.041 59.2908 121.933 59.5003 121.827L60.7568 121.199C60.7746 121.19 60.7908 121.177 60.8045 121.162C60.8324 121.129 60.8474 121.085 60.8464 121.04C60.8453 120.995 60.8283 120.953 60.7988 120.921C60.5471 120.674 60.3418 120.377 60.1945 120.047C60.1298 119.899 60.1084 119.734 60.133 119.573C60.1483 119.5 60.1784 119.433 60.2212 119.374C60.2715 119.31 60.3297 119.253 60.3943 119.206C60.6793 118.979 60.9825 118.781 61.3004 118.614C61.6197 118.442 61.9479 118.291 62.2834 118.161C62.3047 118.153 62.3237 118.139 62.3388 118.121C62.3539 118.103 62.3646 118.081 62.37 118.057L62.8554 115.904L64.4985 115.41C64.523 115.403 64.5446 115.387 64.56 115.365C64.5755 115.343 64.584 115.317 64.5843 115.289C64.5857 114.717 64.6241 114.146 64.6992 113.579C64.735 113.299 64.789 113.021 64.861 112.748C64.9419 112.486 65.0341 112.212 65.1983 112.025C65.2202 112.005 65.2404 111.981 65.2631 111.964L65.3367 111.909C65.3968 111.867 65.4546 111.822 65.5098 111.773C65.6154 111.675 65.7141 111.569 65.8051 111.455C65.9805 111.231 66.1411 110.993 66.2857 110.744C66.5723 110.251 66.8285 109.738 67.0526 109.208C67.0574 109.198 67.0604 109.188 67.0613 109.177C67.0622 109.167 67.0611 109.156 67.058 109.146C67.0549 109.135 67.0498 109.126 67.0432 109.118C67.0366 109.11 67.0285 109.104 67.0195 109.099ZM73.499 80.0968L73.5055 78.7899L74.1754 78.1482L74.9035 77.4489C74.9249 77.4285 74.9409 77.4024 74.9499 77.3732C74.9589 77.344 74.9607 77.3127 74.9549 77.2825C74.9492 77.2524 74.9361 77.2244 74.9172 77.2014C74.8982 77.1784 74.874 77.1613 74.8469 77.1517C74.3614 76.9698 73.8679 76.802 73.3777 76.6272L71.9076 76.1027H71.9036C71.8812 76.0935 71.8565 76.0935 71.834 76.1027L70.7677 76.58L69.7225 77.0494C68.9555 76.7493 68.1901 76.4439 67.4264 76.1333C67.4118 76.1272 67.3957 76.1272 67.3811 76.1333L66.1295 76.7233L64.9484 77.2706L64.1547 76.1131C64.1402 76.0914 64.1194 76.0754 64.0956 76.0677L62.7704 75.6184L61.4436 75.1813C61.4047 75.1679 61.3626 75.171 61.3257 75.1898C61.2888 75.2086 61.2598 75.2418 61.2446 75.2827L60.5003 77.198L58.8976 77.2723C58.8498 77.2746 58.8045 77.2961 58.7706 77.3326L57.9923 78.1622L57.218 78.9953C57.1954 79.0199 57.1782 79.0498 57.1679 79.0827C57.1593 79.1106 57.1558 79.14 57.1578 79.1692C57.1597 79.1985 57.167 79.2271 57.1791 79.2533C57.1913 79.2795 57.2082 79.3029 57.2287 79.3221C57.2493 79.3413 57.2732 79.3559 57.299 79.3651L57.9001 79.5819C57.929 79.5919 57.9597 79.5949 57.9899 79.5906L60.1354 79.2864C60.8126 79.192 61.4881 79.0862 62.1645 78.9848L63.1515 80.88L63.6159 82.978V82.9824C63.6206 83.0073 63.6332 83.0297 63.6515 83.0456C63.6698 83.0616 63.6927 83.0701 63.7162 83.0698C64.2243 83.0593 64.7299 83.0454 65.2331 83.0279L66.7298 82.9763C67.1392 82.5392 67.5518 82.0908 67.9685 81.6371C68.4879 81.4098 69.0024 81.1729 69.5194 80.9377L71.0452 80.2384C71.809 80.2462 72.5719 80.2585 73.3356 80.2602C73.3774 80.2597 73.4175 80.2421 73.4478 80.2109C73.4781 80.1798 73.4964 80.1375 73.499 80.0924V80.0968Z" fill="#9EE854"/>
</g>
<g style="mix-blend-mode:multiply">
<path d="M88.882 83.3908C88.882 84.0027 79.9826 74.7364 69 74.7364C58.0174 74.7364 49.118 84.0027 49.118 83.3908C49.118 82.7788 58.0174 72.5317 69 72.5317C79.9826 72.5317 88.882 82.7815 88.882 83.3908Z" fill="#A7A9AC"/>
</g>
<path d="M63.9265 32.9691L76.5507 41.835L60.5383 56.2344L61.3845 59.0834L56.0304 56.6033L65.1247 43.4129L53.134 37.9327L63.9265 32.9691Z" fill="#2F2F2F"/>
<path d="M55.7054 58.0553L60.2822 60.1372L60.8297 58.7321L56.2529 56.6502L55.7054 58.0553Z" fill="#F7941D"/>
<path d="M65.2226 61.5441C65.2641 61.4359 65.2645 61.3143 65.2236 61.2058C65.1827 61.0973 65.1038 61.0106 65.0042 60.9645L58.4639 57.9923C58.3639 57.947 58.2514 57.9464 58.151 57.9906C58.0506 58.0349 57.9705 58.1204 57.9284 58.2284C57.8866 58.3363 57.886 58.4578 57.9268 58.5662C57.9676 58.6746 58.0464 58.7612 58.146 58.8071L64.6862 61.7793C64.7862 61.8244 64.8987 61.8251 64.9992 61.781C65.0997 61.737 65.18 61.6518 65.2226 61.5441Z" fill="black"/>
<path d="M64.2687 66.5768L41.8165 64.095C41.2458 64.0317 40.7171 63.7419 40.3327 63.2817C39.9483 62.8215 39.7355 62.2236 39.7355 61.6036C39.7355 60.9837 39.9483 60.3858 40.3327 59.9256C40.7171 59.4654 41.2458 59.1756 41.8165 59.1122L64.2712 56.6305C64.8951 56.5623 65.5252 56.6319 66.1235 56.835C66.7217 57.0381 67.2755 57.3705 67.7512 57.8119C68.2268 58.2534 68.6145 58.7947 68.8906 59.4031C69.1668 60.0114 69.3256 60.674 69.3574 61.3507C69.3892 62.0274 69.2935 62.704 69.0759 63.3394C68.8582 63.9749 68.5234 64.5559 68.0916 65.0472C67.6598 65.5385 67.14 65.9299 66.564 66.1975C65.9879 66.4651 65.3675 66.6034 64.7404 66.6039C64.5829 66.6037 64.4254 66.5946 64.2687 66.5768ZM64.3173 57.1357L41.8618 59.621C41.4073 59.6705 40.9861 59.9007 40.6797 60.2667C40.3734 60.6328 40.2038 61.1088 40.2038 61.6023C40.2038 62.0959 40.3734 62.5718 40.6797 62.9379C40.9861 63.304 41.4073 63.5341 41.8618 63.5837L64.3173 66.0654C64.8771 66.1266 65.4426 66.0641 65.9795 65.8818C66.5163 65.6995 67.0132 65.4012 67.44 65.0051C67.8669 64.6089 68.2148 64.1231 68.4625 63.5772C68.7103 63.0313 68.8528 62.4367 68.8813 61.8295C68.9098 61.2222 68.8239 60.6151 68.6286 60.0449C68.4333 59.4747 68.1327 58.9533 67.7452 58.5124C67.3577 58.0716 66.8913 57.7204 66.3744 57.4803C65.8574 57.2402 65.3007 57.1161 64.738 57.1156C64.5975 57.1159 64.457 57.1241 64.3173 57.1401V57.1357Z" fill="black"/>
<path d="M84.1597 61.5826C84.1597 54.2745 89.6611 48.3292 96.4262 48.3292C103.191 48.3292 108.692 54.2736 108.692 61.5826C108.692 68.8916 103.191 74.836 96.4262 74.836C89.6619 74.836 84.1597 68.8872 84.1597 61.5826ZM85.7316 61.5826C85.7316 67.9536 90.5292 73.1375 96.4262 73.1375C102.323 73.1375 107.12 67.9536 107.12 61.5826C107.12 55.2116 102.322 50.0269 96.4262 50.0269C90.53 50.0269 85.7316 55.2107 85.7316 61.5826Z" fill="#B0CDC6"/>
<path d="M93.1901 61.5826C93.1901 60.8911 93.3799 60.215 93.7354 59.64C94.091 59.0649 94.5965 58.6168 95.1878 58.3521C95.7791 58.0874 96.4298 58.0182 97.0575 58.1531C97.6853 58.288 98.2619 58.6211 98.7145 59.1101C99.1671 59.5991 99.4753 60.2222 99.6001 60.9005C99.725 61.5788 99.6609 62.2818 99.416 62.9208C99.1711 63.5597 98.7563 64.1058 98.2241 64.49C97.6919 64.8743 97.0662 65.0793 96.4262 65.0793C95.5679 65.0793 94.7448 64.7109 94.1379 64.0552C93.531 63.3994 93.1901 62.51 93.1901 61.5826Z" fill="black"/>
<path d="M82.6362 61.5826C82.6362 69.7998 88.8221 76.482 96.4262 76.482C104.03 76.482 110.215 69.7981 110.215 61.5826C110.215 53.3671 104.031 46.6831 96.4262 46.6831C88.8213 46.6831 82.6362 53.3662 82.6362 61.5826ZM84.8659 61.5826C84.8659 54.6949 90.0518 49.0915 96.4262 49.0915C102.801 49.0915 107.986 54.6949 107.986 61.5826C107.986 68.4702 102.801 74.0737 96.4262 74.0737C90.0518 74.0737 84.8659 68.4702 84.8659 61.5826Z" fill="black"/>
<path d="M29.3081 61.5826C29.3081 54.2745 34.8095 48.3292 41.5738 48.3292C48.3382 48.3292 53.8404 54.2736 53.8404 61.5826C53.8404 68.8916 48.3374 74.836 41.5738 74.836C34.8103 74.836 29.3081 68.8872 29.3081 61.5826ZM30.8801 61.5826C30.8801 67.9536 35.6776 73.1375 41.5738 73.1375C47.4701 73.1375 52.2684 67.9536 52.2684 61.5826C52.2684 55.2116 47.4709 50.0269 41.5738 50.0269C35.6768 50.0269 30.8801 55.2107 30.8801 61.5826Z" fill="#B0CDC6"/>
<path d="M38.3376 61.5826C38.3376 60.8911 38.5274 60.215 38.883 59.64C39.2386 59.0649 39.744 58.6168 40.3354 58.3521C40.9267 58.0874 41.5774 58.0182 42.2051 58.1531C42.8329 58.288 43.4095 58.6211 43.8621 59.1101C44.3146 59.5991 44.6229 60.2222 44.7477 60.9005C44.8726 61.5788 44.8085 62.2818 44.5636 62.9208C44.3186 63.5597 43.9039 64.1058 43.3717 64.49C42.8395 64.8743 42.2138 65.0793 41.5738 65.0793C40.7155 65.0793 39.8924 64.7109 39.2855 64.0552C38.6786 63.3994 38.3376 62.51 38.3376 61.5826Z" fill="black"/>
<path d="M27.7847 61.5826C27.7847 69.7998 33.9705 76.482 41.5738 76.482C49.1771 76.482 55.3638 69.7981 55.3638 61.5826C55.3638 53.3671 49.1787 46.6831 41.5738 46.6831C33.9689 46.6831 27.7847 53.3662 27.7847 61.5826ZM30.0136 61.5826C30.0136 54.6949 35.1995 49.0915 41.5738 49.0915C47.9482 49.0915 53.1341 54.6949 53.1341 61.5826C53.1341 68.4702 47.9482 74.0737 41.5738 74.0737C35.1995 74.0737 30.0136 68.4702 30.0136 61.5826Z" fill="black"/>
<path d="M39.5601 62.5426C39.636 62.629 39.728 62.6971 39.8301 62.7423C39.9322 62.7875 40.042 62.8088 40.1523 62.8048H40.162L62.1361 62.5426C62.2493 62.9222 62.4312 63.2738 62.6713 63.5768C62.9114 63.8797 63.2049 64.1281 63.5346 64.3074C63.8644 64.4867 64.2238 64.5933 64.5921 64.6211C64.9603 64.6489 65.33 64.5972 65.6796 64.4692C66.0292 64.3411 66.3518 64.1392 66.6285 63.8752C66.9052 63.6112 67.1306 63.2904 67.2915 62.9314C67.4524 62.5724 67.5456 62.1824 67.5657 61.7842C67.5858 61.3859 67.5324 60.9873 67.4086 60.6115L88.1012 40.6803L95.889 62.2348C95.9287 62.3447 95.9881 62.445 96.0637 62.5301C96.1393 62.6152 96.2297 62.6833 96.3297 62.7306C96.4297 62.778 96.5373 62.8035 96.6465 62.8059C96.7556 62.8083 96.8641 62.7874 96.9658 62.7445C97.0675 62.7016 97.1603 62.6374 97.239 62.5557C97.3178 62.474 97.3808 62.3763 97.4246 62.2683C97.4684 62.1602 97.4921 62.0439 97.4943 61.926C97.4965 61.8081 97.4772 61.6908 97.4374 61.581L85.5495 28.6752C85.5085 28.5616 85.4465 28.4582 85.3672 28.3713C85.288 28.2845 85.1932 28.216 85.0887 28.17C84.9841 28.124 84.872 28.1015 84.7591 28.1039C84.6463 28.1063 84.535 28.1336 84.4322 28.1839C84.0221 28.3841 83.8546 28.9226 84.018 29.3754L86.1514 35.2683L61.3789 49.0671L57.4955 38.3148C57.4541 38.2016 57.3919 38.0986 57.3126 38.0121C57.2333 37.9257 57.1386 37.8575 57.0343 37.8117C56.9299 37.766 56.818 37.7436 56.7054 37.7459C56.5928 37.7482 56.4817 37.7752 56.379 37.8252C55.9689 38.0254 55.8014 38.5639 55.9648 39.0167L59.8951 49.8941L39.772 61.1072C39.6563 61.1726 39.5563 61.2664 39.48 61.3811C39.4038 61.4957 39.3533 61.628 39.3327 61.7674C39.3122 61.9068 39.322 62.0495 39.3615 62.1841C39.4009 62.3186 39.4689 62.4414 39.5601 62.5426ZM87.4548 38.89L66.4175 59.1542C65.9524 58.784 65.3917 58.5804 64.814 58.572L61.9873 50.7464L86.7558 36.9476L87.4548 38.89ZM48.8332 58.0773L60.5051 51.5786L63.2194 59.0913C62.6816 59.4847 62.2878 60.0688 62.1062 60.7426L49.4853 60.8947C48.0258 60.9105 47.5396 58.7976 48.8332 58.0773Z" fill="#00A79D"/>
<path d="M59.6815 61.5826C59.6815 60.4934 59.9804 59.4286 60.5405 58.5229C61.1006 57.6173 61.8966 56.9114 62.8279 56.4945C63.7593 56.0777 64.7841 55.9686 65.7728 56.1811C66.7615 56.3936 67.6697 56.9182 68.3825 57.6884C69.0953 58.4586 69.5807 59.4399 69.7774 60.5082C69.9741 61.5765 69.8731 62.6839 69.4873 63.6902C69.1016 64.6965 68.4483 65.5566 67.6101 66.1618C66.7719 66.7669 65.7865 67.0899 64.7784 67.0899C63.4266 67.0899 62.1302 66.5097 61.1744 65.4769C60.2185 64.4441 59.6815 63.0433 59.6815 61.5826ZM60.7535 61.5826C60.7535 62.4425 60.9895 63.283 61.4316 63.9979C61.8737 64.7129 62.5021 65.2701 63.2373 65.5991C63.9725 65.9281 64.7815 66.0141 65.562 65.8463C66.3425 65.6785 67.0594 65.2644 67.622 64.6563C68.1846 64.0482 68.5678 63.2735 68.7229 62.4302C68.8781 61.5869 68.7983 60.7127 68.4936 59.9184C68.189 59.124 67.6732 58.4452 67.0115 57.9676C66.3497 57.49 65.5718 57.2352 64.776 57.2354C63.7094 57.2367 62.6869 57.6952 61.9328 58.5102C61.1787 59.3252 60.7546 60.4302 60.7535 61.5826Z" fill="#939598"/>
<path d="M64.7761 63.3178C65.663 63.3178 66.382 62.5409 66.382 61.5825C66.382 60.6242 65.663 59.8473 64.7761 59.8473C63.8892 59.8473 63.1702 60.6242 63.1702 61.5825C63.1702 62.5409 63.8892 63.3178 64.7761 63.3178Z" fill="black"/>
<path d="M71.7378 64.505C71.7795 64.3969 71.78 64.2754 71.739 64.1669C71.6981 64.0585 71.6191 63.972 71.5193 63.9263L64.9791 60.9541C64.8791 60.9092 64.7667 60.9089 64.6664 60.9531C64.5661 60.9972 64.486 61.0824 64.4435 61.1901C64.4016 61.2983 64.401 61.42 64.4419 61.5287C64.4829 61.6373 64.562 61.724 64.662 61.7697L71.2022 64.7419C71.3023 64.7872 71.4149 64.7876 71.5154 64.7432C71.6158 64.6988 71.6958 64.6131 71.7378 64.505Z" fill="black"/>
<path d="M68.8411 64.5795L73.7078 65.6465L73.9883 64.1524L69.1217 63.0854L68.8411 64.5795Z" fill="#F7941D"/>
<path d="M56.1162 40.5639C60.012 40.5639 63.1702 39.704 63.1702 38.6433C63.1702 37.5826 60.012 36.7228 56.1162 36.7228C52.2204 36.7228 49.0623 37.5826 49.0623 38.6433C49.0623 39.704 52.2204 40.5639 56.1162 40.5639Z" fill="#D79B96"/>
<path d="M79.6388 27.8735C79.5102 29.5038 82.0796 29.2853 84.2301 28.1829C86.1127 27.217 85.2867 31.4672 87.488 28.6935C88.1086 27.912 87.361 25.459 85.2802 25.5989C83.5383 25.716 79.7189 26.8472 79.6388 27.8735Z" fill="#EFB6B5"/>
<path d="M84.7891 30.3518C85.487 30.3518 86.0528 29.7404 86.0528 28.9863C86.0528 28.2322 85.487 27.6208 84.7891 27.6208C84.0912 27.6208 83.5254 28.2322 83.5254 28.9863C83.5254 29.7404 84.0912 30.3518 84.7891 30.3518Z" fill="black"/>
<path d="M85.5399 29.3218C85.7115 28.874 85.5147 28.3606 85.1003 28.1751C84.6858 27.9896 84.2107 28.2022 84.039 28.6501C83.8673 29.0979 84.0641 29.6113 84.4786 29.7968C84.893 29.9823 85.3682 29.7696 85.5399 29.3218Z" fill="#58595B"/>
<path d="M76.5507 43.8168L72.6422 61.5827L75.2667 64.9141L69.2928 63.1168L68.4077 46.3466L66.5356 45.3912L71.7499 39.8646L76.5507 43.8168Z" fill="#EFB6B5"/>
<path d="M72.6423 61.5827L75.2668 64.9142L69.2929 63.1169L68.9701 57.0002L73.6414 57.0405L72.6423 61.5827Z" fill="#E6E7E8"/>
<path d="M72.6423 61.5827L75.2668 64.9142L69.2929 63.1169L69.1982 61.3143L72.6423 61.5827Z" fill="black"/>
<path d="M52.0354 34.1999L64.2931 32.2933V33.7252L72.2272 39.8646L66.5357 45.8894L52.3339 38.1451C52.3339 38.1451 52.0427 36.5471 52.0354 34.1999Z" fill="#2B3990"/>
<g style="mix-blend-mode:multiply">
<path d="M52.0354 34.1999L64.2931 32.2933V33.7252L65.0738 34.3293L54.2934 39.2124L52.3339 38.1451C52.3339 38.1451 52.0427 36.5471 52.0354 34.1999Z" fill="#D1D3D4"/>
</g>
<path d="M68.2823 16.9954L70.4384 10.0491L69.0533 8.88562L65.9442 14.5669L68.2823 16.9954Z" fill="#EFB6B5"/>
<path d="M71.3316 12.4373C73.6739 12.4373 75.5726 10.3857 75.5726 7.85489C75.5726 5.32408 73.6739 3.27246 71.3316 3.27246C68.9894 3.27246 67.0907 5.32408 67.0907 7.85489C67.0907 10.3857 68.9894 12.4373 71.3316 12.4373Z" fill="#EFB6B5"/>
<path d="M68.0883 3.43418C68.2228 3.35663 68.3256 3.22752 68.3765 3.07224C68.4274 2.91695 68.4227 2.74672 68.3633 2.59497C68.1498 2.07047 68.0494 1.62814 68.1934 1.51449C68.3375 1.40085 68.6789 1.62551 69.0623 1.98567C69.0836 2.00591 69.1106 2.01771 69.1389 2.01912C69.1672 2.02054 69.1951 2.01149 69.218 1.99346C69.2409 1.97544 69.2575 1.94951 69.2649 1.91997C69.2723 1.89042 69.2702 1.85902 69.2589 1.83094C69.0704 1.3449 68.9887 0.945404 69.1246 0.83788C69.2864 0.709376 70.0696 1.36851 70.6011 1.8222C70.6243 1.84121 70.6528 1.85109 70.682 1.8502C70.7111 1.84931 70.739 1.83771 70.7612 1.81732C70.7834 1.79692 70.7984 1.76896 70.8039 1.73806C70.8094 1.70715 70.8049 1.67516 70.7912 1.64737C70.428 0.911311 70.1869 0.177877 70.3778 0.026645C70.5688 -0.124587 71.1958 0.389428 71.7532 1.02495C71.7687 1.04241 71.789 1.05405 71.8111 1.05816C71.8332 1.06227 71.856 1.05865 71.876 1.04781C71.8961 1.03698 71.9124 1.0195 71.9226 0.997933C71.9328 0.976364 71.9364 0.951834 71.9328 0.92792C71.9037 0.746966 71.9158 0.61584 71.9846 0.560767C72.2677 0.337852 74.6293 5.14495 70.7557 7.11709C70.6877 7.15205 70.6173 7.17566 70.5485 7.2045C70.5188 7.02979 70.4436 6.86787 70.3317 6.73774C70.2198 6.6076 70.0759 6.51467 69.9168 6.46984C69.7577 6.425 69.5901 6.43014 69.4336 6.48464C69.2772 6.53913 69.1383 6.64074 69.0334 6.77751C68.9285 6.91428 68.8619 7.08055 68.8414 7.2568C68.8209 7.43305 68.8474 7.61196 68.9177 7.77253C68.988 7.9331 69.0992 8.06866 69.2384 8.16331C69.3775 8.25795 69.5387 8.30774 69.7031 8.30684C69.7298 8.30684 69.7541 8.30072 69.78 8.2981C69.6991 9.02716 69.3026 9.66793 68.6772 9.95379C67.7056 10.4049 66.5487 9.82004 66.094 8.65651C65.9717 8.34351 65.9103 8.00668 65.9136 7.66694C65.6783 7.54703 65.4897 7.34114 65.3812 7.08562C64.9913 6.09168 66.162 4.57149 68.0883 3.43418Z" fill="#231F20"/>
<path d="M64.2931 12.231L69.2824 16.6552L65.8918 33.588L51.351 35.9482C51.351 35.9482 50.5541 18.9027 64.2931 12.231Z" fill="#E6E7E8"/>
<path d="M69.2824 16.6552L63.9969 12.3778L64.1434 9.71594L69.2225 15.6271L69.2824 16.6552Z" fill="#F1F2F2"/>
<g style="mix-blend-mode:multiply">
<path d="M66.2825 31.6386C54.3671 28.5571 63.4306 16.9952 63.4306 16.9952L67.5316 25.3987L66.2825 31.6386Z" fill="#D1D3D4"/>
</g>
<path d="M63.9103 14.038C63.9103 14.038 57.0627 19.0391 56.3556 20.6459C55.6485 22.2526 54.2084 28.3911 52.0353 29.864C49.8623 31.337 44.7322 31.601 44.4345 29.8334C44.1367 28.0659 45.0663 20.2105 49.6762 18.5636C54.6946 16.7706 60.3125 6.10306 63.9103 14.038Z" fill="#262262"/>
<path d="M63.9104 14.038C63.9104 14.038 67.6142 15.5468 68.4078 18.0592C68.9442 19.7568 59.0789 29.6455 52.2223 29.4847L51.5452 28.5091C51.5452 28.5091 64.5342 23.2194 67.5082 18.4053C68.8026 16.3161 61.2018 14.8151 61.2018 14.8151L63.9104 14.038Z" fill="#262262"/>
<path d="M81.6444 27.002L82.0886 28.6489C82.0886 28.6489 69.6294 31.4611 65.9443 28.4199C60.9218 24.2719 62.4291 20.0112 63.0553 18.039C63.7955 15.7067 67.7145 16.4393 67.3811 18.6562C66.3593 25.4547 68.191 27.6209 81.6444 27.002Z" fill="#EFB6B5"/>
<path d="M62.8311 17.7873C63.9209 15.6211 67.1999 15.8938 67.5502 18.1081C68.157 21.9003 68.6165 23.5988 70.6189 24.9136L65.1449 29.864C60.3992 25.7781 61.7737 19.8914 62.8311 17.7873Z" fill="#F1F2F2"/>
</svg>
