<svg width="128" height="214" viewBox="0 0 128 214" fill="none" xmlns="http://www.w3.org/2000/svg">
<path d="M127.088 149.982C127.088 150.176 127.088 150.369 127.078 150.552C126.779 185.128 98.6432 213.06 64 213.06C29.1638 213.06 0.911987 184.818 0.911987 149.982C0.911987 148.696 0.950893 147.429 1.02798 146.162C1.93684 130.876 8.29886 117.069 18.1708 106.628C29.6762 94.474 45.949 86.894 64 86.894C82.3798 86.894 98.9229 94.7544 110.448 107.305C120.774 118.53 127.088 133.516 127.088 149.982Z" fill="#2E90CB"/>
<path d="M127.088 149.982C127.088 150.176 127.088 150.369 127.078 150.552L126.73 150.408C126.73 150.408 126.025 137.761 120.059 136.34C120.059 136.34 116.82 131.177 114.597 134.619C114.597 134.619 113.378 138.37 120.456 138.969C120.456 138.969 124.101 144.839 117.12 147.168L115.196 148.686L106.803 132.897C106.803 132.897 104.067 134.415 108.823 140.797L109.229 144.538C109.229 144.538 113.783 154.285 118.231 150.978L105.42 180.525L104.608 184.576L102.723 185.378L103.39 188.482L91.2562 194.554L85.8515 178.176C85.8515 178.176 93.1414 170.402 87.2052 164.601L87.3403 160.559L84.9132 161.904C84.9132 161.904 85.1841 154.894 80.3205 157.727L78.4352 155.03C78.4352 155.03 66.021 166.361 60.2198 148.416L61.4377 142.344C61.4377 142.344 55.0948 138.428 67.374 130.471C67.374 130.471 71.8214 119.545 87.6104 124.67C87.6104 124.67 85.1834 130.336 90.3084 129.398L95.5677 130.2C95.5677 130.2 91.9228 128.315 96.9215 125.888C96.9215 125.888 95.9737 132.366 105.952 130.335L105.759 125.482C105.759 125.482 100.422 126.526 100.219 123.306C100.219 123.306 104.068 121.634 108.321 122.446L104.811 116.239L104.338 118.734C104.338 118.734 100.219 113.203 100.828 118.531C100.828 118.531 102.52 122.176 97.3179 121.635L97.1241 123.926L95.9062 121.77L94.62 123.056L92.3287 120.156L91.0528 121.364C91.0528 121.364 81.0649 110.709 76.0082 122.514C76.0082 122.514 69.3951 125.753 68.2439 120.291C68.2439 120.291 67.9826 113.88 75.8048 116.984C75.8048 116.984 77.8927 113.407 73.1069 112.391L85.2502 106.658L79.0431 102.751C79.0431 102.751 86.6619 94.3206 99.7531 102.345C99.7531 102.345 100.149 103.428 99.212 105.382C99.212 105.382 103.998 102.549 108.455 107.132C108.455 107.132 109.325 107.325 110.446 107.306C120.774 118.53 127.088 133.516 127.088 149.982Z" fill="#E8EEF3"/>
<path d="M71.0821 91.2136L62.583 91.6181L48.2153 92.0902C48.2153 92.0902 43.831 92.7649 40.9297 95.733H44.4374L44.64 96.9472L45.9894 97.4868C45.9894 97.4868 40.6603 98.229 43.1563 102.748C43.1563 102.748 45.7199 105.514 50.1717 99.9153L53.1398 100.186L57.7267 96.8804C57.7267 96.8804 62.4487 98.8369 65.2142 96.8129L63.3253 94.587L71.0821 91.2136Z" fill="#E8EEF3"/>
<path d="M58.9403 101.382C58.9403 101.382 60.4401 98.7158 63.6674 99.7348C64.2914 99.9323 64.4023 100.748 63.8546 101.105C63.0596 101.624 61.5854 102.044 58.9403 101.382Z" fill="#E8EEF3"/>
<path d="M35.1623 101.737H37.085L36.9874 101.335C36.4845 99.2599 33.6361 98.9192 32.7088 100.842C32.5848 101.099 32.4791 101.395 32.3968 101.738C32.3968 101.738 28.8216 103.323 31.9586 104.739L32.1949 104.031C32.1942 104.03 35.7019 104.536 35.1623 101.737Z" fill="#E8EEF3"/>
<path d="M41.4818 172.259C41.4818 172.259 38.7552 174.637 39.4607 181.164C39.4607 181.164 38.5034 185.621 34.404 185.718L31.9769 192.65H29.6952L30.9132 194.555C30.9132 194.555 24.3867 198.519 32.982 202.821C32.982 202.821 25.9042 202.164 21.8048 192.805L17.6084 181.319L12.3968 175.043C12.3968 175.043 11.7875 169.784 8.09402 166.544C8.09402 166.544 5.46434 163.963 8.84798 163.006C8.84798 163.006 6.47892 161.69 8.75107 158.403L8.79953 155.464C8.79953 155.464 4.10032 154.361 4.14877 149.982C4.14877 149.982 4.6032 148.125 2.67903 148.28L2.2246 145.4L1.02576 146.163C1.93462 130.877 8.29664 117.07 18.1686 106.628L17.8595 107.807C17.8595 107.807 23.7957 102.21 26.2228 103.824C26.2228 103.824 23.9315 107.401 16.5058 110.708C16.5058 110.708 16.3604 113.744 19.3388 112.129L19.0679 114.624L20.4892 111.521L24.0666 108.282C24.0666 108.282 26.4254 108.078 27.8371 104.742C27.8371 104.742 29.4618 100.788 29.1234 106.589L33.1743 105.516C33.1743 105.516 36.9933 106.018 34.992 109.364C34.5861 110.031 29.326 113.135 29.326 113.135V113.879C29.326 113.879 31.5981 111.25 34.5758 113.048C34.5758 113.048 32.8065 115.774 29.1615 114.363C29.1615 114.363 24.8881 111.801 24.0762 115.321L26.1259 114.363L26.1545 115.948L27.9722 116.432C27.9722 116.432 27.2183 119.449 23.8244 118.84L23.9499 117.323C23.9499 117.323 21.9582 116.636 20.4598 120.252C20.4598 120.252 19.7829 123.646 16.8244 123.771C16.8244 123.771 13.7109 124.177 15.0742 127.841C15.0742 127.841 11.7867 128.625 11.6803 132.221C11.6803 132.221 7.23288 131.989 7.00089 134.977C7.00089 134.977 6.04358 135.557 5.6376 134.523C4.28385 137.433 3.28836 140.691 2.88165 144.51C2.95874 144.51 4.36094 144.481 4.63183 142.335C4.63183 142.335 5.08627 140.343 6.44956 141.001L5.88868 145.854L7.32905 147.44C7.32905 147.44 6.66172 150.679 8.17992 152.129C8.17992 152.129 10.5394 152.7 13.1302 149.296C13.1302 149.296 18.7669 149.093 21.3489 155.165C21.3489 155.165 29.3935 154.508 27.7204 162.194C27.7204 162.194 25.7963 160.976 25.7478 164.215C25.7478 164.215 27.5171 161.237 28.7357 163.664C28.7357 163.664 32.0232 161.74 32.9805 164.873L37.6893 165.23C37.6893 165.23 37.0807 167.811 40.5223 168.159C40.5245 168.159 43.464 168.622 41.4818 172.259Z" fill="#E8EEF3"/>
<path d="M115.199 171.756L114.238 175.044L111.455 176.865L111.86 179.446L109.735 183.139C109.735 183.139 114.288 185.922 115.199 181.166L114.997 176.461L117.223 174.538L115.199 171.756Z" fill="#E8EEF3"/>
<path d="M54.2052 79.8448L54.0826 84.5984L51.0125 84.5573L51.0771 79.9909L54.2052 79.8448Z" fill="#F5BF9A"/>
<path d="M50.2233 87.3051C50.2306 87.4182 50.3268 87.5041 50.4399 87.4997L57.627 87.2229C58.1674 87.2024 58.588 86.7472 58.5675 86.2076C58.5638 86.1122 58.4581 85.9118 58.3817 85.8552L54.4541 83.0472C54.3168 82.9444 54.1465 82.9987 54.0129 83.1059C53.1723 83.7842 51.9558 83.8312 50.7284 83.8121C50.6454 83.8107 50.5705 83.8584 50.5353 83.9333C49.9465 85.1813 50.1557 86.2986 50.2233 87.3051Z" fill="#38424C"/>
<path d="M72.1952 79.2201L72.7253 83.5588L69.3086 84.0478L68.7404 79.8889L72.1952 79.2201Z" fill="#F5BF9A"/>
<path d="M69.172 86.701C69.2447 86.9998 69.5391 87.1884 69.8408 87.1297L76.5567 85.8281C77.0875 85.7253 77.434 85.2114 77.3312 84.6806C77.3129 84.5874 77.1785 84.4046 77.0941 84.3605L72.7847 82.1838C72.6335 82.1038 72.4734 82.1824 72.3582 82.3094C71.6248 83.1147 70.4164 83.343 69.1896 83.5119C69.128 83.5207 69.0751 83.5633 69.0575 83.6235C68.6926 84.8128 68.9532 85.7994 69.172 86.701Z" fill="#38424C"/>
<path d="M73.0138 80.7727L67.9541 80.6766L59.2663 50.1894C58.0088 56.6292 56.2116 73.3007 54.7074 81.2419L50.6938 81.2374C49.898 69.3503 48.9437 55.4751 50.1836 43.7201L52.7773 42.4163C56.8121 40.0414 61.2984 38.5628 66.43 38.3676L73.0138 80.7727Z" fill="#38424C"/>
<path d="M61.0018 11.8455C60.8968 11.844 60.8271 11.9541 60.8748 12.0481L61.7264 13.7557C61.7726 13.8438 61.8094 13.9121 61.7719 13.9833C61.6662 14.1705 61.5458 14.3247 61.4078 14.4517C60.8153 15.0037 59.9637 15.0324 59.2134 14.8987C58.4426 14.7644 57.7848 14.459 57.6306 14.3672C57.6027 14.3518 57.5866 14.3247 57.5807 14.2946L57.1792 11.4454C57.1718 11.4013 57.1439 11.3624 57.1028 11.3426C55.1816 10.3339 55.0223 7.73945 55.0223 7.73945C55.0068 2.03154 59.2421 2.42504 61.3094 2.95582C62.0002 3.13348 62.556 3.64884 62.7887 4.32204C65.2583 11.4718 61.9378 11.8704 61.0018 11.8455Z" fill="#F5BF9A"/>
<path d="M57.6542 7.57202L58.1394 9.24732C58.196 9.44113 58.4309 9.51528 58.5887 9.389C58.6687 9.3244 58.7076 9.22162 58.69 9.12031L58.4698 7.84732C58.4213 7.56614 58.5292 7.2835 58.748 7.09997C59.165 6.75052 59.7582 6.06483 59.4822 5.14643C59.4227 4.94821 59.5446 4.74119 59.7464 4.69934C60.4498 4.55398 61.838 4.18765 62.3159 3.49536C62.404 3.36835 62.5031 3.24869 62.6118 3.1393C62.9179 2.83243 63.4267 2.15409 62.9421 1.38251C62.8621 1.25477 62.7065 1.19531 62.5611 1.23715L61.3388 1.59101C61.2536 1.61523 61.1641 1.57265 61.1303 1.49043L60.7104 0.476589C60.6648 0.367203 60.5261 0.334167 60.4365 0.411985L59.2531 1.43978C58.9954 1.66295 58.6357 1.72242 58.32 1.59394C57.6644 1.32819 56.3907 1.06757 54.907 2.07994C53.5878 2.98073 53.1231 4.67732 52.9616 5.86588C52.8558 6.64554 53.104 7.4318 53.6333 8.01397L54.8725 9.37873C54.9188 9.42938 54.9606 9.48297 54.9981 9.5395C55.2844 9.9675 56.354 11.9688 57.1322 11.3998C57.1535 11.3844 57.1616 11.3565 57.1542 11.3308L57.1366 10.2098C57.0654 9.9631 56.9237 9.74212 56.7284 9.57621C56.2028 9.12765 55.2278 8.12482 56.1161 7.46777C56.412 7.249 56.7901 7.16163 57.152 7.22844C57.3744 7.27175 57.5947 7.36499 57.6542 7.57202Z" fill="#38424C"/>
<path d="M72.3736 5.98264L74.322 6.73513L74.7809 5.96282C74.7809 5.96282 77.1602 3.85291 74.8425 2.47714C73.9395 1.94122 72.8471 2.82512 73.1966 3.81547C73.2017 3.82942 73.2069 3.84337 73.212 3.85732C73.2245 3.89182 73.1804 3.91752 73.1569 3.88888L72.6063 3.21274C72.5124 3.09749 72.345 3.07766 72.2268 3.16796C72.1189 3.25019 72.0873 3.39995 72.1526 3.51888L72.5968 4.32349C72.6959 4.50336 72.7216 4.71479 72.6673 4.913L72.3736 5.98264Z" fill="#F5BF9A"/>
<path d="M75.4034 5.35272L73.0299 12.7932L72.2312 15.2995C71.823 16.5938 70.6337 17.4799 69.2799 17.5166L67.6414 17.5577L66.6774 17.5805L66.5034 19.8849L66.1312 24.6862L65.7363 29.8501L66.894 37.6958C66.9109 37.8118 66.8889 37.9315 66.8243 38.0291C64.2753 41.8422 52.7494 44.0432 50.1858 43.7216L51.8288 30.0799C51.8288 30.0799 48.6617 18.7926 57.4288 13.2021C57.7224 13.647 58.0895 13.8724 58.5718 13.9869C59.2561 14.1704 59.9395 13.9913 60.6649 13.39C60.8851 13.2205 61.018 13.0501 61.2478 12.8027L68.0826 12.9863L72.2459 4.70081L75.4034 5.35272Z" fill="#EF576A"/>
<path d="M81.8535 4.70007L78.1945 5.12367C77.9178 5.15597 77.6696 5.30647 77.5169 5.53919C77.1359 6.12063 76.6272 7.34003 77.6146 8.8685C77.7629 9.09755 78.0059 9.25245 78.276 9.29063L81.6134 9.76341L81.8616 6.62351L81.8535 4.70007Z" fill="#201A56"/>
<path d="M83.4304 4.39905L79.2649 4.88064C78.9499 4.91735 78.6673 5.0884 78.4933 5.35343C78.0594 6.01562 77.4802 7.40387 78.6049 9.14304C78.7737 9.40439 79.0505 9.58058 79.3581 9.6239L83.1572 10.1628L83.4392 6.58824L83.4304 4.39905Z" fill="#7F92C9"/>
<path d="M90.9495 2.64819L83.9165 3.46162C83.3842 3.52328 82.9077 3.81253 82.6141 4.26036C81.8814 5.37845 80.9036 7.72181 82.802 10.6598C83.0869 11.1003 83.5545 11.3984 84.0743 11.4718L90.4892 12.3814L90.9656 6.3453L90.9495 2.64819Z" fill="#201A56"/>
<path d="M100.945 0.869385L90.8899 2.03299C90.1294 2.12109 89.4473 2.53441 89.0274 3.17531C87.9798 4.77352 86.5813 8.12485 89.2961 12.3241C89.7035 12.9547 90.3716 13.3798 91.1146 13.4848L100.286 14.7849L100.967 6.15517L100.945 0.869385Z" fill="#BF6F30"/>
<path d="M96.4415 7.64331C96.5501 4.1936 98.594 -0.133397 102.935 0.00315238L103.813 0.0310495L103.319 15.7049L102.441 15.677C98.0999 15.5485 96.3328 11.093 96.4415 7.64331Z" fill="#632E17"/>
<path d="M107.931 8.00515C107.809 11.8785 105.756 14.9567 103.345 14.8803C100.935 14.8047 99.08 11.6032 99.2018 7.72985C99.3237 3.85654 101.376 0.778311 103.787 0.854662C106.197 0.931012 108.053 4.13185 107.931 8.00515Z" fill="#ECEFF0"/>
<path d="M108.786 8.02871C108.921 3.6327 106.738 0.113987 103.813 0.020752C103.762 0.020752 103.715 0.0207519 103.669 0.0244226C103.664 0.0207519 103.656 0.0222202 103.65 0.026625C102.663 0.0361688 101.737 0.445083 100.945 1.14912L100.942 1.15426C99.8199 2.16149 98.9647 3.77219 98.5748 5.71398C98.4478 6.34534 98.3664 7.00826 98.3458 7.70055C98.2614 10.3919 99.0454 12.7492 100.335 14.1962C101.126 15.0882 102.108 15.6351 103.201 15.6997C103.204 15.7026 103.212 15.699 103.218 15.7026C103.254 15.7085 103.287 15.7114 103.322 15.7114C103.336 15.7107 103.34 15.7144 103.351 15.7136C104.122 15.7313 104.856 15.5103 105.52 15.0911C105.568 15.0639 105.613 15.0331 105.659 15.0001C107.431 13.7924 108.687 11.173 108.786 8.02871ZM106.35 11.6979C106.133 12.1494 105.883 12.5554 105.606 12.8968C105.079 13.5546 104.454 13.9884 103.796 14.1059C103.659 14.1294 103.514 14.1411 103.372 14.1367C102.755 14.1176 102.174 13.8166 101.673 13.3079C101.224 12.8557 100.838 12.2382 100.543 11.5085C100.113 10.4455 99.875 9.13505 99.9198 7.75194C99.9352 7.24025 99.9895 6.74324 100.079 6.26311L100.074 6.26238C100.252 5.30139 100.558 4.42337 100.956 3.6929L100.956 3.68776C101.02 3.57911 101.08 3.48074 101.14 3.37429L101.144 3.36915C101.845 2.25253 102.777 1.56611 103.764 1.59694C105.637 1.65861 107.152 4.28388 107.213 7.45388C107.218 7.62787 107.216 7.80333 107.211 7.98099C107.202 8.26877 107.183 8.55288 107.149 8.82819C107.028 9.89342 106.744 10.8779 106.35 11.6979Z" fill="#8A4323"/>
<path d="M70.2365 4.73022L66.5776 5.15382C66.3008 5.18612 66.0527 5.33589 65.9 5.56934C65.519 6.15078 65.0102 7.37018 65.9976 8.89865C66.1459 9.1277 66.3889 9.2826 66.6591 9.32078L69.9965 9.79356L70.2439 6.65366L70.2365 4.73022Z" fill="#8A4323"/>
<path d="M71.8127 4.4292L67.6472 4.91079C67.3323 4.9475 67.0496 5.11855 66.8756 5.38358C66.4417 6.04577 65.8625 7.43402 66.9865 9.17319C67.1553 9.43454 67.4321 9.61073 67.7397 9.65405L71.5388 10.1929L71.8208 6.61839L71.8127 4.4292Z" fill="#BF6F30"/>
<path d="M79.3325 2.67822L72.2995 3.49165C71.7673 3.55331 71.2908 3.84256 70.9972 4.29039C70.2645 5.40848 69.2866 7.75184 71.1851 10.6899C71.4699 11.1311 71.9376 11.4284 72.4573 11.5018L78.873 12.4114L79.3487 6.37533L79.3325 2.67822Z" fill="#8A4323"/>
<path d="M89.327 0.899414L79.2722 2.06229C78.5117 2.15038 77.8297 2.5637 77.4097 3.2046C76.3621 4.80282 74.9636 8.15415 77.6784 12.3534C78.0859 12.9833 78.7539 13.4091 79.4969 13.5141L88.6684 14.8142L89.349 6.18446L89.327 0.899414Z" fill="#BF6F30"/>
<path d="M84.8245 7.67334C84.9332 4.22363 86.977 -0.103368 91.318 0.0331817L92.196 0.0610788L91.7019 15.7349L90.8239 15.707C86.4829 15.5785 84.7159 11.123 84.8245 7.67334Z" fill="#632E17"/>
<path d="M96.3152 8.03635C96.4372 4.16337 94.5821 0.962108 92.1717 0.886146C89.7613 0.810185 87.7083 3.88829 87.5862 7.76127C87.4642 11.6343 89.3193 14.8355 91.7297 14.9115C94.1401 14.9874 96.1931 11.9093 96.3152 8.03635Z" fill="#ECEFF0"/>
<path d="M90.8643 15.6138C91.108 15.6806 91.3583 15.7188 91.6131 15.7334C91.6234 15.7349 91.6388 15.74 91.6586 15.7378C91.6747 15.74 91.6902 15.743 91.7012 15.7422C91.9515 15.7503 92.1982 15.7312 92.4404 15.6894L90.8643 15.6138Z" fill="#201A56"/>
<path d="M97.1683 8.06314C97.2035 6.9869 97.0993 5.96572 96.8776 5.03703L96.8761 5.03116C96.8651 4.96729 96.8475 4.90782 96.8328 4.84836C96.4907 3.51297 95.9114 2.37138 95.1545 1.53667C94.3411 0.635886 93.3214 0.0874862 92.193 0.0529818C92.1416 0.0529818 92.0903 0.0522477 92.0359 0.0544501C92.0308 0.053716 92.0249 0.0551844 92.0198 0.0515137C91.6211 0.0566526 91.2335 0.126395 90.8664 0.255603C90.3195 0.442074 89.7968 0.759955 89.3299 1.18208C88.7896 1.65927 88.3153 2.27742 87.9218 2.9976C87.2259 4.29335 86.7839 5.92607 86.7296 7.73498C86.6797 9.28548 86.9161 10.7222 87.38 11.9401C87.7155 12.8365 88.1685 13.6081 88.7147 14.2218C89.048 14.6006 89.4158 14.9178 89.8137 15.1615C90.1433 15.3641 90.4942 15.519 90.8598 15.6137L90.8628 15.6145L92.4382 15.6901C92.9888 15.5983 93.5115 15.381 93.9968 15.0573C94.3998 14.793 94.7765 14.4567 95.1208 14.053C95.8637 13.1786 96.4466 12.0099 96.8005 10.6532L96.8012 10.6502C97.0163 9.84269 97.1411 8.97788 97.1683 8.06314ZM94.7412 11.714L94.7405 11.7191C94.4953 12.2257 94.2112 12.6743 93.8962 13.045C93.6459 13.3372 93.3765 13.5794 93.0916 13.763C92.671 14.0375 92.2165 14.1829 91.7489 14.166C91.1652 14.1469 90.619 13.879 90.1382 13.4245C89.8431 13.1434 89.5729 12.7939 89.3365 12.385C89.3365 12.385 89.3314 12.3813 89.3328 12.3762C89.2961 12.3189 89.2697 12.2661 89.2418 12.2044C89.1236 11.9988 89.0238 11.7823 88.9276 11.5444L88.9232 11.5385C88.4945 10.4704 88.2581 9.16582 88.305 7.7827C88.3513 6.23735 88.7411 4.81312 89.338 3.72513L89.3416 3.71999C89.4055 3.60914 89.4657 3.50489 89.5259 3.40138L89.5296 3.39624C89.6735 3.16278 89.8321 2.95355 89.9987 2.75827C90.2402 2.4727 90.5038 2.2319 90.7828 2.04983L90.7864 2.04469C91.2166 1.76058 91.6718 1.61009 92.1453 1.6255C92.1967 1.6255 92.2474 1.62844 92.3032 1.63798C92.508 1.6578 92.7077 1.71213 92.8993 1.79729C93.5505 2.06598 94.1297 2.64742 94.5797 3.43515C95.2529 4.61344 95.6516 6.25056 95.5965 8.01396C95.595 8.03818 95.5943 8.06241 95.5928 8.08664C95.5737 8.58438 95.5187 9.07038 95.4328 9.53215C95.286 10.3316 95.0488 11.0716 94.7412 11.714Z" fill="#8A4323"/>
<path d="M105.655 15.0962L105.518 15.0903C105.565 15.0631 105.611 15.0323 105.657 14.9993C105.657 15.0345 105.655 15.0661 105.655 15.0962Z" fill="#045D95"/>
<path d="M72.2634 10.2825L72.8522 9.11817C72.8706 9.02053 72.9455 8.94344 73.0431 8.92288C73.2142 8.88691 73.3676 9.03594 73.3353 9.20846L72.9161 10.2333L73.579 8.85094C73.6231 8.75917 73.7156 8.70118 73.8169 8.70044C74.0033 8.69971 74.1318 8.88765 74.0643 9.06164L73.6142 10.2164L74.2155 9.19598C74.2764 9.0932 74.4042 9.05209 74.5136 9.10201C74.6281 9.15414 74.6809 9.28702 74.6332 9.40374L73.7464 11.5658L74.25 11.0174C74.3139 10.9476 74.413 10.9205 74.504 10.9491C74.6508 10.9946 74.7199 11.1613 74.6494 11.2971L74.1025 12.3462C74.0371 12.471 73.9468 12.5804 73.8374 12.6684L72.5263 13.7168L70.9501 13.0135C71.0617 12.4746 71.3091 11.9982 71.5322 11.6524C71.5322 11.6524 71.4787 10.8412 71.8222 10.2238L72.124 9.34134C72.1687 9.2092 72.3207 9.149 72.444 9.21287C72.5329 9.25912 72.5813 9.35823 72.563 9.4566L72.2634 10.2825Z" fill="#F5BF9A"/>
<path d="M73.6084 13.0597L69.6565 22.7584C69.1243 24.0666 67.7838 24.8653 66.3794 24.7141L66.1312 24.6862L62.7894 24.3235L63.4869 19.0679L66.466 19.954L66.5027 19.885L67.6413 17.5577L70.5375 11.6501L73.0299 12.7932L73.6084 13.0597Z" fill="#EF576A"/>
</svg>
