<svg width="138" height="100" viewBox="0 0 138 100" fill="none" xmlns="http://www.w3.org/2000/svg">
<g opacity="0.26">
<path opacity="0.038" d="M38.1908 83.99C38.1853 90.3406 50.0692 95.512 64.7335 95.5339C79.3979 95.5559 91.2927 90.4228 91.2982 84.0723C91.3037 77.7218 79.4198 72.5503 64.7555 72.5284C50.0912 72.5065 38.1963 77.6395 38.1908 83.99Z" fill="#4A0101"/>
<path opacity="0.077" d="M38.8928 83.9899C38.8873 90.1759 50.4587 95.2048 64.7336 95.2267C79.0086 95.2487 90.5909 90.2527 90.5963 84.0667C90.6018 77.8807 79.0305 72.8518 64.7556 72.8299C50.4806 72.808 38.8983 77.8039 38.8928 83.9899Z" fill="#480202"/>
<path opacity="0.115" d="M39.5947 83.99C39.5892 90.006 50.848 94.9033 64.7336 94.9197C78.6191 94.9362 89.8889 90.0773 89.8943 84.0613C89.8998 78.0453 78.6411 73.1481 64.7555 73.1316C50.8644 73.1152 39.6002 77.974 39.5947 83.99Z" fill="#460303"/>
<path opacity="0.154" d="M40.2968 83.9955C40.2913 89.8415 51.2319 94.6016 64.7336 94.6236C78.2353 94.6455 89.187 89.9183 89.187 84.0723C89.1924 78.2263 78.2518 73.4661 64.7501 73.4442C51.2484 73.4168 40.3022 78.144 40.2968 83.9955Z" fill="#440404"/>
<path opacity="0.192" d="M40.9987 83.9954C40.9932 89.6768 51.6212 94.2944 64.7336 94.3163C77.8459 94.3383 88.485 89.7481 88.485 84.0666C88.4904 78.3852 77.8624 73.7676 64.75 73.7457C51.6377 73.7237 41.0041 78.3139 40.9987 83.9954Z" fill="#420505"/>
<path opacity="0.231" d="M41.7007 83.9955C41.6952 89.5069 52.0107 93.9929 64.7336 94.0093C77.4621 94.0258 87.7831 89.5727 87.7831 84.0613C87.7885 78.5498 77.4731 74.0639 64.7501 74.0474C52.0271 74.031 41.7062 78.484 41.7007 83.9955Z" fill="#400606"/>
<path opacity="0.269" d="M42.4026 83.9953C42.3971 89.3423 52.4 93.6856 64.7336 93.7076C77.0727 93.724 87.0811 89.4081 87.0811 84.0612C87.0865 78.7142 77.0836 74.3709 64.75 74.3489C52.411 74.3325 42.4081 78.6539 42.4026 83.9953Z" fill="#3E0606"/>
<path opacity="0.308" d="M43.1045 83.9954C43.099 89.1723 52.7838 93.3841 64.739 93.4005C76.6887 93.417 86.379 89.2381 86.3845 84.0612C86.39 78.8842 76.7052 74.6725 64.75 74.6561C52.8003 74.6396 43.11 78.8184 43.1045 83.9954Z" fill="#3C0707"/>
<path opacity="0.346" d="M43.8065 84.0009C43.801 89.0079 53.1733 93.0825 64.7391 93.0989C76.3049 93.1154 85.6772 89.0682 85.6826 84.0612C85.6881 79.0543 76.3159 74.9797 64.7501 74.9632C53.1842 74.9413 43.812 78.9885 43.8065 84.0009Z" fill="#3A0808"/>
<path opacity="0.385" d="M44.5084 84.001C44.5029 88.8434 53.5626 92.781 64.739 92.7974C75.9155 92.8139 84.9752 88.9038 84.9806 84.0613C84.9861 79.2189 75.9265 75.2814 64.75 75.2649C53.5735 75.2485 44.5139 79.1586 44.5084 84.001Z" fill="#380909"/>
<path opacity="0.423" d="M45.2105 84.0009C45.205 88.6733 53.9465 92.4737 64.7391 92.4902C75.5262 92.5067 84.2733 88.7282 84.2787 84.0558C84.2842 79.3834 75.5427 75.5829 64.7501 75.5665C53.963 75.55 45.2159 79.3285 45.2105 84.0009Z" fill="#360A0A"/>
<path opacity="0.462" d="M45.9124 84.0009C45.9069 88.5033 54.3358 92.1722 64.7391 92.1831C75.1368 92.1996 83.5713 88.5582 83.5767 84.0558C83.5822 79.5534 75.1533 75.8846 64.75 75.8736C54.3468 75.8571 45.9178 79.4985 45.9124 84.0009Z" fill="#340B0B"/>
<path opacity="0.5" d="M46.6144 84.0008C46.6089 88.3387 54.7253 91.8649 64.7391 91.8814C74.753 91.8978 82.8694 88.3935 82.8748 84.0557C82.8803 79.7178 74.764 76.1916 64.7501 76.1751C54.7362 76.1587 46.6199 79.663 46.6144 84.0008Z" fill="#330C0C"/>
<path opacity="0.538" d="M47.3163 84.0009C47.3108 88.1687 55.1146 91.5633 64.7391 91.5743C74.3636 91.5908 82.1674 88.2181 82.1728 84.0502C82.1783 79.8823 74.3745 76.4932 64.75 76.4822C55.1256 76.4658 47.3218 79.833 47.3163 84.0009Z" fill="#310D0D"/>
<path opacity="0.577" d="M48.0182 84.0065C48.0127 88.0098 55.4984 91.2619 64.739 91.2783C73.9741 91.2893 81.4653 88.0592 81.4708 84.0558C81.4763 80.0525 73.9906 76.8005 64.75 76.784C55.5094 76.7675 48.0237 80.0031 48.0182 84.0065Z" fill="#2F0E0E"/>
<path opacity="0.615" d="M48.7202 84.0065C48.7147 87.8398 55.8879 90.9603 64.7391 90.9712C73.5903 90.9822 80.7635 87.8892 80.7689 84.0559C80.7744 80.2225 73.6013 77.1021 64.7501 77.0911C55.8988 77.0747 48.7257 80.1732 48.7202 84.0065Z" fill="#2D0F0F"/>
<path opacity="0.654" d="M49.4221 84.0064C49.4166 87.6697 56.2772 90.653 64.739 90.664C73.2009 90.6749 80.0615 87.7136 80.0669 84.0502C80.0724 80.3869 73.2119 77.4036 64.75 77.3926C56.2881 77.3816 49.4276 80.343 49.4221 84.0064Z" fill="#2B1010"/>
<path opacity="0.692" d="M50.1241 84.0065C50.1187 87.5053 56.6666 90.346 64.7391 90.3625C72.8116 90.3735 79.3596 87.5492 79.365 84.0504C79.3705 80.5516 72.8226 77.7108 64.7501 77.6944C56.6721 77.6834 50.1296 80.5077 50.1241 84.0065Z" fill="#291111"/>
<path opacity="0.731" d="M50.826 84.0063C50.826 87.3351 57.0504 90.0442 64.7391 90.0552C72.4222 90.0661 78.6575 87.379 78.6575 84.0502C78.6575 80.7213 72.4332 78.0122 64.7445 78.0013C57.0614 77.9903 50.8315 80.6775 50.826 84.0063Z" fill="#271212"/>
<path opacity="0.769" d="M51.5281 84.0118C51.5281 87.1706 57.4399 89.7427 64.7391 89.7536C72.0384 89.7646 77.9557 87.209 77.9557 84.0502C77.9557 80.8914 72.0439 78.3194 64.7446 78.3084C57.4508 78.292 51.5336 80.8475 51.5281 84.0118Z" fill="#251212"/>
<path opacity="0.808" d="M52.23 84.0119C52.23 87.0062 57.8292 89.4411 64.7391 89.4521C71.649 89.4631 77.2537 87.0446 77.2537 84.0503C77.2537 81.056 71.6545 78.6211 64.7446 78.6101C57.8347 78.5992 52.2355 81.0176 52.23 84.0119Z" fill="#231313"/>
<path opacity="0.846" d="M52.9319 84.0118C52.9319 86.8361 58.213 89.1339 64.739 89.1448C71.2595 89.1558 76.5516 86.8745 76.5516 84.0447C76.5516 81.2204 71.2705 78.9226 64.7445 78.9116C58.224 78.9061 52.9374 81.1875 52.9319 84.0118Z" fill="#211414"/>
<path opacity="0.885" d="M53.6339 84.0118C53.6339 86.6716 58.6025 88.8323 64.7391 88.8378C70.8757 88.8488 75.8498 86.699 75.8498 84.0447C75.8498 81.385 70.8812 79.2243 64.7446 79.2188C58.6134 79.2078 53.6394 81.3576 53.6339 84.0118Z" fill="#1F1515"/>
<path opacity="0.923" d="M54.3358 84.0119C54.3358 86.5017 58.9918 88.5253 64.739 88.5363C70.4863 88.5472 75.1477 86.5346 75.1477 84.0449C75.1477 81.5551 70.4918 79.5315 64.7445 79.5205C58.9973 79.515 54.3413 81.5222 54.3358 84.0119Z" fill="#1D1616"/>
<path opacity="0.962" d="M55.0378 84.0175C55.0378 86.3372 59.3812 88.2292 64.7391 88.2347C70.097 88.2402 74.4459 86.3647 74.4459 84.0449C74.4459 81.7252 70.1025 79.8332 64.7446 79.8277C59.3867 79.8167 55.0433 81.6923 55.0378 84.0175Z" fill="#1B1717"/>
<path d="M55.7397 84.0173C55.7397 86.1726 59.765 87.922 64.7391 87.9275C69.7131 87.9329 73.7438 86.1945 73.7438 84.0393C73.7438 81.8841 69.7186 80.1346 64.7445 80.1292C59.776 80.1237 55.7452 81.8621 55.7397 84.0173Z" fill="#191818"/>
</g>
<g opacity="0.26">
<path opacity="0.038" d="M77.1824 87.5821C77.1769 93.9326 89.0608 99.104 103.725 99.126C118.389 99.1479 130.284 94.0149 130.29 87.6643C130.295 81.3138 118.411 76.1424 103.747 76.1204C89.0827 76.0985 77.1879 81.2316 77.1824 87.5821Z" fill="#4A0101"/>
<path opacity="0.077" d="M77.8844 87.5876C77.8789 93.7736 89.4502 98.8024 103.725 98.8244C118 98.8463 129.582 93.8503 129.588 87.6644C129.593 81.4784 118.022 76.4495 103.747 76.4276C89.4667 76.4056 77.8899 81.4016 77.8844 87.5876Z" fill="#480202"/>
<path opacity="0.115" d="M78.5863 87.5875C78.5808 93.6035 89.8395 98.5007 103.725 98.5172C117.611 98.5336 128.88 93.6748 128.886 87.6588C128.891 81.6428 117.633 76.7455 103.747 76.7291C89.856 76.7071 78.5918 81.5715 78.5863 87.5875Z" fill="#460303"/>
<path opacity="0.154" d="M79.2883 87.5875C79.2828 93.4335 90.2235 98.1936 103.725 98.2156C117.227 98.2375 128.179 93.5103 128.179 87.6643C128.184 81.8183 117.243 77.0581 103.742 77.0362C90.2454 77.0143 79.2938 81.7415 79.2883 87.5875Z" fill="#440404"/>
<path opacity="0.192" d="M79.9902 87.5874C79.9848 93.2689 90.6128 97.8864 103.725 97.9084C116.837 97.9303 127.477 93.3401 127.477 87.6587C127.482 81.9772 116.854 77.3597 103.742 77.3377C90.6293 77.3158 79.9957 81.9059 79.9902 87.5874Z" fill="#420505"/>
<path opacity="0.231" d="M80.6923 87.5875C80.6868 93.099 91.0023 97.5849 103.725 97.6013C116.454 97.6178 126.775 93.1648 126.775 87.6533C126.78 82.1418 116.465 77.6559 103.742 77.6394C91.0187 77.623 80.6977 82.076 80.6923 87.5875Z" fill="#400606"/>
<path opacity="0.269" d="M81.3942 87.593C81.3887 92.9399 91.3916 97.2833 103.725 97.3052C116.064 97.3217 126.073 93.0057 126.073 87.6588C126.078 82.3119 116.075 77.9685 103.742 77.9466C91.408 77.9301 81.3997 82.2461 81.3942 87.593Z" fill="#3E0606"/>
<path opacity="0.308" d="M82.0961 87.5931C82.0906 92.77 91.7754 96.9817 103.731 96.9982C115.68 97.0146 125.371 92.8358 125.376 87.6589C125.382 82.4819 115.697 78.2702 103.742 78.2537C91.7918 78.2318 82.1016 82.4161 82.0961 87.5931Z" fill="#3C0707"/>
<path opacity="0.346" d="M82.7981 87.5929C82.7926 92.5999 92.1648 96.6745 103.731 96.6909C115.297 96.7074 124.669 92.6602 124.674 87.6532C124.68 82.6463 115.307 78.5717 103.742 78.5552C92.1813 78.5388 82.8036 82.586 82.7981 87.5929Z" fill="#3A0808"/>
<path opacity="0.385" d="M83.5 87.5931C83.4945 92.4355 92.5542 96.373 103.731 96.3895C114.907 96.4059 123.967 92.4958 123.972 87.6534C123.978 82.811 114.918 78.8734 103.742 78.857C92.5651 78.8405 83.5055 82.7507 83.5 87.5931Z" fill="#380909"/>
<path opacity="0.423" d="M84.202 87.5929C84.1965 92.2653 92.9381 96.0658 103.731 96.0822C114.518 96.0987 123.265 92.3202 123.27 87.6478C123.276 82.9754 114.534 79.1749 103.742 79.1585C92.9546 79.1475 84.2075 82.9205 84.202 87.5929Z" fill="#360A0A"/>
<path opacity="0.462" d="M84.9039 87.5984C84.8984 92.1008 93.3274 95.7696 103.731 95.7806C114.128 95.797 122.563 92.1556 122.568 87.6532C122.574 83.1508 114.145 79.482 103.742 79.471C93.3439 79.4491 84.9094 83.0905 84.9039 87.5984Z" fill="#340B0B"/>
<path opacity="0.5" d="M85.6115 87.5985C85.606 91.9364 93.7223 95.4626 103.736 95.479C113.75 95.4955 121.866 91.9912 121.872 87.6533C121.877 83.3154 113.761 79.7892 103.747 79.7728C93.7333 79.7563 85.6115 83.2606 85.6115 87.5985Z" fill="#330C0C"/>
<path opacity="0.538" d="M86.3134 87.5983C86.3079 91.7662 94.1117 95.1608 103.736 95.1718C113.361 95.1883 121.164 91.8156 121.17 87.6477C121.175 83.4798 113.372 80.0852 103.747 80.0742C94.1172 80.0633 86.3134 83.4305 86.3134 87.5983Z" fill="#310D0D"/>
<path opacity="0.577" d="M87.0153 87.5985C87.0098 91.6018 94.4955 94.8539 103.736 94.8703C112.977 94.8868 120.462 91.6512 120.468 87.6478C120.473 83.6445 112.988 80.3925 103.747 80.376C94.5065 80.365 87.0153 83.6006 87.0153 87.5985Z" fill="#2F0E0E"/>
<path opacity="0.615" d="M87.7173 87.5985C87.7118 91.4319 94.8849 94.5523 103.736 94.5632C112.587 94.5742 119.761 91.4812 119.766 87.6479C119.771 83.8145 112.598 80.6941 103.747 80.6831C94.8959 80.6722 87.7173 83.7652 87.7173 87.5985Z" fill="#2D0F0F"/>
<path opacity="0.654" d="M88.4192 87.5984C88.4137 91.2617 95.2742 94.245 103.736 94.256C112.198 94.267 119.059 91.3056 119.064 87.6423C119.069 83.9789 112.209 80.9956 103.747 80.9846C95.2852 80.9737 88.4192 83.9351 88.4192 87.5984Z" fill="#2B1010"/>
<path opacity="0.692" d="M89.1212 87.6039C89.1157 91.1027 95.6637 93.9435 103.736 93.9599C111.809 93.9709 118.357 91.1466 118.362 87.6478C118.368 84.149 111.82 81.3082 103.747 81.2918C95.6692 81.2808 89.1212 84.1051 89.1212 87.6039Z" fill="#291111"/>
<path opacity="0.731" d="M89.8231 87.604C89.8231 90.9328 96.0475 93.6419 103.736 93.6529C111.419 93.6638 117.655 90.9767 117.655 87.6478C117.655 84.319 111.43 81.6099 103.742 81.599C96.0585 81.5825 89.8231 84.2752 89.8231 87.604Z" fill="#271212"/>
<path opacity="0.769" d="M90.5251 87.6038C90.5251 90.7626 96.4369 93.3347 103.736 93.3456C111.035 93.3566 116.953 90.801 116.953 87.6422C116.953 84.4834 111.041 81.9114 103.742 81.9004C96.4424 81.8895 90.5251 84.445 90.5251 87.6038Z" fill="#251212"/>
<path opacity="0.808" d="M91.2271 87.604C91.2271 90.5982 96.8262 93.0332 103.736 93.0441C110.646 93.0551 116.251 90.6366 116.251 87.6424C116.251 84.6481 110.652 82.2132 103.742 82.2022C96.8317 82.1912 91.2271 84.6097 91.2271 87.604Z" fill="#231313"/>
<path opacity="0.846" d="M91.929 87.6038C91.929 90.4281 97.2101 92.7259 103.736 92.7369C110.257 92.7479 115.549 90.4665 115.549 87.6367C115.549 84.8125 110.268 82.5146 103.742 82.5037C97.2211 82.4982 91.929 84.7795 91.929 87.6038Z" fill="#211414"/>
<path opacity="0.885" d="M92.631 87.6095C92.631 90.2693 97.5995 92.43 103.736 92.4354C109.873 92.4464 114.847 90.2967 114.847 87.6424C114.847 84.9826 109.878 82.8219 103.742 82.8164C97.605 82.8055 92.631 84.9497 92.631 87.6095Z" fill="#1F1515"/>
<path opacity="0.923" d="M93.3329 87.6094C93.3329 90.0991 97.9888 92.1228 103.736 92.1337C109.483 92.1447 114.145 90.1321 114.145 87.6423C114.145 85.1525 109.489 83.1289 103.742 83.118C97.9943 83.107 93.3329 85.1196 93.3329 87.6094Z" fill="#1D1616"/>
<path opacity="0.962" d="M94.0349 87.6095C94.0349 89.9292 98.3783 91.8212 103.736 91.8267C109.094 91.8322 113.443 89.9567 113.443 87.6369C113.443 85.3172 109.1 83.4252 103.742 83.4197C98.3838 83.4142 94.0349 85.2897 94.0349 87.6095Z" fill="#1B1717"/>
<path d="M94.7368 87.6094C94.7368 89.7646 98.7621 91.514 103.736 91.5195C108.71 91.525 112.741 89.7865 112.741 87.6313C112.741 85.4761 108.716 83.7267 103.742 83.7212C98.7676 83.7157 94.7368 85.4542 94.7368 87.6094Z" fill="#191818"/>
</g>
<g opacity="0.26">
<path opacity="0.038" d="M0.701906 75.5939C0.696422 81.9444 12.5803 87.1159 27.2447 87.1378C41.909 87.1598 53.8039 82.0267 53.8093 75.6762C53.8148 69.3257 41.9309 64.1542 27.2666 64.1323C12.6023 64.1103 0.70739 69.2434 0.701906 75.5939Z" fill="#4A0101"/>
<path opacity="0.077" d="M1.40943 75.5939C1.40394 81.7799 12.9753 86.8088 27.2502 86.8307C41.5252 86.8527 53.1075 81.8567 53.1129 75.6707C53.1184 69.4847 41.5471 64.4558 27.2722 64.4339C12.9917 64.412 1.40943 69.4079 1.40943 75.5939Z" fill="#480202"/>
<path opacity="0.115" d="M2.11133 75.5939C2.10585 81.6099 13.3646 86.5072 27.2502 86.5236C41.1412 86.5455 52.4055 81.6812 52.4109 75.6652C52.4164 69.6492 41.1577 64.752 27.2721 64.7355C13.3755 64.7191 2.11133 69.5779 2.11133 75.5939Z" fill="#460303"/>
<path opacity="0.154" d="M2.81336 75.5994C2.80787 81.4454 13.7485 86.2055 27.2502 86.2274C40.7519 86.2494 51.7036 81.5221 51.7036 75.6762C51.709 69.8302 40.7684 65.07 27.2667 65.0481C13.765 65.0207 2.81336 69.7479 2.81336 75.5994Z" fill="#440404"/>
<path opacity="0.192" d="M3.51526 75.5995C3.50978 81.2809 14.1378 85.8985 27.2502 85.9204C40.3625 85.9424 51.0016 81.3522 51.0016 75.6708C51.007 69.9893 40.379 65.3717 27.2666 65.3498C14.1543 65.3279 3.51526 69.918 3.51526 75.5995Z" fill="#420505"/>
<path opacity="0.231" d="M4.21729 75.5995C4.2118 81.1109 14.5273 85.5969 27.2502 85.6133C39.9787 85.6298 50.2997 81.1767 50.2997 75.6653C50.3051 70.1538 39.9897 65.6679 27.2667 65.6514C14.5382 65.635 4.21729 70.088 4.21729 75.5995Z" fill="#400606"/>
<path opacity="0.269" d="M4.91919 75.5993C4.91371 80.9463 14.9166 85.2896 27.2502 85.3116C39.5893 85.328 49.5977 81.0121 49.5977 75.6652C49.6031 70.3182 39.6003 65.9749 27.2666 65.9529C14.9276 65.9365 4.91919 70.2524 4.91919 75.5993Z" fill="#3E0606"/>
<path opacity="0.308" d="M5.6211 75.5994C5.61561 80.7763 15.3004 84.988 27.2556 85.0045C39.2053 85.021 48.8956 80.8421 48.9011 75.6652C48.9066 70.4883 39.2218 66.2765 27.2666 66.2601C15.3169 66.2436 5.6211 70.4224 5.6211 75.5994Z" fill="#3C0707"/>
<path opacity="0.346" d="M6.32312 75.5994C6.31764 80.6063 15.6899 84.681 27.2557 84.6974C38.8215 84.7139 48.1938 80.6666 48.1992 75.6597C48.2047 70.6528 38.8325 66.5781 27.2667 66.5617C15.7008 66.5452 6.32312 70.5925 6.32312 75.5994Z" fill="#3A0808"/>
<path opacity="0.385" d="M7.02503 75.6049C7.01954 80.4473 16.0792 84.3848 27.2556 84.4013C38.4321 84.4177 47.4918 80.5076 47.4972 75.6652C47.5027 70.8228 38.4431 66.8853 27.2666 66.8688C16.0901 66.8524 7.02503 70.7625 7.02503 75.6049Z" fill="#380909"/>
<path opacity="0.423" d="M7.72705 75.6049C7.72157 80.2773 16.4631 84.0778 27.2557 84.0942C38.0428 84.1107 46.7899 80.3322 46.7953 75.6598C46.8008 70.9874 38.0593 67.1869 27.2667 67.1705C16.4796 67.154 7.72705 70.9325 7.72705 75.6049Z" fill="#360A0A"/>
<path opacity="0.462" d="M8.42896 75.6048C8.42347 80.1072 16.8524 83.776 27.2557 83.787C37.6534 83.8035 46.0879 80.1621 46.0933 75.6597C46.0988 71.1573 37.6699 67.4884 27.2666 67.4775C16.8634 67.461 8.42896 71.1024 8.42896 75.6048Z" fill="#340B0B"/>
<path opacity="0.5" d="M9.13098 75.6048C9.1255 79.9427 17.2419 83.4689 27.2557 83.4854C37.2696 83.5018 45.386 79.9976 45.3914 75.6597C45.3969 71.3218 37.2806 67.7956 27.2667 67.7791C17.2528 67.7627 9.13098 71.267 9.13098 75.6048Z" fill="#330C0C"/>
<path opacity="0.538" d="M9.83289 75.6049C9.8274 79.7728 17.6312 83.1674 27.2557 83.1784C36.8802 83.1894 44.6839 79.8222 44.6894 75.6543C44.6949 71.4864 36.8911 68.0918 27.2666 68.0808C17.6422 68.0699 9.83289 71.4371 9.83289 75.6049Z" fill="#310D0D"/>
<path opacity="0.577" d="M10.5348 75.6105C10.5293 79.6138 18.015 82.8659 27.2556 82.8823C36.4907 82.8933 43.9819 79.6632 43.9874 75.6598C43.9929 71.6565 36.5072 68.4045 27.2666 68.388C18.026 68.3715 10.5348 71.6071 10.5348 75.6105Z" fill="#2F0E0E"/>
<path opacity="0.615" d="M11.2368 75.6105C11.2313 79.4438 18.4045 82.5642 27.2557 82.5752C36.1069 82.5862 43.2801 79.4932 43.2855 75.6598C43.291 71.8265 36.1179 68.7061 27.2667 68.6951C18.4154 68.6841 11.2368 71.7771 11.2368 75.6105Z" fill="#2D0F0F"/>
<path opacity="0.654" d="M11.9387 75.6104C11.9332 79.2737 18.7938 82.257 27.2556 82.268C35.7175 82.279 42.578 79.3176 42.5835 75.6542C42.589 71.9909 35.7285 69.0076 27.2666 68.9966C18.8047 68.9856 11.9387 71.947 11.9387 75.6104Z" fill="#2B1010"/>
<path opacity="0.692" d="M12.6408 75.6105C12.6353 79.1093 19.1832 81.95 27.2557 81.9665C35.3282 81.9775 41.8762 79.1532 41.8816 75.6544C41.8871 72.1556 35.3392 69.3148 27.2667 69.2984C19.1887 69.2874 12.6408 72.1117 12.6408 75.6105Z" fill="#291111"/>
<path opacity="0.731" d="M13.3427 75.6103C13.3427 78.9391 19.567 81.6482 27.2557 81.6592C34.9388 81.6701 41.1741 78.983 41.1741 75.6541C41.1741 72.3253 34.9498 69.6162 27.2611 69.6053C19.578 69.5943 13.3427 72.2815 13.3427 75.6103Z" fill="#271212"/>
<path opacity="0.769" d="M14.0447 75.6158C14.0447 78.7746 19.9565 81.3467 27.2557 81.3576C34.555 81.3686 40.4723 78.813 40.4723 75.6542C40.4723 72.4954 34.5605 69.9234 27.2612 69.9124C19.9674 69.896 14.0447 72.4515 14.0447 75.6158Z" fill="#251212"/>
<path opacity="0.808" d="M14.7466 75.6159C14.7466 78.6102 20.3458 81.0451 27.2557 81.0561C34.1656 81.0671 39.7703 78.6486 39.7703 75.6543C39.7703 72.66 34.171 70.2251 27.2612 70.2141C20.3513 70.2032 14.7466 72.6216 14.7466 75.6159Z" fill="#231313"/>
<path opacity="0.846" d="M15.4485 75.6158C15.4485 78.4401 20.7296 80.7379 27.2556 80.7489C33.7761 80.7598 39.0682 78.4785 39.0682 75.6487C39.0682 72.8189 33.7871 70.5266 27.2611 70.5156C20.7406 70.5102 15.4485 72.7915 15.4485 75.6158Z" fill="#211414"/>
<path opacity="0.885" d="M16.1505 75.6158C16.1505 78.2756 21.1191 80.4363 27.2557 80.4418C33.3923 80.4528 38.3664 78.303 38.3664 75.6487C38.3664 72.989 33.3978 70.8283 27.2612 70.8228C21.13 70.8118 16.1505 72.9616 16.1505 75.6158Z" fill="#1F1515"/>
<path opacity="0.923" d="M16.8524 75.6157C16.8524 78.1055 21.5084 80.1291 27.2556 80.1401C33.0029 80.151 37.6643 78.1384 37.6643 75.6486C37.6643 73.1589 33.0084 71.1353 27.2611 71.1243C21.5139 71.1133 16.8524 73.126 16.8524 75.6157Z" fill="#1D1616"/>
<path opacity="0.962" d="M17.5544 75.6158C17.5544 77.9356 21.8978 79.8276 27.2557 79.8331C32.6136 79.8386 36.9625 77.963 36.9625 75.6433C36.9625 73.3235 32.6191 71.4315 27.2612 71.426C21.9033 71.4206 17.5544 73.2961 17.5544 75.6158Z" fill="#1B1717"/>
<path d="M18.2563 75.6214C18.2563 77.7766 22.2816 79.526 27.2557 79.5315C32.2297 79.537 36.2604 77.7985 36.2604 75.6433C36.2604 73.4881 32.2352 71.7387 27.2611 71.7332C22.2871 71.7277 18.2563 73.4661 18.2563 75.6214Z" fill="#191818"/>
</g>
<path d="M107.339 41.1596C107.339 58.5166 96.3216 73.3016 80.895 78.9063H80.8895C77.7307 80.0525 74.38 80.8147 70.9031 81.1273C70.9031 81.1273 70.8976 81.1273 70.8921 81.1273C69.6747 81.248 68.4408 81.3028 67.1959 81.3028C60.3628 81.3028 53.93 79.5973 48.2979 76.5811C43.1265 73.8171 38.6241 69.9509 35.1143 65.2949C30.0525 58.5824 27.0527 50.2193 27.0527 41.1596C27.0527 26.9615 34.4288 14.4798 45.5559 7.33959C46.5595 6.69795 47.5959 6.10019 48.6544 5.55179C54.1987 2.65622 60.5054 1.02197 67.1959 1.02197C77.0123 1.02197 86.0116 4.54821 92.9819 10.4052C96.4916 13.3446 99.4914 16.8818 101.822 20.8523C105.326 26.8079 107.339 33.7507 107.339 41.1596Z" fill="url(#paint0_linear_18_429)"/>
<path d="M107.339 41.1597C107.339 58.5167 96.3217 73.3017 80.8951 78.9063H80.8896C80.8238 78.8131 80.7525 78.7089 80.6702 78.5938C80.226 77.9357 80.1109 77.8041 80.0889 77.8041C80.0834 77.7986 80.078 77.7931 80.0725 77.7821C79.9134 77.4586 79.8037 77.4586 79.5844 76.8663C79.3705 76.274 79.3705 76.433 78.8879 75.6269C78.3998 74.8207 78.8879 75.3033 78.8331 74.9304C78.7782 74.5465 78.8331 74.9304 78.8331 73.9049L78.6192 73.1481C78.6192 73.1481 78.345 72.9342 77.9172 72.6107C77.9172 72.6107 78.3505 72.0678 78.3505 71.9087C78.3505 71.7497 78.515 71.5303 78.515 71.5303L77.9227 70.1812L78.7453 69.5341L79.5954 69.2654H80.0286L80.3028 68.7225C80.3028 68.7225 80.4125 68.3441 80.4125 68.1796C80.4125 68.0205 80.6264 67.5873 80.7909 67.1047L82.1948 65.7556L82.0851 64.6753C82.0851 64.6753 82.4087 64.6204 83.0009 64.1872C83.5932 63.7539 83.3245 64.0775 84.1855 63.1672C84.1855 63.1672 84.1855 62.7833 84.1855 62.6242C84.1855 62.4597 84.2403 62.2952 84.2403 61.9223C84.2403 61.5494 84.5639 60.7377 84.5639 60.7377L84.2403 60.2222H83.9168C83.9168 60.2222 83.2148 60.1948 82.9461 60.1948C82.6774 60.1948 82.9461 60.1948 82.5677 60.2167C82.1893 60.2332 82.1893 60.2167 82.1893 60.2167H81.597L81.0541 59.7122C81.0541 59.7122 80.7854 59.9864 80.407 60.1455C80.0231 60.31 79.705 60.1455 79.705 60.1455C79.705 60.1455 79.705 60.1455 79.2718 59.9316C78.8386 59.7122 79.2718 59.9316 79.1621 59.7671C79.0579 59.6025 79.0579 59.4435 78.8386 59.279C78.6247 59.1145 78.8386 58.9006 78.8386 58.9006C78.8386 58.9006 79.217 59.1693 79.8092 58.9006C80.4015 58.6319 79.5405 58.0396 79.5405 58.0396V55.7747L80.6702 54.7492L81.4215 53.3452H82.3374L82.9351 53.2904H83.5823L84.2787 53.6743V54.1569L84.9752 54.3762L85.3042 54.4311L85.6278 54.7546L86.1159 55.0782L86.4394 55.4072L87.0317 56.1586H87.5198L88.1121 55.2976C88.1121 55.2976 88.7043 55.3524 89.2966 55.2976L89.5105 54.0033L89.9986 53.5153L90.3276 52.9723L90.4318 52.6488L90.6512 52.0017C90.6512 52.0017 90.9747 51.7878 91.1393 51.3052C91.3038 50.8171 91.2489 50.3345 91.2489 50.3345C91.2489 50.3345 91.408 50.0109 91.5177 49.6325C91.6273 49.2542 91.6273 48.2835 91.5725 47.9599C91.5177 47.6364 91.5725 47.9599 91.1941 47.6364C90.8157 47.3128 90.7609 47.6364 90.7609 47.6364L90.3825 46.885C90.3825 46.885 90.3825 46.885 90.3276 46.7205C90.2728 46.556 90.1631 45.9692 90.1631 45.9692L89.7299 45.3769H89.0334L88.814 44.3514H89.3021L89.9492 43.7591L89.8999 42.6294L89.7353 42.1962L89.0882 41.7081L88.984 41.3297C88.984 41.3297 88.655 41.1104 88.4959 41.0555C88.3314 41.0062 87.1469 41.0555 86.8727 40.5729C86.604 40.0848 86.5491 39.8161 86.5491 39.8161L86.1159 39.3829V38.5767L86.4394 38.1435L86.8727 38.5767H88.0627C88.0627 38.5767 88.655 38.4122 88.7592 38.1983C88.8689 37.979 89.1376 37.4415 89.1376 37.4415L89.9437 37.0083L90.4867 36.2021C90.4867 36.2021 90.9199 35.8237 91.1338 35.5057C91.3476 35.1766 91.3476 35.5057 91.3476 35.5057V35.0176L92.4828 34.7434L92.3183 34.0963L92.8612 33.3943L92.1648 32.5882L92.3787 31.8917L93.1848 31.5133C93.1848 31.5133 93.459 31.08 93.4042 30.7565C93.3493 30.4329 93.0806 30.0052 93.0806 30.0052L92.6474 29.199L92.3732 28.4971L91.9399 27.7457L91.6164 27.2577L91.8302 26.5612L91.726 25.9634L91.6712 25.6892L91.3422 25.1518L91.8851 24.5047L92.5322 23.8576H93.2287V23.1008H94.9068V22.1849H96.0913L96.4697 21.9162L97.1717 21.483H98.7346C98.7346 21.483 99.1679 21.4281 99.486 21.2088C99.815 20.9949 99.815 21.2088 99.815 21.2088H101.323L101.817 20.8633C105.326 26.808 107.339 33.7508 107.339 41.1597Z" fill="url(#paint1_linear_18_429)"/>
<path d="M92.9818 10.3996C92.8557 10.6245 92.7625 10.7835 92.7625 10.7835L90.4701 13.7449C90.4701 13.7449 90.4701 13.7449 90.2453 13.9643C90.0259 14.1891 89.8778 14.4853 89.8778 14.4853V15.8124L89.5049 16.0372L88.2491 16.8489C88.2491 16.8489 87.1358 16.9969 86.9165 17.0737C86.6916 17.1505 85.5893 17.666 85.5893 17.666C85.5893 17.666 84.7777 18.2583 84.4761 18.4776C84.1799 18.7025 83.7357 19.739 83.2915 20.3258C82.8528 20.918 81.9644 22.47 81.5915 22.6894C81.224 22.9142 81.5915 23.0623 81.5915 23.4297C81.5915 23.8026 81.224 25.1298 81.224 25.1298V26.1663L81.5915 27.0547V28.9796L81.224 29.5718C81.224 29.5718 81.224 30.1641 81.224 30.3835C81.224 30.6083 81.1473 30.9045 80.9992 31.1293C80.8511 31.3487 80.9992 31.7216 80.9992 31.9409C80.9992 32.1603 81.5915 32.5332 81.5915 32.5332V33.4216L81.076 34.3101L80.703 34.6775V39.7118H79.003C79.003 39.7118 79.003 39.7118 78.9262 39.487C78.8494 39.2621 78.5588 38.8947 78.3339 38.5986C78.1091 38.3024 77.9062 38.5986 77.9062 38.5986C77.9062 38.5986 77.2975 38.5218 77.0726 38.3024C76.8532 38.0831 76.7052 37.1947 76.7052 37.1947V36.0759L76.1842 35.3356L75.8935 34.9627L76.7052 33.9262L76.261 31.7819H75.9703C75.9703 31.7819 76.1184 31.1183 75.9703 30.7454C75.8223 30.3725 75.9703 30.2299 75.9703 30.2299L75.4493 28.7492V27.8608H74.9338V27.5702L74.1935 26.8243V26.4569C74.1935 26.4569 73.3051 26.0127 73.2338 25.6453C73.157 25.2724 72.3454 25.053 72.3454 25.053L71.7531 24.4443C71.7531 24.4443 71.1553 24.1646 70.7934 24.0165C70.4205 23.8684 70.0476 24.3072 70.0476 24.3072C70.0476 24.3072 69.8282 24.6033 69.4553 24.3072C69.0879 24.0165 68.9398 23.7917 68.863 23.5668C68.7862 23.342 68.863 22.6784 68.863 22.6784C68.863 22.6784 68.6382 21.8668 68.0514 20.9016C68.0514 20.9016 67.6072 20.5341 67.0917 20.1612C66.5707 19.7938 66.5707 20.1612 66.5707 20.1612L66.28 19.7938C66.28 19.7938 65.9839 19.9364 65.6823 19.7938C65.3916 19.6457 64.728 19.3496 64.728 19.3496C64.728 19.3496 64.728 19.3496 64.2838 19.1248C63.8451 18.9054 64.2838 19.1248 64.059 18.9054C63.8396 18.6805 63.3954 18.9054 63.3954 18.9054C63.3954 18.9054 63.3954 18.9054 62.8031 18.5325C62.2054 18.1596 62.0628 18.5325 62.0628 18.5325L61.838 18.1596L61.986 17.4192H62.3535L62.2767 16.6076H65.09C65.09 16.6076 65.09 16.6076 65.1668 16.2401C65.2435 15.8672 65.4629 16.2401 65.4629 16.2401H68.4188L68.863 15.7192V15.3517H68.1994L66.8668 14.392H64.0535C64.0535 14.392 64.0535 14.392 63.7629 14.0191C63.4667 13.6517 62.9512 14.0191 62.9512 14.0191V13.2075L60.807 12.84L59.5511 11.8036H58.6627L58.2185 11.0632C58.2185 11.0632 57.4781 11.2826 57.4068 11.0632C57.3301 10.8384 56.8146 9.80188 56.8146 9.80188C56.8146 9.80188 55.482 9.06154 55.2571 8.68862C55.0377 8.32119 54.1493 8.68862 54.1493 8.68862H53.1129L52.5206 8.2499H52.1477L51.336 8.68862C51.336 8.68862 51.336 8.68862 50.8918 8.39797C50.4531 8.10183 50.8918 7.87699 50.8918 7.87699C50.8918 7.87699 50.4531 7.36149 50.3763 6.62114C50.2995 5.8808 49.8608 6.62114 49.8608 6.62114L48.0127 6.17693C48.0127 6.17693 48.2485 5.93015 48.6434 5.52982C54.1877 2.63424 60.4944 1 67.1849 1C77.0123 1.02194 86.0116 4.54269 92.9818 10.3996Z" fill="url(#paint2_linear_18_429)"/>
<path d="M81.0815 45.6894L79.5295 46.2762V46.9398C79.5295 46.9398 78.9373 47.7514 78.9373 47.9763C78.9373 48.2011 78.9373 48.8647 78.9373 48.8647C79.6776 49.0128 80.2699 48.4205 80.4892 48.8647C80.7086 49.3089 80.7854 49.605 81.0815 49.8244C81.3777 50.0438 81.3777 50.0438 81.3777 50.0438C81.3777 50.0438 80.8622 49.3034 81.3777 49.1553C81.8932 49.0073 81.2296 49.2266 81.8932 49.0073C82.5567 48.7879 83.0777 48.5631 83.0777 48.5631C83.0777 48.5631 82.4141 47.8227 82.3374 47.5266C82.2661 47.2305 82.2661 46.6382 82.2661 46.6382L82.118 45.6785H81.0815V45.6894Z" fill="url(#paint3_linear_18_429)"/>
<path d="M44.6949 66.8469C44.6565 66.7537 44.6236 66.6714 44.5907 66.6111C46.4333 67.0005 44.9197 67.4063 44.9197 67.4063C44.9197 67.4063 44.9197 67.4063 44.6949 66.8469Z" fill="url(#paint4_linear_18_429)"/>
<path d="M66.4446 44.5433V47.0989C66.4446 47.0989 65.8907 46.6492 65.8907 47.8721C65.8907 49.0896 65.8907 49.0896 65.8907 49.0896L65.2271 50.0493V50.5319H63.6752L61.7886 49.2048L61.0099 48.9799H59.787C59.787 48.9799 58.3447 49.2048 58.1198 48.6454C57.9005 48.0915 57.4563 47.3128 57.4563 47.3128L56.343 46.5395C56.343 46.5395 55.6794 45.3879 55.2352 45.6895C54.7965 45.9856 53.1293 45.6895 53.1293 45.6895C53.1293 45.6895 51.5774 45.1685 50.5738 45.6895C49.5757 46.205 49.4605 46.3202 49.1315 46.205C48.797 46.0953 47.3547 45.6895 47.3547 45.6895L46.2469 45.2069H45.4681L43.3623 45.6895C43.3623 45.6895 43.1374 46.7589 43.1374 47.0989C43.1374 47.4334 43.472 48.9854 43.472 48.9854C43.472 48.9854 42.1393 50.7622 42.1393 51.2064C42.1393 51.6452 41.4758 52.2045 41.4758 52.2045L40.9219 53.093V54.7601C40.9219 54.7601 40.8067 54.2062 40.9219 55.7637C41.0316 57.3157 41.0316 57.3157 41.0316 57.3157C41.0316 57.3157 41.5854 59.3119 41.5854 59.6464V59.9809C41.5854 60.5348 41.4758 60.7596 41.92 61.8674C42.3642 62.9807 43.2526 63.1946 43.4774 63.9733C43.6968 64.752 44.3659 65.6404 44.3659 65.9695C44.3659 66.2492 44.4426 66.293 44.5962 66.6166C44.2671 66.5508 43.8284 66.485 43.2581 66.4137C39.4851 65.9695 37.7027 65.1907 37.7027 65.1907L36.4853 65.3059H35.1198C30.058 58.5934 27.0582 50.2303 27.0582 41.1707C27.0582 26.9725 34.4343 14.4908 45.5614 7.35059L46.362 7.81124L47.0256 9.25355L46.6911 9.91712L46.3566 10.6958L45.353 11.2497V12.2478L46.1866 13.1417L47.0201 13.5805L47.4588 14.7924C47.4205 14.7431 47.2724 14.5621 47.4643 15.2476C47.6892 16.0263 48.0237 17.1341 48.0237 17.1341H47.245L46.6911 17.8032H45.3585L44.0258 18.4667C44.0258 18.4667 43.6913 18.028 43.3623 18.4667C43.0277 18.9109 43.0278 18.9109 43.0278 18.9109L43.472 19.4539L43.8065 20.6878V21.2417L44.141 22.2398L44.0258 22.9033V23.7972L43.0278 24.4608C43.0278 24.4608 42.5835 24.8995 42.4739 25.3492C42.3642 25.7934 42.8084 26.1279 42.4739 26.7915C42.1393 27.4551 42.1393 27.4551 42.1393 27.4551V28.7822L41.3606 29.5609L40.9219 30.4494V31.1129C40.9219 31.1129 41.92 32.0013 42.3642 32.3304C42.8029 32.6649 42.5835 31.6668 43.3623 32.3304C44.141 32.9994 45.3585 32.9994 45.693 32.9994C46.0275 32.9994 47.1353 32.9994 47.1353 32.9994L49.5812 32.1055L51.4677 32.9994H52.0216C52.0216 32.9994 52.0216 33.8878 52.5755 34.2169C53.1293 34.5514 53.239 33.7727 53.9081 34.2169C54.5717 34.6556 54.5717 34.6556 54.5717 34.6556C54.5717 34.6556 55.1255 35.8786 55.1255 36.5421C55.1255 37.2057 55.1255 37.2057 55.1255 37.2057L57.3466 38.8728L57.9005 39.69C57.9005 39.69 58.1198 39.2841 58.4543 39.69C58.7889 40.0903 60.0063 39.9806 60.3409 40.6497C60.6754 41.3132 61.3444 41.4284 61.3444 41.4284C61.3444 41.4284 60.7906 41.4284 61.8983 41.8671C62.8635 42.2565 63.7519 41.9658 63.9603 41.8891C63.8232 41.9494 63.4503 42.1688 64.0042 42.5362C64.6733 42.9859 66.4446 44.5433 66.4446 44.5433Z" fill="url(#paint5_linear_18_429)"/>
<path d="M57.7909 51.645C57.7909 51.645 56.5679 51.9795 56.3486 53.197C56.1292 54.4145 55.9044 54.8641 55.9044 55.1932C55.9044 55.5277 55.3505 56.1913 55.9044 56.7452C56.4583 57.2991 56.7654 57.1894 56.727 57.7433C56.6831 58.2972 58.0157 59.4104 58.2351 59.8546C58.4545 60.2988 58.1254 58.9662 59.0138 60.9624C59.9022 62.9586 60.0119 62.4047 60.0119 62.4047L62.4523 61.626C62.4523 61.626 61.4542 59.0759 61.4542 58.7414C61.4542 58.4068 58.8767 55.9664 59.0577 54.6338C59.2332 53.3067 57.7909 51.645 57.7909 51.645Z" fill="url(#paint6_linear_18_429)"/>
<path d="M67.6676 51.645C67.6676 51.645 66.1156 52.0892 65.1175 53.0873C64.1194 54.0854 63.8945 54.7545 63.7849 55.0835C63.6752 55.418 63.6752 54.6393 63.6752 55.418C63.6752 56.1968 63.6752 57.9681 63.6752 57.9681C63.6752 57.9681 63.1213 57.4142 65.0078 57.9681C66.8943 58.522 66.3404 58.3026 67.673 58.522C69.0057 58.7414 70.426 58.4123 70.7715 58.522C71.117 58.6317 72.2248 57.4855 72.4496 57.0578C72.669 56.6355 72.4496 53.7454 72.4496 53.7454L67.6676 51.645Z" fill="url(#paint7_linear_18_429)"/>
<path d="M64.3388 60.968C64.3388 60.968 61.5638 61.3025 64.3388 61.6316C67.1137 61.9661 67.7773 61.2971 68.556 61.6316C69.3347 61.9661 69.5321 61.3793 70.766 61.7303C72 62.0758 73.4423 61.1819 73.8865 61.7413C74.3307 62.3006 73.6671 62.4103 73.8865 62.9642C74.1058 63.5181 72 64.741 72 64.741C72 64.741 72.7787 64.9604 71.2212 65.1852C69.6692 65.4046 66.4501 65.1852 66.4501 65.1852C66.4501 65.1852 66.1156 65.602 65.3423 65.284C64.5636 64.9659 64.6513 64.6314 63.1103 64.0775C61.5693 63.5236 60.6809 63.1891 60.6809 63.1891L61.679 60.968H64.3388Z" fill="url(#paint8_linear_18_429)"/>
<path d="M81.0102 61.5218L77.4401 60.968C77.4401 60.968 77.7746 60.8583 77.4401 61.5218C77.1056 62.1854 77.7746 62.9641 77.4401 63.1835C77.1056 63.4084 76.0252 63.518 77.3414 63.9622C78.6576 64.4064 79.4363 63.9622 80.3247 63.9622C81.2131 63.9622 82.3209 63.1835 82.3209 63.1835L81.0102 61.5218Z" fill="url(#paint9_linear_18_429)"/>
<path d="M72.5373 79.3944C72.4386 79.729 72.5373 80.8367 72.5373 80.8367C72.5373 80.8367 71.8902 80.9519 70.9031 81.1274C70.9031 81.1274 70.8976 81.1274 70.8921 81.1274C69.6746 81.248 68.4407 81.3029 67.1958 81.3029C60.3627 81.3029 53.93 79.5974 48.2979 76.5811C50.5353 76.0272 50.9083 75.8353 50.9083 75.8353H51.7967C51.7967 75.8353 54.0177 75.1717 54.3522 75.0621C54.6868 74.9469 54.8568 74.8372 55.6629 74.6178C56.4636 74.393 58.3501 73.8391 58.3501 73.8391L63.5983 75.8079C66.7791 77.7273 67.8046 77.3818 68.0733 77.7767C68.342 78.166 67.0094 77.7273 69.3401 78.506C71.6599 79.2793 72.6415 79.0544 72.5373 79.3944Z" fill="url(#paint10_linear_18_429)"/>
<path d="M107.339 41.1376C107.339 53.8661 101.405 65.2071 92.1483 72.5612C86.7191 76.8716 80.1437 79.8056 72.9487 80.8366C71.0676 81.1053 69.1482 81.2479 67.2014 81.2479C47.2669 81.2479 30.727 66.7262 27.5902 47.702C27.4202 46.693 27.294 45.662 27.2063 44.631C27.1021 43.4793 27.0527 42.3167 27.0527 41.1431C27.0527 25.1571 36.414 11.3538 49.9651 4.91006H49.976C55.1968 2.43128 61.0373 1.03833 67.2014 1.03833C73.3545 1.03833 79.1785 2.42031 84.3884 4.88812C97.9559 11.3209 107.339 25.1297 107.339 41.1376Z" stroke="#1F575B" stroke-miterlimit="10"/>
<path d="M67.1959 14.1508C71.7027 14.1508 75.3561 11.725 75.3561 8.73256C75.3561 5.74015 71.7027 3.31433 67.1959 3.31433C62.6891 3.31433 59.0356 5.74015 59.0356 8.73256C59.0356 11.725 62.6891 14.1508 67.1959 14.1508Z" stroke="#1F575B" stroke-miterlimit="10"/>
<path d="M67.1959 14.1508V81.2425" stroke="#1F575B" stroke-miterlimit="10"/>
<path d="M59.0357 9.80188C59.0357 9.80188 40.8177 16.2676 40.9767 43.9455C41.1358 72.276 59.0357 80.4089 59.0357 80.4089" stroke="#1F575B" stroke-miterlimit="10"/>
<path d="M75.3562 9.80188C75.3562 9.80188 93.5742 16.2676 93.4151 43.9455C93.2561 72.276 75.3562 80.4089 75.3562 80.4089" stroke="#1F575B" stroke-miterlimit="10"/>
<path d="M95.7183 13.2678C97.7748 16.125 98.9265 19.3386 98.9265 22.7387C98.9265 34.661 84.7174 44.3294 67.1958 44.3294C49.6743 44.3294 35.4597 34.661 35.4597 22.7387C35.4597 19.0096 36.8472 15.5053 39.2876 12.4452" stroke="#1F575B" stroke-miterlimit="10"/>
<path d="M85.6991 5.93018C89.4666 8.07443 91.7918 10.8548 91.8905 13.8985C92.1099 20.6658 81.2296 26.1498 67.5908 26.1498C53.952 26.1498 42.7152 20.6658 42.4958 13.8985C42.4245 11.7816 43.4445 9.79642 45.2872 8.05798" stroke="#1F575B" stroke-miterlimit="10"/>
<path d="M107.18 36.1362C105.354 50.7347 88.1504 62.1745 67.1959 62.1745C46.4169 62.1745 29.3286 50.9267 27.2611 36.5037" stroke="#1F575B" stroke-miterlimit="10"/>
<path d="M105.919 51.0582C104.153 65.6567 87.4868 77.0964 67.1959 77.0964C47.075 77.0964 30.5241 65.8487 28.5225 51.4257" stroke="#1F575B" stroke-miterlimit="10"/>
<path d="M67.1959 3.30883V1.02747" stroke="#1F575B" stroke-miterlimit="10"/>
<g opacity="0.26">
<path opacity="0.038" d="M76.3432 81.9663C87.2839 88.5197 103.385 81.7963 112.302 66.94C121.219 52.0838 119.579 34.7268 108.639 28.1734C97.698 21.6199 81.5969 28.3434 72.6799 43.1996C63.7628 58.0559 65.4025 75.4074 76.3432 81.9663Z" fill="#4A0101"/>
<path opacity="0.077" d="M76.5462 81.1821C87.1962 87.5655 102.87 81.0176 111.556 66.5507C120.238 52.0893 118.642 35.193 107.992 28.8096C97.3417 22.4261 81.6683 28.9741 72.9816 43.441C64.2948 57.9024 65.8907 74.7987 76.5462 81.1821Z" fill="#480202"/>
<path opacity="0.115" d="M76.7491 80.3978C87.1139 86.6058 102.36 80.2333 110.805 66.1667C119.25 52.1002 117.698 35.659 107.334 29.4511C96.9687 23.2432 81.7231 29.6156 73.2777 43.6822C64.8322 57.7542 66.3842 74.1899 76.7491 80.3978Z" fill="#460303"/>
<path opacity="0.154" d="M76.9465 79.6192C87.0207 85.6571 101.844 79.4601 110.054 65.7829C118.263 52.1057 116.755 36.1252 106.681 30.0928C96.6068 24.0549 81.7834 30.2518 73.5738 43.929C65.3642 57.6062 66.8778 73.5812 76.9465 79.6192Z" fill="#440404"/>
<path opacity="0.192" d="M77.1494 78.8349C86.9329 84.6974 101.329 78.6814 109.308 65.399C117.282 52.1167 115.817 36.5914 106.034 30.7289C96.2503 24.8665 81.8547 30.8825 73.8754 44.1648C65.8961 57.4472 67.3659 72.9725 77.1494 78.8349Z" fill="#420505"/>
<path opacity="0.231" d="M77.3523 78.0508C86.8451 83.7377 100.818 77.9027 108.556 65.0097C116.294 52.1167 114.874 37.0576 105.376 31.3651C95.8828 25.6782 81.9095 31.5132 74.1715 44.4062C66.4335 57.2991 67.8594 72.3638 77.3523 78.0508Z" fill="#400606"/>
<path opacity="0.269" d="M77.5553 77.2721C86.763 82.789 100.309 77.1295 107.811 64.6313C115.313 52.1332 113.936 37.5292 104.729 32.0123C95.521 26.4953 81.9754 32.1549 74.4732 44.653C66.9711 57.1511 68.3476 71.7551 77.5553 77.2721Z" fill="#3E0606"/>
<path opacity="0.308" d="M77.7581 76.4877C86.6751 81.8292 99.793 76.3506 107.059 64.2419C114.326 52.1386 112.993 37.9898 104.076 32.6483C95.159 27.3069 82.0411 32.7854 74.7748 44.8942C67.5029 56.9975 68.841 71.1463 77.7581 76.4877Z" fill="#3C0707"/>
<path opacity="0.346" d="M77.961 75.7036C86.5874 80.875 99.2829 75.5665 106.313 63.8581C113.344 52.1442 112.05 38.4615 103.423 33.29C94.797 28.1186 82.1014 33.4271 75.0709 45.1356C68.0403 56.844 69.3346 70.5376 77.961 75.7036Z" fill="#3A0808"/>
<path opacity="0.385" d="M78.164 74.9194C86.4997 79.9154 98.7675 74.7878 105.568 63.4687C112.362 52.1497 111.112 38.9222 102.776 33.9262C94.4406 28.9303 82.1728 34.0578 75.3726 45.3769C68.5724 56.7014 69.8227 69.9235 78.164 74.9194Z" fill="#380909"/>
<path opacity="0.423" d="M78.3668 74.1407C86.4174 78.9612 98.2574 74.0146 104.816 63.0903C111.375 52.1607 110.169 39.3938 102.124 34.5733C94.0731 29.7529 82.2331 34.6995 75.6742 45.6237C69.1098 56.5479 70.3163 69.3147 78.3668 74.1407Z" fill="#360A0A"/>
<path opacity="0.462" d="M78.5643 73.3564C86.3242 78.0069 97.742 73.2357 104.065 62.7009C110.388 52.1661 109.226 39.8599 101.466 35.2094C93.7057 30.559 82.288 35.3301 75.9649 45.8649C69.6473 56.3997 70.8099 68.7059 78.5643 73.3564Z" fill="#340B0B"/>
<path opacity="0.5" d="M78.7672 72.5722C86.2364 77.0472 97.2265 72.457 103.319 62.3116C109.407 52.1716 108.288 40.3206 100.819 35.8456C93.3492 31.3706 82.3592 35.9608 76.2665 46.1062C70.1792 56.2462 71.2979 68.0972 78.7672 72.5722Z" fill="#330C0C"/>
<path opacity="0.538" d="M78.9702 71.7935C86.1488 76.0985 96.7165 71.6838 102.568 61.9332C108.419 52.1826 107.345 40.7922 100.166 36.4928C92.9874 32.1878 82.4196 36.6024 76.5682 46.3531C70.7167 56.0982 71.7916 67.4885 78.9702 71.7935Z" fill="#310D0D"/>
<path opacity="0.577" d="M79.173 71.0092C86.0665 75.1387 96.2065 70.8996 101.822 61.5438C107.438 52.188 106.407 41.2583 99.5133 37.1288C92.6199 32.9994 82.4799 37.2385 76.8643 46.5943C71.2486 55.9446 72.2796 66.8798 79.173 71.0092Z" fill="#2F0E0E"/>
<path opacity="0.615" d="M79.3759 70.225C85.9787 74.179 95.6909 70.1208 101.076 61.1599C106.456 52.199 105.469 41.7245 98.8662 37.765C92.2634 33.811 82.5512 37.8692 77.1658 46.8301C71.786 55.7965 72.7731 66.271 79.3759 70.225Z" fill="#2D0F0F"/>
<path opacity="0.654" d="M79.5789 69.4409C85.891 73.2248 95.1809 69.3421 100.325 60.7706C105.469 52.199 104.526 42.1852 98.2136 38.4012C91.9015 34.6172 82.6115 38.4999 77.4675 47.0715C72.318 55.6485 73.2667 65.6623 79.5789 69.4409Z" fill="#2B1010"/>
<path opacity="0.692" d="M79.7818 68.662C85.8032 72.2705 94.6709 68.5688 99.5792 60.3921C104.487 52.2154 103.588 42.6567 97.561 39.0482C91.5341 35.4397 82.6719 39.1414 77.7636 47.3181C72.8554 55.4948 73.7548 65.0535 79.7818 68.662Z" fill="#291111"/>
<path opacity="0.731" d="M79.9846 67.8778C85.7209 71.3163 94.1554 67.7901 98.8278 60.0028C103.5 52.2154 102.645 43.1229 96.9083 39.6844C91.172 36.2459 82.7376 39.7721 78.0652 47.5595C73.3873 55.3468 74.2483 64.4394 79.9846 67.8778Z" fill="#271212"/>
<path opacity="0.769" d="M80.1821 67.0937C85.6277 70.3567 93.6399 67.0059 98.0765 59.6189C102.513 52.2264 101.696 43.5891 96.2558 40.3261C90.8101 37.0631 82.798 40.4138 78.3614 47.8008C73.9248 55.1933 74.7419 63.8307 80.1821 67.0937Z" fill="#251212"/>
<path opacity="0.808" d="M80.385 66.3149C85.54 69.4024 93.1244 66.2326 97.3306 59.235C101.531 52.2373 100.758 44.0551 95.6032 40.9676C90.4482 37.8801 82.8637 41.0499 78.6575 48.0475C74.4567 55.0452 75.23 63.2219 80.385 66.3149Z" fill="#231313"/>
<path opacity="0.846" d="M80.5879 65.5307C85.4523 68.4482 92.6144 65.4539 96.5794 58.8456C100.544 52.2374 99.815 44.5213 94.9506 41.6038C90.0863 38.6863 82.9241 41.6806 78.9592 48.2889C74.9942 54.8971 75.7236 62.6132 80.5879 65.5307Z" fill="#211414"/>
<path opacity="0.885" d="M80.7908 64.7465C85.3699 67.4885 92.1043 64.6752 95.8335 58.4618C99.5626 52.2484 98.8771 44.9875 94.3034 42.2455C89.7243 39.5034 82.9899 42.3168 79.2607 48.5302C75.5261 54.7436 76.2171 62.0045 80.7908 64.7465Z" fill="#1F1515"/>
<path opacity="0.923" d="M80.9937 63.9622C85.2822 66.5287 91.5888 63.8964 95.0877 58.0723C98.581 52.2537 97.9394 45.4481 93.6508 42.8815C89.3623 40.315 83.0557 42.9473 79.5569 48.7714C76.0635 54.5954 76.7052 61.3956 80.9937 63.9622Z" fill="#1D1616"/>
<path opacity="0.962" d="M81.1966 63.1835C85.1945 65.58 91.0789 63.1231 94.3364 57.694C97.5939 52.2648 96.9961 45.9252 92.9983 43.5287C89.0004 41.1322 83.116 43.589 79.8585 49.0182C76.5955 54.4419 77.1988 60.787 81.1966 63.1835Z" fill="#1B1717"/>
<path d="M81.3995 62.3993C85.1067 64.6204 90.5688 62.339 93.5905 57.3046C96.6122 52.2703 96.0584 46.3859 92.3512 44.1649C88.6439 41.9439 83.1818 44.2252 80.1601 49.2596C77.1329 54.2939 77.6868 60.1783 81.3995 62.3993Z" fill="#191818"/>
</g>
<g opacity="0.26">
<path opacity="0.038" d="M33.2443 20.1338C22.5504 21.609 15.4925 34.5788 17.4777 49.1115C19.4684 63.6442 29.7455 74.2284 40.4448 72.7532C51.1387 71.278 58.1967 58.3082 56.2115 43.7755C54.2262 29.2428 43.9382 18.6641 33.2443 20.1338Z" fill="#4A0101"/>
<path opacity="0.077" d="M33.524 20.7589C23.1153 22.1903 16.2438 34.82 18.1742 48.9688C20.1101 63.1122 30.1184 73.4222 40.5326 71.9853C50.9468 70.554 57.8183 57.9243 55.8824 43.7754C53.9466 29.6266 43.9382 19.3276 33.524 20.7589Z" fill="#480202"/>
<path opacity="0.115" d="M33.8092 21.3842C23.6802 22.7771 16.9896 35.0669 18.8761 48.8263C20.7572 62.5858 30.4968 72.6106 40.6258 71.2177C50.7549 69.8247 57.4399 57.535 55.5589 43.7755C53.6778 30.0161 43.9382 19.9858 33.8092 21.3842Z" fill="#460303"/>
<path opacity="0.154" d="M34.0888 22.0039C24.2395 23.3639 17.7409 35.3082 19.5726 48.6838C21.4042 62.0593 30.8697 71.8045 40.719 70.4499C50.5684 69.0953 57.067 57.1511 55.2353 43.7701C53.4036 30.3945 43.9382 20.6493 34.0888 22.0039Z" fill="#440404"/>
<path opacity="0.192" d="M34.3685 22.629C24.8044 23.9452 18.4922 35.5494 20.2691 48.5411C22.0459 61.5328 31.2426 70.9983 40.8068 69.6821C50.371 68.3659 56.6831 56.7617 54.9063 43.77C53.1294 30.7783 43.9327 21.3129 34.3685 22.629Z" fill="#420505"/>
<path opacity="0.231" d="M34.6536 23.2542C25.3746 24.532 19.249 35.7907 20.9709 48.3985C22.6984 61.0063 31.6209 70.1921 40.8999 68.9143C50.1789 67.6365 56.3046 56.3778 54.5826 43.77C52.8551 31.1622 43.9326 21.9764 34.6536 23.2542Z" fill="#400606"/>
<path opacity="0.269" d="M34.9334 23.8794C25.9341 25.1188 19.9949 36.0321 21.6675 48.256C23.3401 60.4799 31.9885 69.386 40.9878 68.1466C49.9871 66.9072 55.9263 55.994 54.2537 43.7701C52.581 31.5461 43.9327 22.6401 34.9334 23.8794Z" fill="#3E0606"/>
<path opacity="0.308" d="M35.213 24.4991C26.4989 25.7001 20.7461 36.2733 22.3639 48.1134C23.9817 59.9534 32.3613 68.5798 41.0809 67.3788C49.7951 66.1778 55.5478 55.6046 53.93 43.7645C52.3067 31.9245 43.9326 23.2981 35.213 24.4991Z" fill="#3C0707"/>
<path opacity="0.346" d="M35.4983 25.1242C27.0638 26.2868 21.4975 36.5146 23.0659 47.9707C24.6344 59.4269 32.7398 67.7736 41.1742 66.611C49.6087 65.4484 55.175 55.2206 53.6066 43.7645C52.0381 32.3083 43.9272 23.9616 35.4983 25.1242Z" fill="#3A0808"/>
<path opacity="0.385" d="M35.7779 25.7495C27.6286 26.8737 22.2487 36.756 23.7623 47.8282C25.2759 58.9005 33.1126 66.9675 41.2619 65.8433C49.4112 64.7191 54.791 54.8368 53.2774 43.7646C51.7638 32.6923 43.9271 24.6253 35.7779 25.7495Z" fill="#380909"/>
<path opacity="0.423" d="M36.0576 26.3746C28.188 27.4605 23.0001 37.0027 24.4589 47.6911C25.9231 58.3795 33.4856 66.1668 41.3497 65.081C49.2193 63.9951 54.4072 54.4529 52.9485 43.7645C51.4897 33.0761 43.9272 25.2888 36.0576 26.3746Z" fill="#360A0A"/>
<path opacity="0.462" d="M36.3372 26.9944C28.7528 28.0364 23.7459 37.2386 25.1553 47.5431C26.5647 57.8476 33.8584 65.3553 41.4429 64.3078C49.0273 63.2658 54.0342 54.0636 52.6248 43.7591C51.2154 33.4601 43.9217 25.9524 36.3372 26.9944Z" fill="#340B0B"/>
<path opacity="0.5" d="M36.6225 27.6195C29.3178 28.6231 24.5028 37.4798 25.8573 47.4004C27.2119 57.321 34.2369 64.549 41.5362 63.5399C48.8409 62.5364 53.6559 53.6796 52.3014 43.759C50.9413 33.8384 43.9217 26.6159 36.6225 27.6195Z" fill="#330C0C"/>
<path opacity="0.538" d="M36.9021 28.2447C29.8825 29.2099 25.2485 37.7266 26.5537 47.2633C27.8589 56.8001 34.6043 63.7483 41.6238 62.7777C48.6434 61.8125 53.2774 53.2958 51.9722 43.759C50.667 34.2223 43.9217 27.274 36.9021 28.2447Z" fill="#310D0D"/>
<path opacity="0.577" d="M37.1818 28.8645C30.4474 29.7913 25.9998 37.9625 27.2502 47.1153C28.5006 56.2682 34.9772 62.9313 41.7171 62.0045C48.4515 61.0777 52.8991 52.9065 51.6487 43.7536C50.3983 34.6062 43.9217 27.9377 37.1818 28.8645Z" fill="#2F0E0E"/>
<path opacity="0.615" d="M37.4669 29.4896C31.0122 30.378 26.7566 38.2037 27.9521 46.9727C29.1531 55.7417 35.3556 62.1251 41.8103 61.2367C48.265 60.3483 52.5206 52.5226 51.3251 43.7536C50.1241 34.9901 43.9162 28.6012 37.4669 29.4896Z" fill="#2D0F0F"/>
<path opacity="0.654" d="M37.7467 30.1147C31.5771 30.9648 27.5025 38.4505 28.6486 46.8301C29.7948 55.2152 35.7285 61.3189 41.8981 60.4689C48.0676 59.6189 52.1423 52.1332 50.9961 43.7535C49.8499 35.3739 43.9162 29.2647 37.7467 30.1147Z" fill="#2B1010"/>
<path opacity="0.692" d="M38.0263 30.7399C32.1365 31.5516 28.2538 38.6918 29.3451 46.693C30.4419 54.6942 36.1014 60.5183 41.9858 59.7066C47.8757 58.895 51.7583 51.7548 50.667 43.7536C49.5757 35.7523 43.9162 29.9283 38.0263 30.7399Z" fill="#291111"/>
<path opacity="0.731" d="M38.3115 31.3596C32.7068 32.1328 29.0051 38.9276 30.0471 46.5449C31.089 54.1622 36.4799 59.7066 42.0845 58.9334C47.6892 58.1601 51.391 51.3654 50.349 43.748C49.3015 36.1362 43.9162 30.5918 38.3115 31.3596Z" fill="#271212"/>
<path opacity="0.769" d="M38.5912 31.9848C33.2662 32.7196 29.7564 39.1744 30.7435 46.4023C31.7306 53.6303 36.8473 58.9004 42.1723 58.1656C47.4973 57.4307 51.007 50.976 50.0199 43.748C49.0273 36.5201 43.9107 31.2499 38.5912 31.9848Z" fill="#251212"/>
<path opacity="0.808" d="M38.8709 32.6099C33.8311 33.3064 30.5077 39.4156 31.44 46.2652C32.3778 53.1093 37.2202 58.0997 42.26 57.4033C47.2999 56.7068 50.6232 50.5976 49.6909 43.748C48.7586 36.9039 43.9107 31.9135 38.8709 32.6099Z" fill="#231313"/>
<path opacity="0.846" d="M39.1506 33.2352C34.3959 33.8878 31.2536 39.6625 32.1365 46.1227C33.0194 52.5829 37.5931 57.2937 42.3533 56.6356C47.1134 55.9775 50.2503 50.2083 49.3674 43.7481C48.4844 37.2879 43.9108 32.5771 39.1506 33.2352Z" fill="#211414"/>
<path opacity="0.885" d="M39.4358 33.8549C34.9608 34.4691 32.0104 39.8983 32.8385 45.9746C33.672 52.0509 37.9715 56.4821 42.4465 55.8624C46.9215 55.2481 49.8719 49.8189 49.0438 43.7426C48.2102 37.6663 43.9107 33.2407 39.4358 33.8549Z" fill="#1F1515"/>
<path opacity="0.923" d="M39.7155 34.48C35.5257 35.0559 32.7562 40.1396 33.535 45.8375C34.3137 51.5299 38.3445 55.6813 42.5343 55.1C46.7241 54.5187 49.4935 49.4405 48.7148 43.7426C47.936 38.0502 43.9053 33.9042 39.7155 34.48Z" fill="#1D1616"/>
<path opacity="0.962" d="M39.9951 35.1052C36.085 35.6426 33.5075 40.3863 34.2314 45.6949C34.9553 51.0034 38.7173 54.8751 42.622 54.3322C46.5321 53.7948 49.1096 49.0511 48.3857 43.7425C47.6618 38.434 43.9052 34.5677 39.9951 35.1052Z" fill="#1B1717"/>
<path d="M40.2803 35.7249C36.6554 36.2239 34.2589 40.6221 34.9334 45.5468C35.6079 50.4715 39.0903 54.058 42.7207 53.559C46.3457 53.0599 48.7422 48.6617 48.0677 43.7371C47.3876 38.8179 43.9053 35.2258 40.2803 35.7249Z" fill="#191818"/>
</g>
<path d="M97.0676 22.8868C93.2123 23.6436 90.6732 27.2192 91.3916 30.8826C92.11 34.5404 95.8172 36.8931 99.667 36.1363C103.522 35.3795 106.061 31.8039 105.343 28.1405C104.625 24.4882 100.917 22.1355 97.0676 22.8868ZM99.0692 33.0981C96.9853 33.5094 94.9836 32.2316 94.5943 30.2574C94.2049 28.2831 95.5814 26.3418 97.6653 25.936C99.7493 25.5247 101.751 26.8024 102.14 28.7767C102.524 30.751 101.153 32.6868 99.0692 33.0981Z" fill="url(#paint11_linear_18_429)"/>
<path d="M137.496 57.025C140.479 72.2267 129.917 87.0994 113.909 90.2418C97.9011 93.3842 82.5019 83.6061 79.5186 68.4044C76.5353 53.2026 87.0975 38.3299 103.105 35.1875C119.113 32.0452 134.513 41.8232 137.496 57.025Z" fill="url(#paint12_linear_18_429)"/>
<path d="M136.783 53.3945C139.766 68.5962 129.204 83.469 113.196 86.6113C97.1882 89.7537 81.789 79.9756 78.8057 64.7739C75.8224 49.5721 86.3846 34.6994 102.393 31.557C118.4 28.4147 133.8 38.1927 136.783 53.3945Z" fill="url(#paint13_linear_18_429)"/>
<path d="M132.138 67.1321C132.791 64.0829 132.851 60.8748 132.22 57.6556C129.599 44.291 116.059 35.6921 101.987 38.4505C92.6584 40.2822 85.436 46.6382 82.3813 54.612C84.4324 45.0094 92.3568 36.9698 103.045 34.8749C117.117 32.1165 130.657 40.7154 133.279 54.0801C134.167 58.5934 133.695 63.0739 132.138 67.1321Z" fill="url(#paint14_linear_18_429)"/>
<path d="M132.22 57.6556C132.851 60.8802 132.791 64.0884 132.138 67.132C129.083 75.1003 121.866 81.4509 112.543 83.2825C98.4659 86.0465 84.9313 77.4475 82.3045 64.0774C81.6738 60.8583 81.7341 57.6556 82.3812 54.612C85.4358 46.6382 92.6583 40.2822 101.987 38.4505C116.064 35.692 129.599 44.291 132.22 57.6556Z" fill="url(#paint15_linear_18_429)"/>
<path d="M97.753 21.0167C93.8977 21.7735 91.3586 25.3491 92.077 29.0124C92.7954 32.6703 96.5026 35.0229 100.352 34.2661C104.208 33.5093 106.747 29.9338 106.028 26.2704C105.31 22.6126 101.608 20.2599 97.753 21.0167ZM99.7547 31.2225C97.6707 31.6338 95.6691 30.356 95.2797 28.3818C94.8903 26.402 96.2668 24.4662 98.3507 24.0603C100.435 23.649 102.436 24.9268 102.826 26.9011C103.215 28.8808 101.839 30.8167 99.7547 31.2225Z" fill="url(#paint16_linear_18_429)"/>
<path d="M124.411 58.6263C124.844 60.8418 124.806 63.0409 124.356 65.1358C122.261 70.6089 117.298 74.9742 110.898 76.23C101.23 78.1275 91.9344 72.2267 90.1302 63.0409C89.6969 60.8308 89.7353 58.6317 90.185 56.5368C92.2799 51.0583 97.243 46.693 103.648 45.4371C113.317 43.5397 122.612 49.446 124.411 58.6263Z" stroke="#F9F9F9" stroke-miterlimit="10"/>
<path d="M120.764 59.0925C121.104 60.8364 121.071 62.5694 120.72 64.2146C119.069 68.525 115.165 71.958 110.125 72.9452C102.513 74.4368 95.1974 69.7918 93.7825 62.5639C93.4425 60.8254 93.4754 59.0925 93.8264 57.4473C95.4771 53.1368 99.3817 49.6983 104.422 48.7112C112.028 47.2195 119.344 51.87 120.764 59.0925Z" stroke="#F9F9F9" stroke-miterlimit="10"/>
<path d="M111.244 63.6772L121.428 58.0231L109.867 56.6411L104.295 45.6511L103.286 57.9299L93.108 63.5784L104.668 64.9659L110.24 75.9504L111.244 63.6772Z" fill="#F2F2F2" stroke="#DEDEDE" stroke-miterlimit="10"/>
<path d="M109.867 56.641L107.268 60.8034L121.428 58.023L109.867 56.641Z" fill="url(#paint17_linear_18_429)"/>
<path d="M111.244 63.6771L107.268 60.8035L110.24 75.9504L111.244 63.6771Z" fill="url(#paint18_linear_18_429)"/>
<path d="M93.108 63.5784L107.268 60.8035L104.668 64.9659L93.108 63.5784Z" fill="url(#paint19_linear_18_429)"/>
<path d="M103.286 57.9298L107.268 60.8034L104.241 45.3768L103.286 57.9298Z" fill="url(#paint20_linear_18_429)"/>
<path d="M109.867 56.641H106.451L107.268 60.8034L109.867 56.641Z" fill="url(#paint21_linear_18_429)"/>
<path d="M111.096 63.5674L107.268 60.8034L111.096 60.0521V63.5674Z" fill="url(#paint22_linear_18_429)"/>
<path d="M104.668 64.9659H108.156L107.268 60.8035L104.668 64.9659Z" fill="url(#paint23_linear_18_429)"/>
<path d="M103.286 57.9298L102.848 61.637L107.268 60.8034L103.286 57.9298Z" fill="url(#paint24_linear_18_429)"/>
<path d="M101.795 40.7538L102.409 42.1796C102.546 42.5142 102.683 42.8597 102.815 43.2052H102.826C102.82 42.8377 102.848 42.4538 102.87 42.0974L102.974 40.5235L103.604 40.4028L104.274 41.7793C104.444 42.1467 104.597 42.4867 104.734 42.8268H104.745C104.723 42.4593 104.723 42.0919 104.729 41.6916L104.784 40.1725L105.546 40.0244L105.228 43.4903L104.509 43.6329L103.884 42.3716C103.725 42.048 103.593 41.7519 103.445 41.368H103.434C103.451 41.7848 103.434 42.1248 103.407 42.4648L103.281 43.8742L102.557 44.0168L101.01 40.9183L101.795 40.7538Z" fill="white"/>
<path d="M111.436 79.6465L109.84 79.9591L110.103 81.2917L111.891 80.9408L112.022 81.6208L109.461 82.1253L108.573 77.59L111.035 77.1074L111.167 77.7874L109.478 78.1165L109.708 79.2901L111.304 78.9775L111.436 79.6465Z" fill="white"/>
<path d="M125.601 59.2953L124.712 54.76L125.59 54.59L127.065 56.323C127.449 56.7727 127.794 57.2498 128.085 57.6995H128.096C127.926 57.1017 127.794 56.5204 127.657 55.8294L127.345 54.25L128.063 54.1074L128.952 58.6427L128.151 58.8018L126.654 57.0249C126.286 56.5807 125.891 56.0762 125.584 55.6046L125.568 55.6155C125.716 56.1968 125.837 56.7946 125.985 57.5404L126.303 59.1637L125.601 59.2953Z" fill="white"/>
<path d="M86.7849 65.9749C87.0646 66.0791 87.4704 66.1394 87.8653 66.0626C88.3643 65.9639 88.5892 65.6623 88.5179 65.2894C88.4521 64.9439 88.1998 64.7849 87.613 64.6861C86.8617 64.5545 86.3407 64.2419 86.2091 63.5893C86.061 62.849 86.5326 62.169 87.4485 61.988C87.9091 61.9002 88.2656 61.9386 88.5124 62.0154L88.4521 62.7174C88.2821 62.657 87.964 62.5912 87.5691 62.668C87.0811 62.7667 86.922 63.0903 86.9714 63.3535C87.0427 63.7045 87.3169 63.8197 87.9311 63.9403C88.7263 64.0939 89.1595 64.4174 89.2911 65.07C89.4337 65.7994 89.0443 66.5288 87.9475 66.7427C87.5033 66.8304 87.0098 66.7865 86.7465 66.6823L86.7849 65.9749Z" fill="white"/>
<path d="M114.353 50.296L116.24 47.4333" stroke="#F9F9F9" stroke-miterlimit="10"/>
<path d="M119.141 67.1704L122.009 69.3585" stroke="#F9F9F9" stroke-miterlimit="10"/>
<path d="M99.2721 70.7898L97.1333 73.4989" stroke="#F9F9F9" stroke-miterlimit="10"/>
<path d="M96.7549 52.5062L93.98 50.6306" stroke="#F9F9F9" stroke-miterlimit="10"/>
<path d="M118.038 48.6071L117.029 50.2084" stroke="#F9F9F9" stroke-miterlimit="10"/>
<path d="M119.618 49.9342L118.461 51.2778" stroke="#F9F9F9" stroke-miterlimit="10"/>
<path d="M120.868 51.2614L119.793 52.3856" stroke="#F9F9F9" stroke-miterlimit="10"/>
<path d="M122.217 52.9065L121.005 53.8004" stroke="#F9F9F9" stroke-miterlimit="10"/>
<path d="M107.641 45.174L107.701 47.1263" stroke="#F9F9F9" stroke-miterlimit="10"/>
<path d="M109.626 45.3057L109.429 47.1318" stroke="#F9F9F9" stroke-miterlimit="10"/>
<path d="M111.348 45.6403L111.096 47.2306" stroke="#F9F9F9" stroke-miterlimit="10"/>
<path d="M113.322 46.1721L112.84 47.6583" stroke="#F9F9F9" stroke-miterlimit="10"/>
<path d="M122.639 67.6312L121.131 66.5782" stroke="#F9F9F9" stroke-miterlimit="10"/>
<path d="M123.566 65.7611L122.02 65.0043" stroke="#F9F9F9" stroke-miterlimit="10"/>
<path d="M124.203 64.0227L122.81 63.4359" stroke="#F9F9F9" stroke-miterlimit="10"/>
<path d="M124.811 61.9552L123.38 61.6371" stroke="#F9F9F9" stroke-miterlimit="10"/>
<path d="M114.523 75.0731L113.849 73.2524" stroke="#F9F9F9" stroke-miterlimit="10"/>
<path d="M116.267 74.1353L115.406 72.5339" stroke="#F9F9F9" stroke-miterlimit="10"/>
<path d="M117.698 73.1209L116.876 71.7554" stroke="#F9F9F9" stroke-miterlimit="10"/>
<path d="M119.283 71.8101L118.291 70.6475" stroke="#F9F9F9" stroke-miterlimit="10"/>
<path d="M92.7516 52.9504L94.2981 54.1295" stroke="#F9F9F9" stroke-miterlimit="10"/>
<path d="M91.7864 54.6943L93.3713 55.5882" stroke="#F9F9F9" stroke-miterlimit="10"/>
<path d="M91.1228 56.3341L92.5487 57.047" stroke="#F9F9F9" stroke-miterlimit="10"/>
<path d="M90.4867 58.3083L91.9564 58.758" stroke="#F9F9F9" stroke-miterlimit="10"/>
<path d="M101.137 46.4301L101.822 48.2782" stroke="#F9F9F9" stroke-miterlimit="10"/>
<path d="M99.338 47.1813L100.215 48.8375" stroke="#F9F9F9" stroke-miterlimit="10"/>
<path d="M97.8573 48.0424L98.7018 49.4572" stroke="#F9F9F9" stroke-miterlimit="10"/>
<path d="M96.223 49.172L97.2376 50.4114" stroke="#F9F9F9" stroke-miterlimit="10"/>
<path d="M95.6801 72.2488L96.6836 70.7791" stroke="#F9F9F9" stroke-miterlimit="10"/>
<path d="M94.1062 70.7901L95.2578 69.5891" stroke="#F9F9F9" stroke-miterlimit="10"/>
<path d="M92.8558 69.3642L93.9252 68.3716" stroke="#F9F9F9" stroke-miterlimit="10"/>
<path d="M91.5067 67.6147L92.7132 66.8634" stroke="#F9F9F9" stroke-miterlimit="10"/>
<path d="M106.061 76.6526L105.996 74.7332" stroke="#F9F9F9" stroke-miterlimit="10"/>
<path d="M104.082 76.3236L104.274 74.5522" stroke="#F9F9F9" stroke-miterlimit="10"/>
<path d="M102.36 75.8246L102.612 74.2891" stroke="#F9F9F9" stroke-miterlimit="10"/>
<path d="M100.385 75.1059L100.873 73.6965" stroke="#F9F9F9" stroke-miterlimit="10"/>
<path d="M119.426 42.207L117.276 45.2452" stroke="#F9F9F9" stroke-miterlimit="10"/>
<path d="M95.6306 76.0381L92.9983 79.334" stroke="#F9F9F9" stroke-miterlimit="10"/>
<path d="M123.912 70.6968L127.893 73.181" stroke="#F9F9F9" stroke-miterlimit="10"/>
<path d="M91.8137 49.2595L87.2729 46.6985" stroke="#F9F9F9" stroke-miterlimit="10"/>
<path d="M10.4636 36.9369C10.4855 37.3592 10.5294 37.7815 10.5787 38.1982C12.3227 53.8332 23.2633 76.5097 26.6854 81.3138C27.1789 82.0047 30.2281 79.7782 30.2281 79.7782C30.2281 79.7782 47.596 57.7598 49.3619 40.0573C49.4057 39.646 49.4441 39.2292 49.4661 38.807C49.5757 36.9534 49.4441 35.4672 49.137 34.2881C47.415 25.1736 39.4138 17.9457 29.8387 17.4905C20.2636 17.0353 12.3446 23.501 10.7378 32.4565C10.4416 33.6026 10.332 35.0723 10.4636 36.9369ZM18.6842 36.3391C18.6458 30.1532 23.6582 25.382 29.8826 25.6782C36.1069 25.9743 41.1852 31.228 41.229 37.414C41.2674 43.6 36.255 48.3711 30.0251 48.0695C23.8008 47.7734 18.7225 42.5197 18.6842 36.3391Z" fill="url(#paint25_linear_18_429)"/>
<path d="M6.92086 38.4724C6.94279 38.8947 6.98666 39.317 7.03602 39.7338C9.03221 57.6172 26.6853 81.3083 26.6853 81.3083C26.6853 81.3083 44.0533 59.2899 45.8191 41.5874C45.863 41.1761 45.9014 40.7593 45.9233 40.337C46.033 38.4834 45.9014 36.9972 45.5943 35.8182C43.8723 26.7037 35.8711 19.4757 26.296 19.0206C16.7208 18.5599 8.80188 25.0311 7.19506 33.9865C6.89892 35.1382 6.78924 36.6134 6.92086 38.4724ZM15.1414 37.8747C15.103 31.6887 20.1155 26.9176 26.3453 27.2192C32.5697 27.5153 37.6479 32.769 37.6918 38.955C37.7302 45.141 32.7178 49.9122 26.4879 49.6105C20.258 49.3089 15.1798 44.0552 15.1414 37.8747Z" fill="url(#paint26_linear_18_429)"/>
<path d="M14.4669 38.083C14.434 33.0432 17.7628 28.9412 22.3639 27.7621C18.1193 29.1605 15.114 33.0871 15.1415 37.8747C15.1798 44.0606 20.2581 49.3144 26.4824 49.6105C27.6341 49.6653 28.7419 49.5447 29.7893 49.276C28.5499 49.6818 27.2118 49.8847 25.8079 49.8189C19.5835 49.5227 14.5053 44.269 14.4669 38.083Z" fill="url(#paint27_linear_18_429)"/>
<path d="M45.1445 41.8012C45.1884 41.3899 45.2268 40.9731 45.2487 40.5509C45.3584 38.6973 45.2268 37.2111 44.9197 36.032C43.1977 26.9175 35.1965 19.6896 25.6214 19.2344C23.3894 19.1302 21.2506 19.4099 19.2544 20.0022C21.437 19.2618 23.8061 18.9054 26.2959 19.026C35.871 19.4867 43.8777 26.7146 45.5997 35.8236C45.9068 37.0082 46.033 38.4889 45.9288 40.3425C45.9123 40.7647 45.8739 41.1815 45.8246 41.5928C44.0587 59.3008 26.6908 81.3137 26.6908 81.3137C26.6908 81.3137 26.5975 81.1876 26.4385 80.9737C29.1092 77.4639 43.5377 57.8585 45.1445 41.8012Z" fill="url(#paint28_linear_18_429)"/>
<defs>
<linearGradient id="paint0_linear_18_429" x1="27.053" y1="41.161" x2="107.337" y2="41.161" gradientUnits="userSpaceOnUse">
<stop stop-color="#3ABAF9"/>
<stop offset="1" stop-color="#267EBD"/>
</linearGradient>
<linearGradient id="paint1_linear_18_429" x1="105.282" y1="45.1168" x2="40.342" y2="65.3733" gradientUnits="userSpaceOnUse">
<stop stop-color="#0D5E5E"/>
<stop offset="1" stop-color="#267EBD"/>
</linearGradient>
<linearGradient id="paint2_linear_18_429" x1="95.1934" y1="12.7743" x2="30.2533" y2="33.0308" gradientUnits="userSpaceOnUse">
<stop stop-color="#0D5E5E"/>
<stop offset="1" stop-color="#267EBD"/>
</linearGradient>
<linearGradient id="paint3_linear_18_429" x1="103.931" y1="40.7873" x2="38.9916" y2="61.0438" gradientUnits="userSpaceOnUse">
<stop stop-color="#0D5E5E"/>
<stop offset="1" stop-color="#267EBD"/>
</linearGradient>
<linearGradient id="paint4_linear_18_429" x1="106.138" y1="47.8614" x2="41.1982" y2="68.1179" gradientUnits="userSpaceOnUse">
<stop stop-color="#0D5E5E"/>
<stop offset="1" stop-color="#267EBD"/>
</linearGradient>
<linearGradient id="paint5_linear_18_429" x1="97.6291" y1="20.5829" x2="32.6892" y2="40.8394" gradientUnits="userSpaceOnUse">
<stop stop-color="#0D5E5E"/>
<stop offset="1" stop-color="#267EBD"/>
</linearGradient>
<linearGradient id="paint6_linear_18_429" x1="104.562" y1="42.8096" x2="39.6225" y2="63.0661" gradientUnits="userSpaceOnUse">
<stop stop-color="#0D5E5E"/>
<stop offset="1" stop-color="#267EBD"/>
</linearGradient>
<linearGradient id="paint7_linear_18_429" x1="104.923" y1="43.9656" x2="39.983" y2="64.2221" gradientUnits="userSpaceOnUse">
<stop stop-color="#0D5E5E"/>
<stop offset="1" stop-color="#267EBD"/>
</linearGradient>
<linearGradient id="paint8_linear_18_429" x1="106.955" y1="50.4812" x2="42.0153" y2="70.7376" gradientUnits="userSpaceOnUse">
<stop stop-color="#0D5E5E"/>
<stop offset="1" stop-color="#267EBD"/>
</linearGradient>
<linearGradient id="paint9_linear_18_429" x1="107.886" y1="53.464" x2="42.9459" y2="73.7205" gradientUnits="userSpaceOnUse">
<stop stop-color="#0D5E5E"/>
<stop offset="1" stop-color="#267EBD"/>
</linearGradient>
<linearGradient id="paint10_linear_18_429" x1="110.853" y1="62.978" x2="45.9133" y2="83.2344" gradientUnits="userSpaceOnUse">
<stop stop-color="#0D5E5E"/>
<stop offset="1" stop-color="#267EBD"/>
</linearGradient>
<linearGradient id="paint11_linear_18_429" x1="103.791" y1="27.5315" x2="93.8815" y2="31.1549" gradientUnits="userSpaceOnUse">
<stop stop-color="#AFAFAF"/>
<stop offset="1" stop-color="#6F6F6F"/>
</linearGradient>
<linearGradient id="paint12_linear_18_429" x1="100.104" y1="65.4781" x2="130.653" y2="55.4336" gradientUnits="userSpaceOnUse">
<stop stop-color="#AFAFAF"/>
<stop offset="1" stop-color="#6F6F6F"/>
</linearGradient>
<linearGradient id="paint13_linear_18_429" x1="130.352" y1="50.8357" x2="89.1771" y2="65.8917" gradientUnits="userSpaceOnUse">
<stop stop-color="#E6E6E6"/>
<stop offset="1" stop-color="#F9F9F9"/>
</linearGradient>
<linearGradient id="paint14_linear_18_429" x1="145.028" y1="61.1399" x2="92.4112" y2="42.6528" gradientUnits="userSpaceOnUse">
<stop stop-color="#5BDE8E"/>
<stop offset="1" stop-color="#0BA2B3"/>
</linearGradient>
<linearGradient id="paint15_linear_18_429" x1="108.545" y1="46.5021" x2="105.775" y2="77.4631" gradientUnits="userSpaceOnUse">
<stop stop-color="#5BDE8E"/>
<stop offset="1" stop-color="#0BA2B3"/>
</linearGradient>
<linearGradient id="paint16_linear_18_429" x1="104.479" y1="25.6594" x2="94.5704" y2="29.2828" gradientUnits="userSpaceOnUse">
<stop stop-color="#E6E6E6"/>
<stop offset="1" stop-color="#F9F9F9"/>
</linearGradient>
<linearGradient id="paint17_linear_18_429" x1="106.916" y1="59.0457" x2="121.076" y2="56.2683" gradientUnits="userSpaceOnUse">
<stop stop-color="#B92222"/>
<stop offset="0.247" stop-color="#DD2F2F"/>
<stop offset="0.855" stop-color="#FF6757"/>
</linearGradient>
<linearGradient id="paint18_linear_18_429" x1="108.747" y1="68.3802" x2="112.036" y2="67.7352" gradientUnits="userSpaceOnUse">
<stop stop-color="#B92222"/>
<stop offset="0.247" stop-color="#DD2F2F"/>
<stop offset="0.855" stop-color="#FF6757"/>
</linearGradient>
<linearGradient id="paint19_linear_18_429" x1="93.4471" y1="65.3417" x2="107.607" y2="62.5642" gradientUnits="userSpaceOnUse">
<stop stop-color="#B92222"/>
<stop offset="0.247" stop-color="#DD2F2F"/>
<stop offset="0.855" stop-color="#FF6757"/>
</linearGradient>
<linearGradient id="paint20_linear_18_429" x1="102.46" y1="53.7364" x2="105.748" y2="53.0914" gradientUnits="userSpaceOnUse">
<stop stop-color="#B92222"/>
<stop offset="0.247" stop-color="#DD2F2F"/>
<stop offset="0.855" stop-color="#FF6757"/>
</linearGradient>
<linearGradient id="paint21_linear_18_429" x1="106.45" y1="58.7201" x2="109.865" y2="58.7201" gradientUnits="userSpaceOnUse">
<stop stop-color="#AFAFAF"/>
<stop offset="1" stop-color="#6F6F6F"/>
</linearGradient>
<linearGradient id="paint22_linear_18_429" x1="107.267" y1="61.8096" x2="111.098" y2="61.8096" gradientUnits="userSpaceOnUse">
<stop stop-color="#AFAFAF"/>
<stop offset="1" stop-color="#6F6F6F"/>
</linearGradient>
<linearGradient id="paint23_linear_18_429" x1="104.669" y1="62.8836" x2="108.157" y2="62.8836" gradientUnits="userSpaceOnUse">
<stop stop-color="#AFAFAF"/>
<stop offset="1" stop-color="#6F6F6F"/>
</linearGradient>
<linearGradient id="paint24_linear_18_429" x1="102.846" y1="59.7826" x2="107.267" y2="59.7826" gradientUnits="userSpaceOnUse">
<stop stop-color="#AFAFAF"/>
<stop offset="1" stop-color="#6F6F6F"/>
</linearGradient>
<linearGradient id="paint25_linear_18_429" x1="10.331" y1="52.5969" x2="49.4089" y2="52.5969" gradientUnits="userSpaceOnUse">
<stop stop-color="#B92222"/>
<stop offset="0.247" stop-color="#DD2F2F"/>
<stop offset="0.855" stop-color="#FF6757"/>
</linearGradient>
<linearGradient id="paint26_linear_18_429" x1="39.6196" y1="65.6105" x2="14.7892" y2="29.5144" gradientUnits="userSpaceOnUse">
<stop stop-color="#B92222"/>
<stop offset="0.247" stop-color="#DD2F2F"/>
<stop offset="0.855" stop-color="#FF6757"/>
</linearGradient>
<linearGradient id="paint27_linear_18_429" x1="25.1322" y1="22.731" x2="16.7681" y2="65.0934" gradientUnits="userSpaceOnUse">
<stop stop-color="#FFB215"/>
<stop offset="1" stop-color="#FF6757"/>
</linearGradient>
<linearGradient id="paint28_linear_18_429" x1="33.4912" y1="24.381" x2="25.1271" y2="66.7438" gradientUnits="userSpaceOnUse">
<stop stop-color="#FFB215"/>
<stop offset="1" stop-color="#FF6757"/>
</linearGradient>
</defs>
</svg>
