<svg width="1234" height="637" viewBox="0 0 1234 637" fill="none" xmlns="http://www.w3.org/2000/svg">
<path d="M1095.24 237.656H1234V636.45H1095.24V237.656Z" fill="white"/>
<path d="M1231.98 239.817V634.294H1097.25V239.817H1231.98ZM1234 237.657H1095.24V636.45H1234V237.644V237.657Z" fill="#737C6E"/>
<path d="M1106.68 250.119H1222.55V352.885H1106.68V250.119Z" fill="white"/>
<path d="M1095.24 442.644H1234V444.8H1095.24V442.644ZM1095.24 547.455H1234V549.612H1095.24V547.455Z" fill="#737C6E"/>
<path d="M1110.52 262.965H1132.16V352.885H1110.52V262.965Z" fill="#FF6677"/>
<path d="M1121.34 342.523C1124.45 342.523 1126.97 339.819 1126.97 336.483C1126.97 333.147 1124.45 330.442 1121.34 330.442C1118.23 330.442 1115.7 333.147 1115.7 336.483C1115.7 339.819 1118.23 342.523 1121.34 342.523Z" fill="white"/>
<path d="M1121.34 343.601C1120.03 343.602 1118.74 343.185 1117.65 342.404C1116.56 341.622 1115.71 340.51 1115.2 339.21C1114.7 337.909 1114.57 336.478 1114.82 335.096C1115.08 333.715 1115.71 332.446 1116.64 331.45C1117.57 330.454 1118.75 329.776 1120.04 329.501C1121.33 329.226 1122.66 329.367 1123.88 329.905C1125.09 330.444 1126.13 331.356 1126.86 332.527C1127.59 333.698 1127.98 335.074 1127.98 336.483C1127.97 338.369 1127.27 340.178 1126.03 341.512C1124.79 342.847 1123.1 343.598 1121.34 343.601ZM1121.34 331.524C1120.43 331.524 1119.53 331.814 1118.77 332.359C1118.01 332.904 1117.41 333.679 1117.06 334.586C1116.71 335.493 1116.62 336.491 1116.8 337.454C1116.98 338.417 1117.42 339.301 1118.06 339.996C1118.71 340.69 1119.54 341.163 1120.44 341.354C1121.33 341.545 1122.26 341.447 1123.11 341.071C1123.96 340.694 1124.68 340.058 1125.19 339.241C1125.7 338.424 1125.97 337.464 1125.97 336.483C1125.96 335.168 1125.48 333.908 1124.61 332.979C1123.74 332.05 1122.57 331.527 1121.34 331.524Z" fill="#737C6E"/>
<path d="M1132.16 262.965H1153.8V352.885H1132.16V262.965Z" fill="#26324D"/>
<path d="M1142.98 342.523C1146.09 342.523 1148.61 339.819 1148.61 336.483C1148.61 333.147 1146.09 330.442 1142.98 330.442C1139.87 330.442 1137.34 333.147 1137.34 336.483C1137.34 339.819 1139.87 342.523 1142.98 342.523Z" fill="white"/>
<path d="M1142.98 343.601C1141.66 343.601 1140.38 343.184 1139.29 342.402C1138.2 341.619 1137.35 340.508 1136.84 339.207C1136.34 337.906 1136.21 336.475 1136.47 335.094C1136.72 333.713 1137.35 332.444 1138.28 331.449C1139.21 330.453 1140.39 329.775 1141.68 329.501C1142.97 329.226 1144.3 329.367 1145.52 329.906C1146.73 330.444 1147.77 331.357 1148.5 332.528C1149.23 333.698 1149.62 335.075 1149.62 336.483C1149.62 338.37 1148.92 340.18 1147.67 341.515C1146.43 342.85 1144.74 343.6 1142.98 343.601ZM1142.98 331.524C1142.06 331.524 1141.17 331.814 1140.4 332.359C1139.64 332.904 1139.05 333.679 1138.7 334.586C1138.35 335.493 1138.26 336.491 1138.43 337.454C1138.61 338.417 1139.05 339.301 1139.7 339.996C1140.35 340.69 1141.17 341.163 1142.07 341.354C1142.97 341.545 1143.9 341.447 1144.75 341.071C1145.59 340.694 1146.31 340.058 1146.82 339.241C1147.33 338.424 1147.6 337.464 1147.6 336.483C1147.6 335.168 1147.11 333.907 1146.25 332.978C1145.38 332.048 1144.2 331.526 1142.98 331.524Z" fill="#737C6E"/>
<path d="M1153.8 262.965H1175.44V352.885H1153.8V262.965Z" fill="#C9D3C3"/>
<path d="M1164.62 342.523C1167.73 342.523 1170.25 339.819 1170.25 336.483C1170.25 333.147 1167.73 330.442 1164.62 330.442C1161.51 330.442 1158.98 333.147 1158.98 336.483C1158.98 339.819 1161.51 342.523 1164.62 342.523Z" fill="white"/>
<path d="M1164.63 343.601C1163.31 343.601 1162.03 343.184 1160.94 342.402C1159.84 341.619 1158.99 340.508 1158.49 339.207C1157.99 337.906 1157.86 336.475 1158.11 335.094C1158.37 333.713 1159 332.444 1159.93 331.449C1160.86 330.453 1162.04 329.775 1163.33 329.501C1164.62 329.226 1165.95 329.367 1167.17 329.906C1168.38 330.444 1169.42 331.357 1170.15 332.528C1170.88 333.698 1171.26 335.075 1171.26 336.483C1171.26 338.37 1170.56 340.179 1169.32 341.514C1168.07 342.848 1166.39 343.599 1164.63 343.601ZM1164.63 331.524C1163.71 331.524 1162.81 331.816 1162.05 332.361C1161.29 332.906 1160.7 333.682 1160.35 334.589C1160 335.496 1159.91 336.494 1160.09 337.456C1160.27 338.419 1160.71 339.303 1161.35 339.997C1162 340.691 1162.83 341.163 1163.72 341.354C1164.62 341.545 1165.55 341.446 1166.4 341.07C1167.24 340.694 1167.97 340.057 1168.48 339.241C1168.98 338.424 1169.25 337.464 1169.25 336.483C1169.25 335.167 1168.76 333.906 1167.9 332.976C1167.03 332.047 1165.85 331.524 1164.63 331.524Z" fill="#737C6E"/>
<path d="M1175.44 262.965H1197.08V352.885H1175.44V262.965Z" fill="#B09C00"/>
<path d="M1186.26 342.523C1189.37 342.523 1191.89 339.819 1191.89 336.483C1191.89 333.147 1189.37 330.442 1186.26 330.442C1183.15 330.442 1180.62 333.147 1180.62 336.483C1180.62 339.819 1183.15 342.523 1186.26 342.523Z" fill="white"/>
<path d="M1186.26 343.601C1184.94 343.601 1183.66 343.184 1182.57 342.402C1181.48 341.619 1180.63 340.508 1180.12 339.207C1179.62 337.906 1179.49 336.475 1179.75 335.094C1180 333.713 1180.63 332.444 1181.56 331.449C1182.49 330.453 1183.67 329.775 1184.96 329.501C1186.25 329.226 1187.59 329.367 1188.8 329.906C1190.01 330.444 1191.05 331.357 1191.78 332.528C1192.51 333.698 1192.9 335.075 1192.9 336.483C1192.9 338.37 1192.19 340.179 1190.95 341.514C1189.71 342.848 1188.02 343.599 1186.26 343.601ZM1186.26 331.524C1185.34 331.524 1184.45 331.814 1183.69 332.359C1182.92 332.904 1182.33 333.679 1181.98 334.586C1181.63 335.493 1181.54 336.491 1181.71 337.454C1181.89 338.417 1182.33 339.301 1182.98 339.996C1183.63 340.69 1184.45 341.163 1185.35 341.354C1186.25 341.545 1187.18 341.447 1188.03 341.071C1188.87 340.694 1189.6 340.058 1190.1 339.241C1190.61 338.424 1190.88 337.464 1190.88 336.483C1190.88 335.168 1190.39 333.907 1189.53 332.978C1188.66 332.048 1187.48 331.526 1186.26 331.524Z" fill="#737C6E"/>
<path d="M1197.08 262.965H1218.72V352.885H1197.08V262.965Z" fill="#D4AC0D"/>
<path d="M1207.9 342.523C1211.01 342.523 1213.53 339.819 1213.53 336.483C1213.53 333.147 1211.01 330.442 1207.9 330.442C1204.79 330.442 1202.26 333.147 1202.26 336.483C1202.26 339.819 1204.79 342.523 1207.9 342.523Z" fill="white"/>
<path d="M1207.9 343.601C1206.58 343.601 1205.3 343.184 1204.21 342.402C1203.12 341.619 1202.27 340.508 1201.76 339.207C1201.26 337.906 1201.13 336.475 1201.39 335.094C1201.64 333.713 1202.27 332.444 1203.2 331.449C1204.13 330.453 1205.31 329.775 1206.6 329.501C1207.89 329.226 1209.23 329.367 1210.44 329.906C1211.65 330.444 1212.69 331.357 1213.42 332.528C1214.15 333.698 1214.54 335.075 1214.54 336.483C1214.54 338.37 1213.83 340.179 1212.59 341.514C1211.35 342.848 1209.66 343.599 1207.9 343.601ZM1207.9 331.524C1206.98 331.525 1206.09 331.817 1205.33 332.363C1204.57 332.909 1203.97 333.685 1203.62 334.592C1203.27 335.499 1203.18 336.497 1203.36 337.459C1203.54 338.421 1203.98 339.305 1204.63 339.999C1205.28 340.692 1206.1 341.164 1207 341.355C1207.9 341.545 1208.83 341.446 1209.68 341.07C1210.52 340.693 1211.24 340.057 1211.75 339.24C1212.26 338.424 1212.53 337.464 1212.53 336.483C1212.53 335.167 1212.04 333.906 1211.17 332.976C1210.3 332.047 1209.13 331.524 1207.9 331.524ZM1095.24 351.807H1234V353.963H1095.24V351.807ZM1145.79 398.76H1183.44V400.916H1145.79V398.76ZM1145.79 496.601H1183.44V498.758H1145.79V496.601ZM1145.79 588.691H1183.44V590.847H1145.79V588.691Z" fill="#737C6E"/>
<path d="M1223.56 352.885H1221.55V251.198H1107.69V352.885H1105.68V249.041H1223.56V352.885Z" fill="#737C6E"/>
<path d="M264.038 108.016H923.182V528.455H264.038V108.016Z" fill="#5DADE2"/>
<path d="M928.214 533.846H259.006V102.617H928.214V533.846ZM269.086 523.056H918.15V113.42H269.086V523.056Z" fill="#E0E0E0"/>
<path d="M264.038 312.838H923.182V323.629H264.038V312.838Z" fill="#E0E0E0"/>
<path d="M588.578 108.016H598.642V528.455H588.578V108.016ZM416.287 108.016H426.351V528.455H416.287V108.016ZM760.868 108.016H770.932V528.455H760.868V108.016Z" fill="#E0E0E0"/>
<path d="M809.525 0H811.536V38.3699H809.525V0ZM378.098 0H380.11V38.3699H378.098V0Z" fill="#737C6E"/>
<path d="M348.524 38.3699H838.696V55.2095H348.524V38.3699Z" fill="#D4AC0D"/>
<path d="M348.524 38.3699H409.688V55.2095H348.524V38.3699ZM777.532 38.3699H838.696V55.2095H777.532V38.3699Z" fill="#5DADE2"/>
<path d="M348.524 37.2917H838.696V39.4481H348.524V37.2917Z" fill="#737C6E"/>
<path d="M379.088 193.806H808.132V411.847H379.088V193.806Z" fill="white"/>
<path d="M423.406 190.266L595.488 69.8493L596.589 71.6587L424.507 192.075L423.406 190.266Z" fill="#414042"/>
<path d="M592.148 71.6351L593.249 69.8255L765.35 190.209L764.249 192.019L592.148 71.6351Z" fill="#414042"/>
<path d="M597.406 73.2611C598.105 71.4627 597.312 69.3975 595.635 68.6482C593.958 67.8988 592.031 68.7492 591.333 70.5476C590.634 72.3459 591.427 74.4112 593.104 75.1605C594.781 75.9098 596.707 75.0594 597.406 73.2611Z" fill="#414042"/>
<path d="M506.186 364.932C538.82 364.932 565.275 336.567 565.275 301.577C565.275 266.586 538.82 238.221 506.186 238.221C473.552 238.221 447.097 266.586 447.097 301.577C447.097 336.567 473.552 364.932 506.186 364.932Z" fill="#D3D4D4"/>
<path d="M522.723 240.755L506.186 301.577L564.938 294.831C563.685 282.349 559.004 270.547 551.489 260.92C543.973 251.293 533.962 244.275 522.723 240.755Z" fill="#DDDEDE"/>
<path d="M553.786 339.097C561.262 328.23 565.287 315.076 565.267 301.572C565.265 299.319 565.153 297.068 564.93 294.827L506.178 301.572L553.786 339.097Z" fill="#BEBFBF"/>
<path d="M553.786 339.097L506.186 301.572L530.336 359.388C539.652 354.903 547.73 347.914 553.786 339.097Z" fill="#9B9C9C"/>
<path d="M469.925 373.812H521.424V375.969H469.925V373.812ZM469.925 381.907H490.136V384.064H469.925V381.907ZM469.925 391.081H546.24V393.237H469.925V391.081ZM483.085 224.65H529.283V226.806H483.085V224.65ZM492.329 216.19H520.043V218.346H492.329V216.19Z" fill="#D1D3D4"/>
<path d="M596.361 248.999C596.082 249.11 595.797 249.202 595.506 249.275C595.249 249.322 595.332 248.54 594.647 248.54C593.962 248.54 587.398 247.942 586.543 247.942C585.525 247.899 584.516 247.715 583.542 247.394C583.217 247.208 582.683 247.275 582.576 247.53C582.469 247.785 581.717 248.061 581.202 248.035C580.688 248.01 577.366 248.248 577.9 249.279C578.435 250.311 580.731 250.519 580.838 250.977C580.945 251.435 578.577 250.837 577.845 250.862C577.112 250.888 576.721 252.238 578.201 252.352C579.682 252.467 580.216 252.263 579.983 252.628C579.749 252.993 576.816 254.148 578.352 254.836C579.888 255.523 579.916 254.56 580.391 254.836C580.866 255.112 581.353 255.294 582.212 255.71C583.071 256.126 577.536 257.501 578.953 258.537C580.371 259.573 584.849 257.294 585.32 256.996C585.791 256.699 585.585 255.18 587.929 254.721C590.272 254.263 593.416 254.844 594.592 255.396C595.768 255.948 597.05 256.805 597.593 257.663C598.135 258.52 598.563 260.329 599.022 260.269C599.481 260.21 599.909 259.42 599.909 259.289C599.909 259.157 603.436 261.662 603.547 263.5C603.658 265.338 602.411 270.143 606.912 272.304C611.414 274.464 608.84 277.703 611.865 278.735C614.89 279.766 614.759 281.354 615.824 281.952C616.889 282.551 618.081 283.463 619.387 283.981C620.694 284.499 620.381 283.701 621.367 283.862C622.353 284.024 622.784 285.378 623.6 285.628C624.415 285.879 625.358 285.378 626.043 285.862C626.727 286.346 626.28 287.509 627.108 288.09C627.935 288.672 629.368 290.141 629.938 289.958C630.508 289.776 630.683 288.685 631.225 289.037C631.767 289.389 632.626 290.756 632.512 291.703C632.397 292.649 631.082 293.481 630.825 294.186C630.592 294.715 630.494 295.301 630.54 295.884C630.595 296.436 629.566 297.111 629.966 298.091C630.366 299.072 631.748 299.446 632.369 301.33C632.991 303.215 633.398 304.272 634.349 304.849C635.299 305.427 636.601 306.068 636.724 306.849C636.847 307.63 637.12 312.367 636.724 312.983C636.328 313.598 635.584 313.857 635.501 314.867C635.418 315.878 635.695 316.2 635.544 316.867C635.394 317.533 634.685 317.924 634.622 319.163C634.559 320.403 634.749 321.71 634.665 322.682C634.582 323.654 633.933 323.693 633.719 324.38C633.505 325.068 633.763 325.463 633.763 325.807C633.763 326.15 633.462 326.473 633.676 326.91C633.861 327.258 634.006 327.628 634.107 328.014C634.127 328.197 634.899 331.508 638.759 331.113C639.618 330.816 639.036 330.081 638.565 329.665C638.094 329.249 637.088 328.702 637.88 327.759C638.672 326.817 639.725 326.609 639.594 325.853C639.464 325.098 638.407 325.552 638.244 325.463C638.082 325.374 640.541 323.765 640.541 323.073C640.541 322.381 639.424 321.876 639.749 321.277C640.073 320.679 640.778 322.126 641.356 321.761C641.934 321.396 641.036 320.73 641.681 320.246C642.326 319.762 644.211 320.454 644.615 319.626C645.018 318.798 643.201 317.079 643.886 316.362C644.571 315.644 644.615 318.246 645.794 317.716C646.974 317.185 647.22 315.169 648.534 314.608C649.848 314.048 649.326 312.219 650.046 311.268C650.767 310.317 652.192 309.888 653.764 309.612C655.336 309.336 656.88 305.444 656.139 303.669C655.399 301.895 658.626 302.752 658.412 300.222C658.198 297.692 652.925 294.479 650.953 295.031C648.981 295.583 648.336 295.213 648.205 294.479C648.075 293.745 649.171 291.788 647.069 290.96C644.967 290.132 644.947 290.96 644.369 290.756C643.791 290.552 643.146 289.585 642.481 289.101C641.815 288.617 642.116 287.403 640.79 287.585C640.087 287.698 639.375 287.743 638.664 287.721C638.343 287.721 636.542 286.448 635.814 286.55C635.085 286.651 633.371 288.672 632.876 288.804C632.381 288.935 632.017 288.18 631.292 288.137C630.568 288.095 629.918 289.33 629.19 288.596C628.462 287.861 629.02 285.701 628.438 284.665C627.856 283.629 626.118 284.168 625.718 284.168C625.318 284.168 625.718 283.862 625.944 282.542C626.169 281.222 626.233 280.844 625.286 280.522C624.34 280.199 624 280.946 623.889 281.532C623.778 282.118 622.63 282.542 622 282.513C621.371 282.483 619.569 281.349 619.771 278.102C619.973 274.855 621.6 274.821 623.917 275.22C626.233 275.619 625.975 273.687 627.147 274.333C628.319 274.978 629.432 277.856 629.978 277.915C630.524 277.975 629.289 275.126 629.633 274.239C629.978 273.352 633.949 271.909 633.406 270.47C632.864 269.031 633.264 268.144 634.463 267.651C635.663 267.159 636.407 267.957 636.696 266.853C636.985 265.749 637.951 265.155 638.28 265.202C638.609 265.248 641.194 264.832 641.74 264.803C642.287 264.773 643.027 264.557 641.483 263.606C639.939 262.655 638.537 263.054 638.11 262.689C637.682 262.324 640.066 260.35 640.537 261.25C641.008 262.15 641.974 261.674 642.338 261.364C642.702 261.055 643.003 260.307 643.498 260.698C643.702 260.887 643.852 261.134 643.931 261.41C644.01 261.686 644.015 261.981 643.945 262.26C643.819 262.583 643.839 263.292 644.805 263.614C645.771 263.937 646.784 263.19 646.519 262.511C646.254 261.831 645.212 261.131 645.125 260.974C645.038 260.817 645.521 259.845 645.149 259.48C644.777 259.115 641.245 257.09 640.667 255.846C640.089 254.602 639.294 255.044 638.973 255.57C638.652 256.096 637.599 256.788 637.191 255.685C636.783 254.581 636.423 254.284 635.798 254.033C635.172 253.783 631.403 252.335 631.942 254.95C632.48 257.565 632.733 257.548 632.132 257.777C631.53 258.007 632.068 259.777 631.209 260.375C630.35 260.974 630.275 260.728 629.475 259.348C628.675 257.968 623.901 257.569 622.844 256.958C621.787 256.347 620.698 254.967 622.329 253.834C623.96 252.7 624.558 251.779 625.785 251.932C627.013 252.085 629.645 253.066 629.788 252.548C629.93 252.03 627.159 251.168 627.472 250.85C627.785 250.531 629.645 251.003 629.816 250.455C629.986 249.907 628.074 249.041 629.875 248.647C631.676 248.252 633.105 248.277 632.761 249.258C632.417 250.238 632.991 250.667 633.553 250.145C634.115 249.623 634.527 249.075 634.741 249.721C634.792 249.909 634.802 250.108 634.771 250.302C634.74 250.496 634.668 250.68 634.561 250.839C634.454 250.999 634.314 251.13 634.152 251.223C633.991 251.316 633.811 251.368 633.628 251.376C632.741 251.376 631.625 251.529 631.827 252.051C632.029 252.573 634.083 251.682 635.39 252.327C636.696 252.972 638.506 253.367 639.195 253.244C639.883 253.121 639.135 252.11 638.763 251.435C638.391 250.761 641.594 252.768 641.895 251.278C642.196 249.788 638.549 250.404 638.331 249.67C638.114 248.935 637.773 248.035 636.748 247.759C635.722 247.483 633.422 246.414 631.565 246.138C629.709 245.862 628.363 246.596 627.535 246.987C626.708 247.377 625.191 246.218 624.764 246.711C624.336 247.203 625.108 249.007 624.451 249.101C623.794 249.194 622.65 247.352 622.25 247.691C621.85 248.031 622.578 249.941 621.335 250.081C620.092 250.221 617.376 250.357 616.402 250.035C615.428 249.712 616.331 248.608 615.761 247.263C615.191 245.917 614.731 244.504 612.53 244.474C610.329 244.444 608.967 243.493 607.985 243.493C607.003 243.493 604.953 243.34 604.612 244.228C604.42 244.856 604.074 245.417 603.61 245.853C603.124 246.342 603.215 247.815 604.723 247.658C606.231 247.5 607.811 247.505 607.554 248.209C607.296 248.914 604.925 249.254 604.295 248.948C603.666 248.642 599.509 247.348 596.361 248.999ZM635.014 242.903C635.014 242.903 638.13 242.228 638.973 241.205C639.816 240.182 640.485 240.318 641.142 240.318C641.8 240.318 641.115 238.998 642.774 238.875C644.432 238.752 645.09 239.274 646.337 239.121C647.584 238.968 647.279 237.465 647.877 237.19C648.475 236.914 648.273 238.166 649.108 237.937C649.943 237.707 648.871 235.339 654.362 235.339C659.853 235.339 659.077 235.865 657.814 236.281C656.551 236.697 658.843 236.761 660.981 236.349C663.119 235.937 663.472 236.901 663.753 238.047C664.034 239.193 664.481 240.089 665.578 239.63C666.674 239.172 667.442 237.932 668.492 238.828C669.541 239.724 665.986 241.218 665.427 242.135C664.869 243.052 665.898 243.145 665.898 244.436C665.898 245.726 665.039 246.227 664.16 246.201C663.281 246.176 664.354 247.789 663.602 248.201C662.85 248.613 662.019 246.847 661.46 247.237C660.902 247.628 662.648 248.511 661.888 248.982C661.128 249.453 657.493 249.377 656.464 250.179C655.435 250.981 653.546 251.028 653.162 251.809C652.843 252.438 652.571 253.092 652.347 253.766C652.113 254.454 651.531 255.099 650.118 254.522C648.704 253.944 646.578 252.178 646.131 250.824C645.683 249.47 645.078 248.065 645.735 248.044C646.392 248.023 646.657 249.101 647.109 249.101C647.56 249.101 648.201 247.216 646.657 247.169C645.113 247.123 644.492 247.836 644.365 246.847C644.238 245.858 644.919 245.607 643.85 245.149C642.781 244.69 639.218 243.451 638.589 243.841C637.959 244.232 638.387 245.251 637.072 244.69C635.758 244.13 633.272 244.436 635.014 242.903ZM790.577 252.565C789.742 251.737 790.3 251.987 790.45 250.68C790.601 249.372 789.29 248.014 788.368 248.175C787.446 248.337 785.624 248.91 784.896 249.139C784.168 249.368 785.688 248.54 783.158 248.473C780.628 248.405 779.448 248.681 778.803 248.54C778.158 248.4 779.448 247.899 776.554 247.759C773.66 247.619 773.039 247.827 772.35 247.118C771.661 246.41 769.8 246.694 768.786 246.218C767.773 245.743 767.369 245.794 767.733 245.395C768.098 244.996 768.806 245.395 769.171 244.796C769.535 244.198 763.96 243.37 764.261 244.083C764.562 244.796 765.742 244.682 766.063 245.208C766.383 245.735 766.32 247.161 765.461 247.254C764.602 247.348 762.226 247.275 761.751 247.53C761.295 247.78 760.822 247.996 760.338 248.175C760.251 248.175 759.629 248.014 759.843 246.588C760.057 245.162 758.944 245.786 756.992 246.197C755.041 246.609 750.282 246.622 749.898 246.129C749.514 245.637 750.903 245.667 750.884 244.75C750.864 243.833 746.596 244.105 745.78 244.037C744.965 243.969 743.979 242.844 742.613 243.612C741.247 244.38 739.933 243.956 738.816 243.841C737.7 243.727 732.834 245.497 731.334 245.586C729.833 245.675 729.889 245.909 730.146 247.106C730.403 248.303 729.627 246.919 728.083 246.783C726.539 246.647 724.825 247.242 725.209 248.116C725.593 248.99 727.525 249.954 726.967 250.277C726.409 250.599 722.723 251.469 723.321 250.553C723.918 249.636 725.981 246.507 724.113 246.367C722.244 246.227 720.684 246.138 720.213 247.471C719.742 248.804 717.509 248.498 713.106 249.109C708.704 249.721 708.704 248.744 707.504 249.784C706.305 250.824 705.525 252.051 704.072 252.051C702.619 252.051 705.39 251.809 705.101 250.277C705.101 250.277 702.445 247.764 696.213 247.764C689.981 247.764 688.073 250.442 687.558 250.803C687.044 251.164 682.614 252.981 683.441 254.819C684.268 256.657 685.674 256.092 686.414 255.371C687.155 254.649 686.446 257.421 688.045 257.421C689.645 257.421 690.191 257.302 690.904 256.258C691.616 255.213 690.734 255.124 690.647 253.932C690.559 252.739 691.074 253.316 692.048 252.887C693.022 252.459 693.133 252.365 693.477 251.571C693.822 250.778 694.621 250.009 695.108 250.773C695.595 251.537 693.362 252.399 693.39 253.439C693.418 254.479 693.877 254.483 695.508 254.237C697.139 253.991 697.884 252.964 697.967 254.39C698.05 255.816 696.538 255.617 695.421 256.351C694.305 257.086 693.592 258.007 692.448 258.558C691.304 259.11 687.186 260.256 686.786 259.17C686.387 258.083 684.807 258.036 684.585 258.864C684.363 259.692 682.17 260.762 680.476 261.568C678.781 262.375 677.926 262.235 678.496 263.542C679.066 264.849 679.739 265.406 678.967 265.843C678.195 266.28 674.335 264.624 674.248 266.577C674.161 268.53 673.69 268.988 674.248 269.519C674.806 270.05 676.026 270.347 677.415 270.092C678.805 269.837 679.494 269.667 679.945 268.67C680.397 267.672 680.824 267.426 681.489 267.358C681.752 267.329 682 267.214 682.199 267.028C682.399 266.843 682.541 266.597 682.606 266.322C682.606 266.025 684.082 265.979 684.585 265.817C685.088 265.656 684.823 264.714 685.828 265.244C686.834 265.775 688.402 267.655 689.752 268.025C691.102 268.394 690.718 267.541 689.795 266.853C688.873 266.165 687.329 265.155 687.61 264.599C687.891 264.043 688.338 264.234 689.455 265.062C690.571 265.889 691.83 269.243 693.414 270.003C694.998 270.763 695.152 269.493 694.701 268.92C694.249 268.347 694.938 267.104 695.603 267.566C696.268 268.029 695.968 268.301 696.482 269.15C696.997 269.999 701.93 269.612 702.187 270.669C702.445 271.726 702.013 273.747 698.478 273.794C694.942 273.84 693.782 273.08 692.515 273.929C691.248 274.778 690.607 275.173 689.043 274.044C687.479 272.915 684.668 273.747 686.018 272.206C686.018 272.206 687.305 272.023 686.834 271.013C686.363 270.003 682.875 270.003 681.774 270.321C680.674 270.64 678.001 271.196 676.584 271.595C675.167 271.994 674.482 272.652 674.185 274.766C673.888 276.88 671.481 276.141 670.839 277.661C670.198 279.18 669.766 280.373 670.111 281.337C670.455 282.3 670.451 283.311 670.194 283.727C669.937 284.143 668.923 285.565 669.988 286.851C671.053 288.137 671.14 287.22 672.938 289.287C674.735 291.355 673.729 291.542 675.685 291.41C677.349 291.31 678.992 290.97 680.571 290.4C681.758 289.941 681.6 289.572 682.416 289.941C683.231 290.311 683.659 291.295 684.304 291.444C684.949 291.592 685.717 291.274 686.018 292.055C686.319 292.836 685.227 294.055 686.149 295.982C687.071 297.909 687.99 298.834 688.441 300.371C688.893 301.908 688.762 302.302 688.291 302.994C687.82 303.686 687.068 304.327 688.422 307.473C689.776 310.618 689.506 309.226 689.609 311.221C689.712 313.216 690.179 312.753 690.666 314.617C691.153 316.481 691.011 316.913 692.61 317.253C694.21 317.593 695.868 317.406 696.641 316.943C697.413 316.48 700.358 313.331 700.445 311.849C700.532 310.368 701.558 310.47 701.633 308.784C701.708 307.099 703.549 306.547 704.289 305.754C705.03 304.96 704.951 301.22 704.464 299.594C703.977 297.968 704.606 296.253 706.233 294.568C707.861 292.883 709.694 292.208 710.41 289.818C711.127 287.428 711.095 286.694 708.636 287.399C706.178 288.103 706.408 286.758 706.206 286.206C706.004 285.654 703.775 283.2 703.407 282.007C703.038 280.815 699.74 277.194 701.031 275.886C702.322 274.579 703.838 279.562 704.198 280.437C704.559 281.311 705.386 280.963 706.301 283.468C707.215 285.972 708.209 285.866 711.008 284.55C713.807 283.234 717.243 279.741 715.363 278.696C713.482 277.652 713.621 279.401 712.675 278.943C711.729 278.484 709.302 275.848 709.876 274.897C710.45 273.946 712.647 277.02 713.649 277.02C714.65 277.02 715.533 277.206 716.08 278C716.626 278.794 719.108 278.34 720.367 277.758C721.626 277.177 722.537 277.206 722.794 278.645C723.051 280.085 724.338 281.006 724.595 280.73C724.853 280.454 723.998 281.311 724.94 283.425C725.882 285.539 726.096 288.481 728.072 288.298C730.047 288.116 729.829 284.758 729.616 283.93C729.402 283.103 732.783 279.685 733.86 279.749C734.937 279.813 737.423 281.311 738.448 283.519C739.474 285.726 739.565 283.094 740.143 283.149C740.721 283.205 739.885 285.909 740.741 286.758C741.596 287.607 742.324 286.091 742.221 285.56C742.118 285.03 743.057 288.736 744.775 288.532C746.493 288.328 748.267 287.335 747.776 285.985C747.285 284.635 744.45 282.165 745.115 281.18C745.78 280.195 746.897 279.274 747.174 279.643C747.451 280.012 745.638 282.576 747.126 282.614C748.615 282.653 749.328 280.624 749.07 280.068C748.813 279.511 750.468 280.556 751.869 279.393C753.271 278.229 755.674 276.82 755.5 275.105C755.289 273.714 754.758 272.401 753.956 271.285C753.671 270.949 754.787 270.733 754.352 269.909C753.916 269.086 753.611 267.15 754.748 267.303C755.884 267.456 757.06 268.152 757.234 268.929C757.408 269.706 756.838 270.979 757.864 271.285C758.889 271.59 759.776 270.338 759.15 268.959C758.525 267.579 759.19 266.055 760.884 266.03C762.579 266.004 764.637 265.181 765.322 264.03C766.007 262.88 766.482 259.828 767.361 260.104C768.24 260.38 767.06 263.962 767.983 264.217C768.905 264.472 769.396 261.008 768.969 260.087C768.541 259.166 766.91 258.932 765.754 259.021C764.598 259.11 763.715 258.38 764.273 257.828C764.831 257.277 766.526 255.281 769.42 255.324C772.314 255.366 772.765 255.804 774.266 255.829C775.766 255.854 776.067 254.471 777.291 253.851C778.514 253.231 778.34 254.08 778.918 254.381C779.496 254.683 777.097 255.528 776.194 256.61C775.291 257.693 775.006 259.365 776.087 260.006C777.168 260.647 779.82 259.543 780.141 258.308C780.462 257.073 780.612 254.793 781.329 254.657C782.045 254.522 781.974 254.819 784.844 254.543C787.715 254.267 787.355 253.324 788.233 253.269C789.112 253.214 791.413 253.388 790.577 252.565ZM704.666 267.57C703.806 267.868 701.384 267.524 700.592 267.227C699.8 266.929 699.689 268.165 697.82 267.8C695.952 267.435 697.175 265.546 697.583 264.828C697.991 264.111 699.448 263.771 700.026 264.234C700.369 264.504 700.698 264.794 701.011 265.104C701.321 264.464 701.81 263.943 702.409 263.614C703.521 262.901 703.458 264.51 704.571 265.452C705.683 266.395 705.541 267.269 704.685 267.57H704.666ZM711.61 264.811C711.356 264.777 712.984 265.686 713.193 267.201C713.403 268.717 713.748 269.774 712.12 270.143C710.493 270.512 710.295 268.971 710.96 268.258C711.626 267.545 710.489 267.269 709.911 266.879C709.333 266.488 708.581 264.285 710.042 263.708C711.503 263.13 711.99 261.662 713.106 263.109C714.223 264.557 713.795 265.087 711.63 264.811H711.61Z" fill="#BAD0F2"/>
<path d="M708.011 310.525C708.011 310.525 707.71 308.64 708.87 307.447C710.03 306.254 710.283 303.678 710.244 303.262C710.204 302.846 708.977 301.954 708.399 302.837C707.821 303.72 706.467 303.988 706.21 304.748C705.952 305.507 706.21 305.622 706.21 306.632C706.21 307.643 705.928 308.559 706.091 309.022C706.253 309.485 705.053 312.087 708.011 310.525ZM766.435 306.361C766.435 306.361 763.691 305.087 763.988 303.814C764.285 302.54 762.274 301.288 761.803 301.793C761.332 302.298 760.647 302.642 760.389 302.897C760.132 303.151 759.661 304.552 759.36 304.641C759.059 304.731 757.776 302.757 757.171 303.584C756.565 304.412 754.985 305.193 754.855 305.932C754.724 306.67 755.25 307.77 754.942 307.859C754.633 307.948 751.125 307.494 750.587 308.364C750.048 309.234 748.742 310.572 749.945 312.227C751.149 313.883 751.703 315.199 751.703 315.581C751.703 315.963 750.844 316.922 751.307 317.423C751.77 317.924 754.269 318.246 755.896 316.913C757.523 315.581 756.925 315.581 758.94 315.534C760.955 315.487 762.242 315.81 762.674 316.638C763.105 317.465 763.786 317.291 764.772 317.423C765.758 317.554 765.374 318.386 766.831 319.443C768.288 320.5 770.35 320.912 771.764 319.443C773.177 317.975 775.196 315.351 774.381 313.008C773.692 311.078 772.61 309.338 771.213 307.914C770.184 306.857 771.043 304.943 769.071 303.962C767.1 302.982 766.882 306.594 766.435 306.361ZM767.425 295.799C767.425 295.799 765.584 294.649 763.822 294.696C762.06 294.742 761.51 293.04 760.607 293.422C759.704 293.804 760.385 295.307 761.268 295.812C762.151 296.317 762.796 295.307 763.802 296.729C764.808 298.151 764.554 298.936 765.453 299.764C766.352 300.592 766.91 300.613 767.599 299.764C768.288 298.915 769.012 298.295 769.527 299.259C770.041 300.222 771.586 300.685 771.712 300.384C771.839 300.082 768.834 296.466 767.425 295.799ZM752.82 293.354C752.82 293.354 752.97 292.964 752.519 291.656C752.067 290.349 751.125 291.015 750.539 291.495C749.953 291.975 747.989 292.14 747.518 293.15C747.047 294.161 747.495 296.186 748.397 296.576C749.3 296.967 751.034 297.472 751.378 296.712C751.723 295.952 752.883 294.186 752.82 293.354ZM744.395 295.375C744.395 295.375 742.811 294.844 742.098 293.49C741.386 292.136 739.549 290.871 739.074 291.147C738.599 291.423 741.2 293.329 741.564 294.386C741.928 295.443 742.72 297.213 744.007 297.811C745.293 298.41 745.658 297.463 745.531 296.797C745.404 296.13 744.395 295.375 744.395 295.375ZM766.934 265.945C766.934 265.945 769.4 266.288 769.4 265.622C769.4 264.956 768.212 264.06 766.934 264.586C765.655 265.113 765.326 265.321 765.35 266.564C765.374 267.808 765.073 269.481 763.549 269.782C762.024 270.083 758.746 270.563 759.091 272.146C759.435 273.73 760.314 273.42 761.533 272.376C762.753 271.331 765.393 270.678 765.908 269.829C766.423 268.98 766.7 268.772 766.53 268.037C766.36 267.303 766.122 265.868 766.934 265.945Z" fill="#BAD0F2"/>
<path d="M676.331 338.024H730.118V340.18H676.331V338.024ZM660.344 347.188H746.109V349.345H660.344V347.188Z" fill="#D1D3D4"/>
<path d="M53.6414 108.182H75.2816V198.102H53.6414V108.182Z" fill="#D4AC0D"/>
<path d="M65.3742 187.652C68.4455 187.117 70.5311 184.015 70.0325 180.722C69.534 177.429 66.6401 175.192 63.5689 175.727C60.4977 176.261 58.4121 179.364 58.9106 182.657C59.4091 185.95 62.303 188.186 65.3742 187.652Z" fill="white"/>
<path d="M64.4614 188.827C63.1481 188.828 61.8641 188.411 60.7717 187.629C59.6794 186.848 58.8278 185.736 58.3246 184.436C57.8215 183.135 57.6895 181.703 57.9452 180.322C58.2009 178.941 58.833 177.672 59.7613 176.676C60.6897 175.68 61.8727 175.002 63.1607 174.727C64.4488 174.452 65.7839 174.592 66.9973 175.131C68.2107 175.67 69.2479 176.582 69.9776 177.753C70.7073 178.924 71.0968 180.3 71.0968 181.708C71.0947 183.595 70.3951 185.404 69.1513 186.738C67.9075 188.072 66.221 188.824 64.4614 188.827ZM64.4614 176.746C63.5459 176.745 62.6507 177.036 61.8891 177.58C61.1275 178.125 60.5337 178.9 60.1828 179.806C59.8319 180.713 59.7396 181.711 59.9178 182.674C60.0959 183.637 60.5364 184.521 61.1835 185.216C61.8306 185.91 62.6552 186.383 63.5531 186.575C64.451 186.767 65.3818 186.669 66.2277 186.293C67.0736 185.918 67.7966 185.282 68.3054 184.466C68.8141 183.65 69.0856 182.69 69.0856 181.708C69.0867 180.392 68.6002 179.129 67.7331 178.197C66.866 177.265 65.6892 176.74 64.4614 176.738V176.746Z" fill="#737C6E"/>
<path d="M75.2815 108.182H96.9217V198.102H75.2815V108.182Z" fill="#26324D"/>
<path d="M87.0121 187.653C90.0833 187.118 92.1689 184.015 91.6704 180.722C91.1718 177.429 88.2779 175.193 85.2067 175.728C82.1355 176.262 80.0499 179.365 80.5484 182.658C81.047 185.951 83.9408 188.187 87.0121 187.653Z" fill="white"/>
<path d="M86.0977 188.827C84.7847 188.826 83.5014 188.408 82.4101 187.625C81.3188 186.843 80.4684 185.73 79.9665 184.43C79.4646 183.129 79.3337 181.698 79.5903 180.317C79.847 178.936 80.4796 177.668 81.4083 176.673C82.337 175.678 83.52 175 84.8078 174.726C86.0956 174.452 87.4304 174.593 88.6433 175.132C89.8563 175.671 90.8929 176.583 91.6223 177.754C92.3517 178.924 92.741 180.301 92.741 181.708C92.7389 183.596 92.0382 185.406 90.7926 186.741C89.5471 188.076 87.8586 188.826 86.0977 188.827ZM86.0977 176.746C85.1823 176.746 84.2875 177.037 83.5264 177.582C82.7653 178.128 82.1721 178.903 81.8218 179.809C81.4715 180.716 81.3799 181.714 81.5585 182.676C81.737 183.639 82.1778 184.523 82.8251 185.217C83.4723 185.911 84.297 186.384 85.1948 186.575C86.0925 186.767 87.0231 186.669 87.8688 186.293C88.7145 185.917 89.4373 185.281 89.9458 184.465C90.4544 183.649 90.7258 182.69 90.7258 181.708C90.7263 181.056 90.607 180.41 90.3747 179.807C90.1424 179.205 89.8017 178.657 89.3719 178.195C88.9421 177.734 88.4318 177.367 87.87 177.117C87.3082 176.867 86.706 176.738 86.0977 176.738V176.746Z" fill="#737C6E"/>
<path d="M96.9177 108.182H118.558V198.102H96.9177V108.182Z" fill="#C9D3C3"/>
<path d="M109.025 187.588C112.054 186.822 113.929 183.568 113.214 180.322C112.5 177.075 109.465 175.064 106.437 175.83C103.409 176.596 101.533 179.85 102.248 183.097C102.963 186.344 105.997 188.354 109.025 187.588Z" fill="white"/>
<path d="M107.742 188.827C106.429 188.828 105.144 188.411 104.052 187.629C102.96 186.848 102.108 185.736 101.605 184.436C101.102 183.135 100.97 181.703 101.226 180.322C101.481 178.941 102.113 177.672 103.042 176.676C103.97 175.68 105.153 175.002 106.441 174.727C107.729 174.452 109.064 174.592 110.278 175.131C111.491 175.67 112.528 176.582 113.258 177.753C113.988 178.924 114.377 180.3 114.377 181.708C114.374 183.595 113.674 185.403 112.431 186.737C111.187 188.071 109.501 188.823 107.742 188.827ZM107.742 176.746C106.826 176.745 105.931 177.036 105.169 177.58C104.408 178.125 103.814 178.9 103.463 179.806C103.112 180.713 103.02 181.711 103.198 182.674C103.376 183.637 103.817 184.521 104.464 185.216C105.111 185.91 105.936 186.383 106.833 186.575C107.731 186.767 108.662 186.669 109.508 186.293C110.354 185.918 111.077 185.282 111.586 184.466C112.094 183.65 112.366 182.69 112.366 181.708C112.367 180.392 111.881 179.129 111.013 178.197C110.146 177.265 108.97 176.74 107.742 176.738V176.746Z" fill="#737C6E"/>
<path d="M118.558 108.182H140.198V198.102H118.558V108.182Z" fill="#A4BAF5"/>
<path d="M133.364 185.974C135.564 183.615 135.564 179.79 133.364 177.431C131.164 175.072 127.597 175.072 125.397 177.431C123.197 179.79 123.197 183.615 125.397 185.974C127.597 188.333 131.164 188.333 133.364 185.974Z" fill="white"/>
<path d="M129.378 188.827C128.065 188.827 126.781 188.41 125.689 187.627C124.598 186.845 123.747 185.733 123.244 184.433C122.742 183.132 122.61 181.7 122.866 180.32C123.123 178.939 123.755 177.67 124.683 176.675C125.612 175.679 126.795 175.001 128.083 174.726C129.371 174.452 130.706 174.593 131.919 175.131C133.132 175.67 134.169 176.583 134.899 177.753C135.628 178.924 136.017 180.3 136.017 181.708C136.015 183.596 135.315 185.405 134.071 186.74C132.826 188.074 131.138 188.825 129.378 188.827ZM129.378 176.746C128.463 176.746 127.568 177.037 126.807 177.582C126.046 178.128 125.453 178.903 125.102 179.809C124.752 180.716 124.66 181.714 124.839 182.676C125.017 183.639 125.458 184.523 126.106 185.217C126.753 185.911 127.577 186.384 128.475 186.575C129.373 186.767 130.304 186.669 131.149 186.293C131.995 185.917 132.718 185.281 133.226 184.465C133.735 183.649 134.006 182.69 134.006 181.708C134.007 181.056 133.887 180.41 133.655 179.807C133.423 179.205 133.082 178.657 132.652 178.195C132.223 177.734 131.712 177.367 131.15 177.117C130.589 176.867 129.986 176.738 129.378 176.738V176.746Z" fill="#737C6E"/>
<path d="M140.198 108.182H161.838V198.102H140.198V108.182Z" fill="#FF6677"/>
<path d="M151.929 187.648C155.001 187.113 157.086 184.01 156.588 180.717C156.089 177.424 153.195 175.188 150.124 175.723C147.053 176.257 144.967 179.36 145.466 182.653C145.964 185.946 148.858 188.182 151.929 187.648Z" fill="white"/>
<path d="M151.018 188.827C149.705 188.827 148.422 188.41 147.33 187.627C146.238 186.845 145.387 185.733 144.884 184.433C144.382 183.132 144.25 181.7 144.507 180.32C144.763 178.939 145.395 177.67 146.324 176.675C147.252 175.679 148.435 175.001 149.723 174.726C151.011 174.452 152.346 174.593 153.559 175.131C154.772 175.67 155.809 176.583 156.539 177.753C157.268 178.924 157.658 180.3 157.658 181.708C157.655 183.595 156.954 185.404 155.71 186.738C154.465 188.073 152.778 188.824 151.018 188.827ZM151.018 176.746C150.103 176.745 149.208 177.036 148.446 177.58C147.684 178.125 147.091 178.9 146.74 179.806C146.389 180.713 146.297 181.711 146.475 182.674C146.653 183.637 147.093 184.521 147.74 185.216C148.388 185.91 149.212 186.383 150.11 186.575C151.008 186.767 151.939 186.669 152.785 186.293C153.631 185.918 154.354 185.282 154.862 184.466C155.371 183.65 155.643 182.69 155.643 181.708C155.644 180.392 155.157 179.129 154.29 178.197C153.423 177.265 152.246 176.74 151.018 176.738V176.746Z" fill="#737C6E"/>
<path d="M10.3608 208.464H32.0011V298.384H10.3608V208.464Z" fill="#FF6677"/>
<path d="M21.181 288.022C24.2924 288.022 26.8147 285.318 26.8147 281.982C26.8147 278.646 24.2924 275.941 21.181 275.941C18.0695 275.941 15.5472 278.646 15.5472 281.982C15.5472 285.318 18.0695 288.022 21.181 288.022Z" fill="white"/>
<path d="M21.181 289.101C19.8678 289.101 18.5842 288.683 17.4924 287.901C16.4005 287.119 15.5495 286.007 15.047 284.706C14.5445 283.405 14.413 281.974 14.6692 280.593C14.9254 279.212 15.5577 277.944 16.4863 276.948C17.4148 275.953 18.5978 275.275 19.8857 275C21.1736 274.725 22.5086 274.866 23.7217 275.405C24.9349 275.944 25.9718 276.856 26.7014 278.027C27.4309 279.198 27.8203 280.574 27.8203 281.982C27.8182 283.869 27.1181 285.679 25.8734 287.013C24.6287 288.348 22.9412 289.098 21.181 289.101ZM21.181 277.02C20.2654 277.019 19.3703 277.309 18.6086 277.854C17.847 278.399 17.2532 279.173 16.9023 280.08C16.5514 280.987 16.4592 281.985 16.6373 282.948C16.8154 283.91 17.2559 284.795 17.903 285.489C18.5501 286.184 19.3748 286.657 20.2726 286.849C21.1705 287.041 22.1013 286.942 22.9472 286.567C23.7931 286.192 24.5162 285.556 25.0249 284.739C25.5336 283.923 25.8052 282.964 25.8052 281.982C25.8041 280.667 25.3167 279.406 24.4499 278.476C23.583 277.546 22.4074 277.022 21.181 277.02Z" fill="#737C6E"/>
<path d="M32.0011 208.464H53.6413V298.384H32.0011V208.464Z" fill="#26324D"/>
<path d="M42.8212 288.022C45.9327 288.022 48.455 285.318 48.455 281.982C48.455 278.646 45.9327 275.941 42.8212 275.941C39.7098 275.941 37.1875 278.646 37.1875 281.982C37.1875 285.318 39.7098 288.022 42.8212 288.022Z" fill="white"/>
<path d="M42.8211 289.101C41.508 289.101 40.2243 288.683 39.1325 287.901C38.0407 287.119 37.1897 286.007 36.6872 284.706C36.1846 283.405 36.0532 281.974 36.3093 280.593C36.5655 279.212 37.1978 277.944 38.1264 276.948C39.0549 275.953 40.2379 275.275 41.5258 275C42.8137 274.725 44.1487 274.866 45.3619 275.405C46.5751 275.944 47.612 276.856 48.3415 278.027C49.0711 279.198 49.4605 280.574 49.4605 281.982C49.4584 283.869 48.7582 285.679 47.5135 287.013C46.2689 288.348 44.5813 289.098 42.8211 289.101ZM42.8211 277.02C41.9056 277.019 41.0104 277.309 40.2488 277.854C39.4872 278.399 38.8933 279.173 38.5424 280.08C38.1915 280.987 38.0993 281.985 38.2775 282.948C38.4556 283.91 38.8961 284.795 39.5432 285.489C40.1903 286.184 41.0149 286.657 41.9128 286.849C42.8107 287.041 43.7414 286.942 44.5874 286.567C45.4333 286.192 46.1563 285.556 46.665 284.739C47.1738 283.923 47.4453 282.964 47.4453 281.982C47.4432 280.667 46.9555 279.407 46.0888 278.477C45.2222 277.547 44.0472 277.023 42.8211 277.02Z" fill="#737C6E"/>
<path d="M53.6414 208.464H75.2816V298.384H53.6414V208.464Z" fill="#C9D3C3"/>
<path d="M64.4614 288.022C67.5728 288.022 70.0951 285.318 70.0951 281.982C70.0951 278.646 67.5728 275.941 64.4614 275.941C61.3499 275.941 58.8276 278.646 58.8276 281.982C58.8276 285.318 61.3499 288.022 64.4614 288.022Z" fill="white"/>
<path d="M64.4614 289.101C63.1481 289.102 61.8641 288.685 60.7717 287.903C59.6794 287.121 58.8278 286.01 58.3246 284.709C57.8215 283.408 57.6895 281.977 57.9452 280.596C58.2009 279.215 58.833 277.946 59.7613 276.95C60.6897 275.954 61.8727 275.275 63.1607 275C64.4488 274.725 65.7839 274.866 66.9973 275.405C68.2107 275.943 69.2479 276.856 69.9776 278.027C70.7073 279.197 71.0968 280.574 71.0968 281.982C71.0947 283.869 70.3951 285.677 69.1513 287.012C67.9075 288.346 66.221 289.097 64.4614 289.101ZM64.4614 277.02C63.5459 277.019 62.6507 277.309 61.8891 277.854C61.1275 278.399 60.5337 279.173 60.1828 280.08C59.8319 280.987 59.7396 281.985 59.9178 282.948C60.0959 283.91 60.5364 284.795 61.1835 285.489C61.8306 286.184 62.6552 286.657 63.5531 286.849C64.451 287.041 65.3818 286.942 66.2277 286.567C67.0736 286.192 67.7966 285.556 68.3054 284.739C68.8141 283.923 69.0856 282.964 69.0856 281.982C69.0835 280.667 68.5958 279.407 67.7291 278.477C66.8625 277.547 65.6876 277.023 64.4614 277.02Z" fill="#737C6E"/>
<path d="M75.2815 208.464H96.9217V298.384H75.2815V208.464Z" fill="#A4BAF5"/>
<path d="M86.0977 288.022C89.2092 288.022 91.7315 285.318 91.7315 281.982C91.7315 278.646 89.2092 275.941 86.0977 275.941C82.9863 275.941 80.464 278.646 80.464 281.982C80.464 285.318 82.9863 288.022 86.0977 288.022Z" fill="white"/>
<path d="M86.0977 289.101C84.7847 289.1 83.5014 288.682 82.4101 287.899C81.3188 287.116 80.4684 286.004 79.9665 284.703C79.4646 283.402 79.3337 281.971 79.5903 280.591C79.847 279.21 80.4796 277.942 81.4083 276.947C82.337 275.952 83.52 275.274 84.8078 275C86.0956 274.725 87.4304 274.867 88.6433 275.406C89.8563 275.944 90.8929 276.857 91.6223 278.028C92.3517 279.198 92.741 280.574 92.741 281.982C92.7389 283.87 92.0382 285.68 90.7926 287.015C89.5471 288.349 87.8586 289.1 86.0977 289.101ZM86.0977 277.02C85.1823 277.02 84.2875 277.311 83.5264 277.856C82.7653 278.401 82.1721 279.176 81.8218 280.083C81.4715 280.99 81.3799 281.988 81.5585 282.95C81.737 283.913 82.1778 284.797 82.8251 285.491C83.4723 286.185 84.297 286.658 85.1948 286.849C86.0925 287.04 87.0231 286.942 87.8688 286.567C88.7145 286.191 89.4373 285.555 89.9458 284.739C90.4544 283.923 90.7258 282.963 90.7258 281.982C90.7248 280.666 90.2368 279.405 89.3691 278.474C88.5014 277.544 87.3248 277.021 86.0977 277.02Z" fill="#737C6E"/>
<path d="M96.9177 208.464H118.558V298.384H96.9177V208.464Z" fill="#FFC2C9"/>
<path d="M107.738 288.022C110.849 288.022 113.372 285.318 113.372 281.982C113.372 278.646 110.849 275.941 107.738 275.941C104.626 275.941 102.104 278.646 102.104 281.982C102.104 285.318 104.626 288.022 107.738 288.022Z" fill="white"/>
<path d="M107.742 289.101C106.429 289.102 105.144 288.685 104.052 287.903C102.96 287.121 102.108 286.01 101.605 284.709C101.102 283.408 100.97 281.977 101.226 280.596C101.481 279.215 102.113 277.946 103.042 276.95C103.97 275.954 105.153 275.275 106.441 275C107.729 274.725 109.064 274.866 110.278 275.405C111.491 275.943 112.528 276.856 113.258 278.027C113.988 279.197 114.377 280.574 114.377 281.982C114.374 283.868 113.674 285.676 112.431 287.011C111.187 288.345 109.501 289.096 107.742 289.101ZM107.742 277.02C106.826 277.019 105.931 277.309 105.169 277.854C104.408 278.399 103.814 279.173 103.463 280.08C103.112 280.987 103.02 281.985 103.198 282.948C103.376 283.91 103.817 284.795 104.464 285.489C105.111 286.184 105.936 286.657 106.833 286.849C107.731 287.041 108.662 286.942 109.508 286.567C110.354 286.192 111.077 285.556 111.586 284.739C112.094 283.923 112.366 282.964 112.366 281.982C112.365 280.667 111.878 279.406 111.011 278.476C110.144 277.546 108.968 277.022 107.742 277.02Z" fill="#737C6E"/>
<path d="M118.558 208.464H140.198V298.384H118.558V208.464Z" fill="#FF6677"/>
<path d="M129.378 288.022C132.49 288.022 135.012 285.318 135.012 281.982C135.012 278.646 132.49 275.941 129.378 275.941C126.267 275.941 123.745 278.646 123.745 281.982C123.745 285.318 126.267 288.022 129.378 288.022Z" fill="white"/>
<path d="M129.378 289.101C128.065 289.101 126.781 288.683 125.689 287.901C124.598 287.119 123.747 286.007 123.244 284.706C122.742 283.405 122.61 281.974 122.866 280.593C123.123 279.212 123.755 277.944 124.683 276.948C125.612 275.953 126.795 275.275 128.083 275C129.371 274.725 130.706 274.866 131.919 275.405C133.132 275.944 134.169 276.856 134.899 278.027C135.628 279.198 136.017 280.574 136.017 281.982C136.015 283.869 135.315 285.679 134.071 287.013C132.826 288.348 131.138 289.098 129.378 289.101ZM129.378 277.02C128.463 277.02 127.568 277.311 126.807 277.856C126.046 278.401 125.453 279.176 125.102 280.083C124.752 280.99 124.66 281.988 124.839 282.95C125.017 283.913 125.458 284.797 126.106 285.491C126.753 286.185 127.577 286.658 128.475 286.849C129.373 287.04 130.304 286.942 131.149 286.567C131.995 286.191 132.718 285.555 133.226 284.739C133.735 283.923 134.006 282.963 134.006 281.982C134.005 280.666 133.517 279.405 132.65 278.474C131.782 277.544 130.605 277.021 129.378 277.02Z" fill="#737C6E"/>
<path d="M140.198 208.464H161.838V298.384H140.198V208.464Z" fill="#26324D"/>
<path d="M151.019 288.022C154.13 288.022 156.652 285.318 156.652 281.982C156.652 278.646 154.13 275.941 151.019 275.941C147.907 275.941 145.385 278.646 145.385 281.982C145.385 285.318 147.907 288.022 151.019 288.022Z" fill="white"/>
<path d="M151.018 289.101C149.705 289.101 148.422 288.683 147.33 287.901C146.238 287.119 145.387 286.007 144.884 284.706C144.382 283.405 144.25 281.974 144.507 280.593C144.763 279.212 145.395 277.944 146.324 276.948C147.252 275.953 148.435 275.275 149.723 275C151.011 274.725 152.346 274.866 153.559 275.405C154.772 275.944 155.809 276.856 156.539 278.027C157.268 279.198 157.658 280.574 157.658 281.982C157.655 283.869 156.954 285.678 155.71 287.012C154.465 288.346 152.778 289.097 151.018 289.101ZM151.018 277.02C150.103 277.019 149.208 277.309 148.446 277.854C147.684 278.399 147.091 279.173 146.74 280.08C146.389 280.987 146.297 281.985 146.475 282.948C146.653 283.91 147.093 284.795 147.74 285.489C148.388 286.184 149.212 286.657 150.11 286.849C151.008 287.041 151.939 286.942 152.785 286.567C153.631 286.192 154.354 285.556 154.862 284.739C155.371 283.923 155.643 282.964 155.643 281.982C155.642 280.667 155.154 279.406 154.287 278.476C153.42 277.546 152.245 277.022 151.018 277.02Z" fill="#737C6E"/>
<path d="M161.838 208.464H183.479V298.384H161.838V208.464Z" fill="#FFEBC6"/>
<path d="M172.659 288.022C175.77 288.022 178.292 285.318 178.292 281.982C178.292 278.646 175.77 275.941 172.659 275.941C169.547 275.941 167.025 278.646 167.025 281.982C167.025 285.318 169.547 288.022 172.659 288.022Z" fill="white"/>
<path d="M172.659 289.101C171.345 289.101 170.062 288.683 168.97 287.901C167.878 287.119 167.027 286.007 166.525 284.706C166.022 283.405 165.891 281.974 166.147 280.593C166.403 279.212 167.035 277.944 167.964 276.948C168.892 275.953 170.075 275.275 171.363 275C172.651 274.725 173.986 274.866 175.199 275.405C176.413 275.944 177.45 276.856 178.179 278.027C178.909 279.198 179.298 280.574 179.298 281.982C179.296 283.869 178.596 285.679 177.351 287.013C176.106 288.348 174.419 289.098 172.659 289.101ZM172.659 277.02C171.743 277.019 170.848 277.309 170.086 277.854C169.325 278.399 168.731 279.173 168.38 280.08C168.029 280.987 167.937 281.985 168.115 282.948C168.293 283.91 168.734 284.795 169.381 285.489C170.028 286.184 170.852 286.657 171.75 286.849C172.648 287.041 173.579 286.942 174.425 286.567C175.271 286.192 175.994 285.556 176.503 284.739C177.011 283.923 177.283 282.964 177.283 281.982C177.282 280.667 176.794 279.406 175.928 278.476C175.061 277.546 173.885 277.022 172.659 277.02Z" fill="#737C6E"/>
<path d="M0 298.35H215.48V300.507H0V298.35ZM0 198.124H215.48V200.28H0V198.124Z" fill="#414042"/>
<path d="M1163.68 217.586C1154.19 217.614 1144.96 214.285 1137.42 208.114C1129.87 201.944 1124.44 193.277 1121.96 183.458C1119.48 173.638 1120.09 163.216 1123.69 153.806C1127.3 144.397 1133.7 136.526 1141.9 131.414L1142.92 133.278C1138.25 136.19 1134.17 140.058 1130.9 144.662C1127.63 149.266 1125.24 154.515 1123.86 160.109C1122.49 165.704 1122.15 171.535 1122.87 177.269C1123.6 183.003 1125.37 188.528 1128.09 193.528C1130.8 198.529 1134.41 202.907 1138.7 206.412C1143 209.917 1147.89 212.482 1153.11 213.958C1158.33 215.435 1163.77 215.796 1169.11 215.019C1174.46 214.242 1179.61 212.344 1184.28 209.432L1185.29 211.3C1178.73 215.412 1171.28 217.582 1163.68 217.586Z" fill="#737C6E"/>
<path d="M1162.6 216.521H1164.61V236.684H1162.6V216.521Z" fill="#737C6E"/>
<path d="M1142.55 235.606H1184.66V237.763H1142.55V235.606Z" fill="#737C6E"/>
<path d="M1141.1 131.987L1142.84 130.9L1186.17 210.759L1184.43 211.846L1141.1 131.987Z" fill="#737C6E"/>
<path d="M1163.61 211.571C1184.31 211.571 1201.1 193.573 1201.1 171.372C1201.1 149.17 1184.31 131.172 1163.61 131.172C1142.9 131.172 1126.12 149.17 1126.12 171.372C1126.12 193.573 1142.9 211.571 1163.61 211.571Z" fill="#A4BAF5"/>
<path d="M1142.85 158.968C1142.73 159.126 1142.59 159.276 1142.45 159.418C1142.32 159.533 1142.14 159.07 1141.76 159.308C1141.38 159.546 1137.57 161.477 1137.09 161.774C1136.52 162.102 1135.9 162.349 1135.27 162.509C1135.04 162.509 1134.76 162.738 1134.78 162.933C1134.79 163.128 1134.46 163.523 1134.17 163.689C1133.88 163.854 1132.11 165.128 1132.72 165.514C1133.32 165.9 1134.66 165.225 1134.85 165.429C1135.04 165.633 1133.55 166.134 1133.15 166.401C1132.76 166.669 1132.95 167.547 1133.8 167.102C1134.65 166.656 1134.89 166.354 1134.87 166.639C1134.85 166.923 1133.57 168.575 1134.63 168.422C1135.69 168.269 1135.42 167.73 1135.76 167.721C1136.09 167.713 1136.43 167.641 1137.03 167.573C1137.62 167.505 1134.98 170.179 1136.07 170.264C1137.17 170.349 1138.96 167.539 1139.13 167.212C1139.3 166.885 1138.74 166.117 1139.89 165.051C1141.03 164.085 1142.36 163.424 1143.78 163.124C1144.57 162.988 1145.37 163.063 1146.12 163.341C1146.68 163.629 1147.46 164.478 1147.7 164.287C1147.79 164.17 1147.86 164.033 1147.89 163.886C1147.92 163.739 1147.93 163.586 1147.9 163.438C1147.86 163.37 1150.57 163.532 1151.18 164.512C1151.79 165.493 1152.55 168.579 1155.69 168.218C1158.83 167.857 1158.37 170.54 1160.36 170.069C1162.34 169.598 1162.73 170.519 1163.52 170.493C1164.39 170.518 1165.25 170.481 1166.11 170.383C1166.99 170.217 1166.57 169.882 1167.17 169.631C1167.76 169.381 1168.41 169.98 1168.93 169.839C1169.46 169.699 1169.83 169.092 1170.35 169.122C1170.88 169.152 1170.98 169.971 1171.61 169.971C1172.25 169.971 1173.48 170.328 1173.74 170.026C1174 169.725 1173.77 169.075 1174.18 169.075C1174.49 169.114 1174.78 169.226 1175.04 169.404C1175.31 169.582 1175.53 169.821 1175.69 170.103C1175.91 170.672 1175.43 171.58 1175.5 172.06C1175.53 172.437 1175.66 172.799 1175.86 173.108C1176.06 173.393 1175.69 174.123 1176.21 174.526C1176.72 174.929 1177.6 174.662 1178.51 175.49C1179.42 176.317 1179.96 176.763 1180.67 176.763C1181.37 176.763 1182.28 176.657 1182.59 177.047C1182.9 177.438 1184.46 179.976 1184.43 180.443C1184.39 180.91 1184.06 181.322 1184.32 181.912C1184.58 182.502 1184.83 182.583 1184.94 183.003C1185.06 183.423 1184.79 183.882 1185.13 184.591C1185.46 185.3 1185.96 185.945 1186.21 186.522C1186.46 187.099 1186.11 187.333 1186.21 187.796C1186.31 188.258 1186.55 188.381 1186.66 188.568C1186.76 188.755 1186.69 189.044 1186.94 189.209C1187.15 189.338 1187.34 189.493 1187.51 189.672C1187.58 189.765 1189 191.332 1191.02 189.782C1191.41 189.319 1190.86 189.111 1190.47 189.048C1190.09 188.984 1189.37 189.022 1189.52 188.229C1189.68 187.435 1190.2 186.955 1189.9 186.581C1189.6 186.208 1189.16 186.823 1189.03 186.832C1188.91 186.84 1189.8 185.113 1189.58 184.709C1189.37 184.306 1188.61 184.434 1188.61 183.992C1188.6 183.551 1189.43 184.094 1189.64 183.703C1189.86 183.313 1189.15 183.241 1189.37 182.753C1189.58 182.264 1190.83 181.993 1190.8 181.394C1190.78 180.796 1189.25 180.473 1189.42 179.841C1189.58 179.208 1190.39 180.63 1190.88 179.93C1191.38 179.229 1190.91 178.041 1191.46 177.264C1192.01 176.487 1191.19 175.668 1191.3 174.895C1191.41 174.123 1192.07 173.393 1192.85 172.696C1193.64 172 1193.33 169.3 1192.39 168.575C1191.44 167.849 1193.48 167.203 1192.61 165.883C1191.73 164.563 1187.86 164.61 1186.92 165.586C1185.98 166.562 1185.53 166.592 1185.23 166.227C1184.94 165.862 1184.96 164.406 1183.55 164.678C1182.14 164.949 1182.36 165.408 1181.99 165.493C1181.63 165.578 1180.96 165.268 1180.45 165.23C1179.94 165.191 1179.74 164.414 1179.06 164.979C1178.7 165.285 1178.32 165.555 1177.92 165.786C1177.75 165.896 1176.36 165.807 1176 166.125C1175.63 166.444 1175.28 168.137 1175.05 168.383C1174.81 168.63 1174.38 168.337 1173.98 168.558C1173.58 168.778 1173.58 169.691 1172.96 169.538C1172.33 169.385 1171.99 167.993 1171.37 167.619C1170.75 167.246 1169.94 168.15 1169.72 168.286C1169.5 168.422 1169.63 168.116 1169.36 167.31C1169.09 166.503 1169.01 166.278 1168.38 166.418C1167.76 166.558 1167.8 167.097 1167.91 167.462C1168.02 167.827 1167.52 168.456 1167.16 168.655C1166.81 168.855 1165.47 168.85 1164.61 166.983C1163.74 165.115 1164.63 164.538 1166.03 163.96C1167.43 163.383 1166.71 162.402 1167.55 162.351C1168.39 162.301 1169.88 163.51 1170.2 163.357C1170.52 163.205 1168.98 162.05 1168.9 161.443C1168.83 160.836 1170.59 158.663 1169.86 158.047C1169.12 157.432 1169.06 156.812 1169.59 156.124C1170.12 155.436 1170.78 155.623 1170.59 154.914C1170.39 154.205 1170.77 153.53 1170.98 153.446C1171.2 153.361 1172.49 152.236 1172.78 152.028C1173.07 151.82 1173.41 151.45 1172.28 151.459C1171.14 151.467 1170.48 152.168 1170.13 152.113C1169.78 152.058 1170.53 150.143 1171.05 150.478C1171.57 150.814 1171.97 150.211 1172.08 149.918C1172.19 149.625 1172.13 149.103 1172.52 149.15C1172.69 149.185 1172.84 149.269 1172.97 149.394C1173.1 149.52 1173.19 149.68 1173.24 149.859C1173.26 150.084 1173.49 150.47 1174.12 150.313C1174.75 150.156 1175.1 149.396 1174.74 149.112C1174.38 148.827 1173.6 148.797 1173.5 148.738C1173.41 148.679 1173.39 147.978 1173.07 147.889C1172.75 147.8 1170.19 147.914 1169.5 147.431C1168.82 146.947 1168.5 147.456 1168.48 147.855C1168.46 148.254 1168.09 149.005 1167.53 148.534C1166.98 148.063 1166.68 148.025 1166.26 148.11C1165.84 148.195 1163.32 148.687 1164.4 149.952C1165.48 151.217 1165.59 151.119 1165.36 151.45C1165.13 151.782 1165.93 152.575 1165.63 153.204C1165.33 153.832 1165.24 153.722 1164.36 153.238C1163.49 152.754 1160.75 154.18 1159.97 154.205C1159.2 154.231 1158.19 153.845 1158.75 152.652C1159.31 151.459 1159.37 150.746 1160.09 150.406C1160.82 150.067 1162.57 149.702 1162.49 149.362C1162.41 149.022 1160.62 149.511 1160.69 149.213C1160.77 148.916 1161.95 148.547 1161.88 148.186C1161.82 147.825 1160.49 148.008 1161.37 147.163C1162.24 146.318 1163.05 145.847 1163.15 146.505C1163.25 147.163 1163.7 147.206 1163.85 146.73C1163.99 146.255 1164.06 145.8 1164.36 146.089C1164.45 146.178 1164.51 146.285 1164.55 146.402C1164.59 146.519 1164.6 146.644 1164.59 146.768C1164.58 146.892 1164.54 147.012 1164.48 147.119C1164.42 147.226 1164.34 147.318 1164.25 147.388C1163.75 147.694 1163.18 148.165 1163.45 148.386C1163.72 148.606 1164.59 147.401 1165.52 147.303C1166.35 147.224 1167.16 146.949 1167.89 146.497C1168.23 146.191 1167.52 145.89 1167.1 145.648C1166.68 145.406 1169.08 145.406 1168.78 144.476C1168.49 143.546 1166.67 145.147 1166.33 144.816C1166.16 144.597 1165.93 144.433 1165.68 144.342C1165.42 144.252 1165.15 144.238 1164.89 144.302C1164.25 144.497 1162.65 144.701 1161.53 145.193C1160.72 145.588 1160.03 146.232 1159.55 147.044C1159.21 147.532 1158.03 147.426 1157.94 147.847C1157.85 148.267 1158.82 149.001 1158.48 149.277C1158.14 149.553 1156.96 148.933 1156.84 149.277C1156.72 149.621 1157.7 150.406 1157.05 150.916C1156.41 151.425 1154.95 152.431 1154.31 152.592C1153.66 152.754 1153.84 151.828 1153.12 151.281C1152.4 150.733 1151.72 150.109 1150.5 150.856C1149.27 151.603 1148.24 151.54 1147.68 151.888C1147.13 152.236 1145.96 152.847 1146.04 153.458C1146.12 153.872 1146.1 154.302 1145.97 154.702C1145.86 155.127 1146.34 155.925 1147.13 155.318C1147.93 154.711 1148.8 154.167 1148.87 154.643C1148.94 155.118 1147.72 156.128 1147.28 156.175C1146.85 156.222 1144.09 156.965 1142.85 158.968ZM1178.34 135.507C1178.53 135.082 1179.53 135.787 1179.82 135.299C1179.84 135.253 1179.86 135.2 1179.86 135.146C1176.79 133.571 1173.54 132.449 1170.2 131.809C1167.99 133.418 1169.05 134.254 1168.7 134.632C1168.35 135.01 1168.05 134.284 1167.8 134.632C1167.55 134.98 1168.17 135.715 1167.52 136.232C1166.87 136.75 1166.34 136.691 1165.47 137.332C1164.61 137.973 1165.37 138.465 1165.01 138.694C1164.76 138.793 1164.54 138.959 1164.38 139.177C1164.21 139.395 1164.11 139.656 1164.07 139.934C1163.91 140.783 1162.39 142.231 1162.39 142.231C1161.89 143.678 1163.18 142.655 1164.09 142.511C1165 142.366 1164.44 141.95 1164.67 141.509C1164.89 141.067 1167.24 140.533 1167.97 140.418C1168.71 140.303 1168.4 140.681 1168.77 141.182C1169.13 141.683 1169.27 141.076 1170.13 140.566C1171 140.057 1171.21 141.322 1170.96 141.479C1170.71 141.636 1170.25 141.127 1169.88 141.369C1169.52 141.611 1170.28 142.18 1170.93 142.774C1171.59 143.368 1173.31 143.623 1174.25 143.445C1175.19 143.266 1175.33 142.714 1175.26 142.252C1175.18 141.802 1175.13 141.346 1175.12 140.889C1175.1 140.325 1176.13 139.65 1176.46 138.847C1176.79 138.045 1178.83 136.848 1179.1 136.3C1179.37 135.753 1178.15 135.914 1178.34 135.507Z" fill="#C9D3C3"/>
<path d="M1072.89 270.156H976.788V208.354H1072.89V270.156Z" fill="white"/>
<path d="M1073.9 271.234H975.778V207.271H1073.9L1073.9 271.234ZM977.797 269.056H1071.88V209.428H977.797V269.056Z" fill="#737C6E"/>
<path d="M995.106 221.742H1054.58V223.899H995.106V221.742ZM1019.58 230.079H1054.58V232.236H1019.58V230.079ZM1004.94 238.421H1054.58V240.577H1004.94V238.421ZM1027.36 246.758H1054.58V248.914H1027.36V246.758ZM995.106 254.853H1027.36V257.009H995.106V254.853Z" fill="#E6E7E8"/>
<path d="M995.985 255.069H1013.9V294.802L1004.94 286.711L995.985 294.802V255.069Z" fill="#26324D"/>
<path d="M1004.94 264.633C1009.87 264.633 1013.86 260.351 1013.86 255.069C1013.86 249.787 1009.87 245.505 1004.94 245.505C1000.01 245.505 996.021 249.787 996.021 255.069C996.021 260.351 1000.01 264.633 1004.94 264.633Z" fill="#FF6677"/>
<path d="M976.792 107.982H1072.89V169.784H976.792V107.982Z" fill="white"/>
<path d="M1073.9 170.863H975.778V106.9H1073.9L1073.9 170.863ZM977.797 168.706H1071.88V109.061H977.797V168.706Z" fill="#737C6E"/>
<path d="M995.106 121.371H1054.58V123.527H995.106V121.371ZM995.106 129.712H1030.1V131.869H995.106V129.712ZM995.106 138.049H1044.74V140.206H995.106V138.049ZM995.106 146.391H1022.32V148.547H995.106V146.391ZM1022.32 154.486H1054.58V156.642H1022.32V154.486Z" fill="#E6E7E8"/>
<path d="M1053.7 154.702H1035.78V194.435L1044.74 186.34L1053.7 194.435V154.702Z" fill="#26324D"/>
<path d="M1052.98 158.36C1054.87 153.48 1052.71 147.886 1048.16 145.864C1043.61 143.843 1038.39 146.16 1036.5 151.04C1034.62 155.92 1036.78 161.515 1041.33 163.536C1045.88 165.557 1051.1 163.24 1052.98 158.36Z" fill="#D4AC0D"/>
<path d="M54.9993 334.814H151.102V396.616H54.9993V334.814Z" fill="white"/>
<path d="M152.107 397.677H53.9896V333.736H152.107V397.677ZM56.0048 395.555H150.092V335.893H56.0048V395.555Z" fill="#737C6E"/>
<path d="M73.3099 348.203H132.783V350.359H73.3099V348.203ZM73.3099 356.544H108.308V358.7H73.3099V356.544ZM73.3099 364.885H122.945V367.042H73.3099V364.885ZM73.3099 373.222H100.528V375.379H73.3099V373.222ZM100.532 381.317H132.787V383.474H100.532V381.317Z" fill="#E6E7E8"/>
<path d="M131.904 381.534H113.989V421.266L122.949 413.171L131.904 421.266V381.534Z" fill="#26324D"/>
<path d="M131.191 385.192C133.076 380.312 130.915 374.717 126.364 372.696C121.813 370.674 116.595 372.992 114.71 377.872C112.824 382.752 114.986 388.346 119.537 390.367C124.088 392.389 129.306 390.071 131.191 385.192Z" fill="#FF6677"/>
<path d="M546.22 310.232L520.569 300.469C520.569 300.469 508.138 340.923 502.71 360.747C502.71 360.747 508.842 388.963 528.285 409.075L538.492 400.084L524.465 359.006L538.492 332.492L546.22 310.232Z" fill="#A2D9CE"/>
<path d="M554.93 611.291L552.602 617.182C552.602 617.182 548.694 621.852 548.48 636.45H594.675C594.675 636.45 587.909 624.097 559.898 617.182L554.93 611.291Z" fill="#FF9EA3"/>
<path d="M567.627 611.291L565.299 617.182C565.299 617.182 561.391 621.852 561.177 636.45H607.372C607.372 636.45 600.606 624.097 572.595 617.182L567.627 611.291Z" fill="#FF9EA3"/>
<path d="M542.364 367.114C542.364 367.114 521.222 394.282 520.268 418.516C519.314 442.75 540.25 497.854 540.25 497.854C540.25 497.854 528.198 520.636 533.27 545.117C538.341 569.597 552.614 617.2 552.614 617.2H559.91L558.723 427.269H565.223L565.303 617.2H572.599C572.599 617.2 607.166 523.013 585.917 498.193C585.917 498.193 602.407 453.651 599.236 418.63C596.065 383.61 578.462 367.114 578.462 367.114L559.938 362.869L542.364 367.114Z" fill="#C9D3C3"/>
<path d="M571.704 331.923L533.697 332.56C533.697 332.56 526.444 330.463 521.563 316.353C518.213 306.666 520.605 300.456 520.605 300.456C520.605 300.456 545.646 296.661 576.032 315.623L571.704 331.923Z" fill="#9EDEAE"/>
<path d="M537.906 233.055C537.906 233.055 527.07 237.134 527.414 247.912C527.604 253.893 533.016 252.442 533.016 252.442C533.016 252.442 530.479 258.491 533.333 263.818C536.188 269.145 541.924 266.934 541.924 266.934C541.924 266.934 541.267 271.221 547.289 273.017C553.311 274.812 559.958 267.566 557.844 264.162C555.73 260.757 551.41 254.636 550.036 251.236C548.663 247.836 549.474 245.263 546.22 241.833C542.966 238.404 537.906 233.055 537.906 233.055Z" fill="#3A3A3A"/>
<path d="M534.64 255.782C534.64 255.782 526.144 234.834 539.066 218.312C551.632 202.249 572.433 207.186 582.034 221.347C590.197 233.382 581.175 233.658 578.201 239.711C573.961 248.332 569.183 231.353 569.183 231.353C569.183 231.353 557.927 232.371 555.971 234.074C554.015 235.776 549.051 240.832 548.283 242.564C547.515 244.295 547.253 248.18 545.638 247.929C544.023 247.679 534.64 255.782 534.64 255.782Z" fill="#3A3A3A"/>
<path d="M548.283 291.783C548.283 291.783 528.515 296.716 520.569 300.456L530.736 320.844L542.364 367.114H578.462C579.238 358.142 581.349 349.362 584.714 341.105C584.714 341.105 593.681 338.214 596.852 324.784C596.852 324.784 591.971 314.349 588.111 296.614L569.899 291.97L548.283 291.783Z" fill="#A2D9CE"/>
<path d="M569.899 291.953L568.791 269.175L553.885 262.349L546.22 262.264C546.22 262.264 548.69 284.491 548.267 291.8C552.95 295.073 559.938 293.643 569.899 291.953Z" fill="#FF9EA3"/>
<path d="M546.703 266.7C549.348 274.21 554.364 285.972 569.483 283.455L568.842 270.253L552.95 262.349H552.851L546.22 262.264C546.22 262.264 546.43 264.009 546.703 266.7Z" fill="#FF7A81"/>
<path d="M543.738 244.86C543.738 244.86 544.371 218.542 565.089 218.542C585.807 218.542 588.661 251.295 580.098 269.905C573.538 284.126 560.845 279.452 551.763 257.34C551.763 257.34 542.356 251.665 542.356 251.321C542.356 250.977 543.738 244.86 543.738 244.86Z" fill="#FF9EA3"/>
<path d="M576.004 215.719C576.004 215.719 590.082 223.122 584.401 241.991L578.201 249.631C578.201 249.631 574.911 246.261 571.368 251.206C567.824 256.152 574.139 262.243 574.139 262.243C574.139 262.243 573.209 281.855 559.53 283.255C545.852 284.656 544.806 267.549 544.806 267.549L547.649 269.213C547.649 269.213 540.083 281.863 531.916 280.539C523.748 279.214 527.537 263.691 535.59 259.314L534.006 265.575C534.006 265.575 514.246 262.252 531.718 249.627L539.169 238.548L547.004 218.571L561.791 211.096L572.876 214.73L576.004 215.719Z" fill="#3A3A3A"/>
<path d="M542.839 264.573C542.839 264.573 531.805 276.506 538.717 284.151C545.63 291.796 561.68 288.133 559.938 272.898" fill="#3A3A3A"/>
<path d="M579.136 251.979C579.136 251.979 577.358 244.801 572.54 246.036C565.809 247.768 568.185 264.45 577.687 264.896C577.687 264.896 577.686 255.829 578.217 255.086C578.748 254.343 579.136 251.979 579.136 251.979Z" fill="#FF9EA3"/>
<path d="M577.295 259.717L575.287 259.556C575.913 250.582 572.33 249.839 572.294 249.835L572.552 247.713C572.777 247.734 578.079 248.532 577.295 259.717Z" fill="#FF7A81"/>
<path d="M571.542 254.025L572.155 251.967L576.431 253.431L575.818 255.489L571.542 254.025Z" fill="#FF7A81"/>
<path d="M529.774 321.086L531.719 320.523L534.663 332.229L532.717 332.791L529.774 321.086Z" fill="#6DB07F"/>
<path d="M558.719 427.124H538.527V424.883H553.679C549.447 422.451 543.52 417.752 540.745 409.601C537.007 398.607 540.167 384.849 550.143 368.706L551.885 369.945C542.304 385.448 539.216 398.526 542.7 408.812C546.806 420.923 558.932 424.9 559.035 424.943L565.936 427.137L558.719 427.124Z" fill="#737C6E"/>
<path d="M567.045 414.572L554.423 407.865L554.281 407.441C549.134 392.252 554.985 382.795 555.235 382.396L555.547 381.908H578.811L579.112 382.472C585.05 393.692 580.418 407.093 580.22 407.674L580.07 408.099L567.045 414.572ZM556.118 406.24L567.088 412.085L578.411 406.448C579.104 404.189 582.061 393.267 577.592 384.136H556.707C555.658 386.157 552.194 394.282 556.118 406.24Z" fill="#737C6E"/>
<path d="M570.501 617.509L568.521 616.851C589.397 544.059 579.48 498.775 579.377 498.329L579.31 498.032L579.389 497.743C596.654 434.804 586.812 399.057 586.713 398.7L586.515 398.013L587.014 397.533C591.104 393.628 584.908 379.942 582.18 375.001L583.981 373.859C585.042 375.786 593.978 392.426 588.879 398.696C590.138 403.867 597.553 439.273 581.471 498.095C582.299 502.2 590.668 547.201 570.501 617.509Z" fill="#737C6E"/>
<path d="M502.54 302.234C513.839 281.608 517.794 276.298 520.237 254.22C522.897 230.168 536.865 208.625 555.112 208.566L560.069 231.913L563.493 255.383L553.227 260.643L563.493 262.235L573.917 264.264C573.917 264.264 580.775 289.695 577.255 304.832C573.735 319.97 559.649 324.817 563.493 343.801H554.862C550.048 329.937 552.487 317.826 552.487 317.826C548.603 327.046 548.924 336.355 550.424 343.801H524.326C521.638 332.293 523.467 323.124 523.467 323.124C520.458 330.268 519.971 337.459 520.601 343.801H515.201C507.148 327.645 510.307 311.87 510.307 311.87C505.295 323.756 507.263 335.803 509.785 343.801H504.42C504.42 343.801 491.236 322.861 502.54 302.234ZM600.146 629.153C586.487 630.248 570.105 626.899 562.329 625.031C561.579 628.785 561.193 632.612 561.177 636.45H607.372C607.372 636.45 605.606 633.228 600.146 629.153Z" fill="#3A3A3A"/>
<path d="M570.117 628.177C563.141 628.067 554.229 626.568 549.53 625.677C548.872 629.224 548.531 632.83 548.512 636.446H569.523L570.117 628.177Z" fill="#3A3A3A"/>
<path d="M848.027 446.685C847.457 435.088 849.611 420.791 849.611 420.659L851.59 421.003C851.571 421.143 849.464 435.211 850.007 446.57L848.027 446.685Z" fill="#58A494"/>
<path d="M1055.68 456.291L131.544 456.291V446.846L1055.68 446.846V456.291Z" fill="white"/>
<path d="M1056.68 457.37H130.538V445.768H1056.68V457.37ZM132.549 455.213H1054.67V447.925H132.549V455.213Z" fill="#737C6E"/>
<path d="M145.951 636.45H130.534L130.534 456.291H145.951L145.951 636.45Z" fill="#737C6E"/>
<path d="M208.354 636.45H192.937L192.937 456.291H208.354L208.354 636.45Z" fill="#737C6E"/>
<path d="M994.283 636.45H978.866V456.291H994.283V636.45Z" fill="#737C6E"/>
<path d="M1056.69 636.45H1041.27V456.291H1056.69V636.45Z" fill="#737C6E"/>
<path d="M838.692 437.045H903.474L881.303 543.164H816.517L838.692 437.045Z" fill="#D4AC0D"/>
<path d="M892.04 636.594L878.892 539.513H826.787V537.505H880.511L893.893 636.306L892.04 636.594ZM833.422 636.594L820.274 539.513H813.9V537.505H821.893L835.271 636.306L833.422 636.594Z" fill="#737C6E"/>
<path d="M760.56 636.594L758.711 636.306L772.088 537.505H825.817V539.513H773.708L760.56 636.594ZM819.181 636.594L817.329 636.306L830.706 537.505H838.704V539.513H832.325L819.181 636.594Z" fill="#737C6E"/>
<path d="M881.303 543.164H771.356V533.855H881.303V543.164Z" fill="#D4AC0D"/>
<path d="M831.478 614.262H890.096V616.27H831.478V614.262ZM762.503 614.262H821.121V616.27H762.503V614.262Z" fill="#737C6E"/>
<path d="M354.962 373.974H462.525C462.792 373.974 463.048 374.087 463.236 374.289C463.425 374.492 463.531 374.766 463.531 375.052V442.317H353.96V375.052C353.96 374.767 354.065 374.493 354.253 374.291C354.441 374.089 354.696 373.975 354.962 373.974Z" fill="#808285"/>
<path d="M459.742 378.265V439.88H357.753V378.265C357.753 378.205 357.775 378.146 357.815 378.103C357.855 378.06 357.91 378.036 357.966 378.036H459.528C459.585 378.036 459.639 378.06 459.679 378.103C459.72 378.146 459.742 378.205 459.742 378.265Z" fill="#2C2D2E"/>
<path d="M353.96 439.88H488.683V444.974C488.683 445.199 488.599 445.415 488.451 445.575C488.302 445.734 488.101 445.823 487.891 445.823H354.752C354.542 445.823 354.34 445.734 354.192 445.575C354.043 445.415 353.96 445.199 353.96 444.974V439.88Z" fill="#808285"/>
<path d="M370.046 384.225H447.445V439.88H370.046V384.225Z" fill="white"/>
<path d="M380.874 391.573H414.755V393.73H380.874V391.573ZM380.874 397.16H438.569V399.316H380.874V397.16ZM380.874 402.75H427.67V404.907H380.874V402.75ZM380.874 408.341H432.052V410.497H380.874V408.341ZM380.874 419.518H422.456V421.674H380.874V419.518Z" fill="#E6E7E8"/>
<path d="M775.474 442.317H665.903V375.052C665.903 374.766 666.008 374.492 666.197 374.29C666.386 374.087 666.641 373.974 666.908 373.974H774.472C774.739 373.974 774.994 374.087 775.183 374.29C775.372 374.492 775.478 374.766 775.478 375.052V442.317H775.474Z" fill="#808285"/>
<path d="M771.688 378.27V439.88H669.699V378.27C669.699 378.209 669.722 378.15 669.762 378.107C669.802 378.064 669.856 378.04 669.913 378.04H771.475C771.531 378.04 771.586 378.064 771.626 378.107C771.666 378.15 771.688 378.209 771.688 378.27Z" fill="#2C2D2E"/>
<path d="M774.686 445.84H641.55C641.34 445.84 641.139 445.751 640.991 445.592C640.842 445.433 640.759 445.217 640.759 444.991V439.898H775.478V444.991C775.478 445.217 775.394 445.433 775.246 445.592C775.097 445.751 774.896 445.84 774.686 445.84Z" fill="#808285"/>
<path d="M759.392 439.88H681.992V384.225H759.392V439.88Z" fill="white"/>
<path d="M690.864 391.573H724.746V393.73H690.864V391.573ZM690.864 397.16H748.56V399.316H690.864V397.16ZM690.864 402.75H737.66V404.907H690.864V402.75ZM690.864 408.341H742.043V410.497H690.864V408.341ZM690.864 419.518H732.446V421.674H690.864V419.518Z" fill="#E6E7E8"/>
<path d="M559.443 437.045H494.661L516.832 543.164H581.618L559.443 437.045Z" fill="#D4AC0D"/>
<path d="M506.095 636.594L504.242 636.306L517.624 537.505H571.348V539.513H519.243L506.095 636.594ZM564.717 636.594L562.864 636.306L576.241 537.505H584.239V539.513H577.861L564.717 636.594Z" fill="#737C6E"/>
<path d="M637.575 636.594L624.427 539.513H572.322V537.505H626.046L639.428 636.306L637.575 636.594ZM578.953 636.594L565.809 539.513H559.431V537.505H567.429L580.806 636.306L578.953 636.594Z" fill="#737C6E"/>
<path d="M516.832 533.859H626.779V543.168H516.832V533.859Z" fill="#D4AC0D"/>
<path d="M508.039 614.262H566.657V616.27H508.039V614.262ZM577.014 614.262H635.631V616.27H577.014V614.262Z" fill="#737C6E"/>
<path d="M579.33 535.302H524.75L505.2 440.683L507.168 440.216L526.365 533.146H579.33V535.302ZM874.398 535.302H819.819V533.146H872.783L891.985 440.216L893.948 440.683L874.398 535.302Z" fill="#FFBB3D"/>
<path d="M1083.82 437.045H1148.61L1126.44 543.164H1061.65L1083.82 437.045Z" fill="#D4AC0D"/>
<path d="M1137.18 636.594L1124.03 539.513H1071.92V537.505H1125.65L1139.03 636.306L1137.18 636.594ZM1078.56 636.594L1065.41 539.513H1059.03V537.505H1067.03L1080.41 636.306L1078.56 636.594Z" fill="#737C6E"/>
<path d="M1005.7 636.594L1003.84 636.306L1017.22 537.505H1070.95V539.513H1018.84L1005.7 636.594ZM1064.31 636.594L1062.47 636.306L1075.84 537.505H1083.84V539.513H1077.46L1064.31 636.594Z" fill="#737C6E"/>
<path d="M1126.44 543.164H1016.49V533.855H1126.44V543.164Z" fill="#D4AC0D"/>
<path d="M1076.62 614.262H1135.23V616.27H1076.62V614.262ZM1007.64 614.262H1066.26V616.27H1007.64V614.262Z" fill="#737C6E"/>
<path d="M90.1716 437.045H25.3855L47.5602 543.164H112.346L90.1716 437.045Z" fill="#D4AC0D"/>
<path d="M36.8232 636.594L34.9703 636.306L48.348 537.505H102.076V539.513H49.9712L36.8232 636.594ZM95.441 636.594L93.5922 636.306L106.97 537.505H114.963V539.513H108.589L95.441 636.594Z" fill="#737C6E"/>
<path d="M168.304 636.594L155.156 539.513H103.046V537.505H156.775L170.153 636.306L168.304 636.594ZM109.682 636.594L96.5338 539.513H90.1597V537.505H98.153L111.535 636.306L109.682 636.594Z" fill="#737C6E"/>
<path d="M47.5602 533.859H157.507V543.168H47.5602V533.859Z" fill="#D4AC0D"/>
<path d="M38.7631 614.262H97.3809V616.27H38.7631V614.262ZM107.742 614.262H166.36V616.27H107.742V614.262Z" fill="#737C6E"/>
<path d="M368.106 404.351C368.106 404.351 380.921 432.019 394.604 444.287H451.923V433.759C437.005 429.2 404.656 425.779 404.656 425.779C404.656 425.779 394.362 398.981 383.649 380.927L368.106 404.351Z" fill="#A2D9CE"/>
<path d="M451.923 433.759C451.923 433.759 461.425 429.09 471.267 428.339C481.109 427.587 491.854 438.412 491.854 438.412C490.824 439.147 489.602 439.508 488.367 439.444C487.131 439.38 485.948 438.893 484.989 438.055L488.996 443.06C488.996 443.06 480.563 445.068 477.19 441.752C477.19 441.752 461.829 444.299 451.943 444.299L451.923 433.759ZM404.968 611.32L402.708 617.217C402.708 617.217 398.852 621.886 398.776 636.45H444.789C444.789 636.45 437.936 623.715 409.973 617.14L404.968 611.32Z" fill="#FF9EA3"/>
<path d="M444.789 636.45C444.789 636.45 442.437 632.099 434.891 627.171C417.891 631.547 405.372 629.174 399.406 627.362C399.378 627.549 399.355 627.761 399.331 627.952C399.267 628.376 399.208 628.831 399.157 629.302C399.129 629.548 399.109 629.82 399.085 630.074C399.038 630.533 398.994 630.983 398.955 631.467C398.927 631.849 398.911 632.265 398.887 632.66C398.864 633.054 398.84 633.432 398.824 633.844C398.792 634.693 398.773 635.542 398.765 636.45H444.789Z" fill="#3A3A3A"/>
<path d="M457.398 611.384L455.082 617.255C455.082 617.255 451.187 621.886 450.977 636.45H496.993C496.993 636.45 487.935 625.18 460.027 618.295L457.398 611.384Z" fill="#FF9EA3"/>
<path d="M386.82 513.432C383.653 478.543 372.662 461.36 372.662 461.36L354.213 457.115L336.702 461.36C336.702 461.36 315.644 488.4 314.698 512.562L352.998 521.277H362.08L386.82 513.432Z" fill="#C9D3C3"/>
<path d="M431.375 500.379C407.114 492.034 385.91 484.588 358.022 484.707L332.684 512.562C334.406 545.138 373.747 530.06 403.741 521.277C403.741 521.277 396.037 537.985 394.239 554.859C391.539 580.273 402.553 617.34 402.553 617.34H411.065L431.375 500.379Z" fill="#C9D3C3"/>
<path d="M337.015 381.861C337.015 381.861 324.441 383.75 312.584 386.679L326.163 441.438L321.694 486.583H382.315C382.315 486.583 375.256 448.336 379.543 433.008C379.543 433.008 387.687 428.262 390.843 414.886C390.843 414.886 384.738 399.227 383.633 380.927H361.403L337.015 381.861Z" fill="#A2D9CE"/>
<path d="M357.373 451.121L325.906 407.997L326.63 397.474L322.731 388.737L312.576 386.679C312.576 386.679 299.115 416.071 299.661 445.382C311.8 449.792 342.205 452.743 357.373 451.121Z" fill="#A2D9CE"/>
<path d="M427.8 500.379L337.779 492.157L314.698 512.562C316.42 545.138 376.459 528.268 406.465 519.494C403.626 528.06 405.337 547.302 410.662 560.971C416.759 576.609 452.865 621.699 452.865 621.699L460.027 618.303L427.8 500.379Z" fill="#C9D3C3"/>
<path d="M453.578 619.538C412.95 561.447 409.316 522.117 409.007 514.264C402.454 515.865 373.189 522.291 359.716 512.991C352.194 507.791 349.854 498.409 349.755 498.015L349.359 496.444L350.864 496.618C356.874 497.314 361.284 496.279 364.016 493.549C364.915 492.617 365.632 491.503 366.128 490.271C366.623 489.04 366.886 487.716 366.902 486.375L368.992 486.282C368.995 487.94 368.683 489.581 368.078 491.106C367.472 492.632 366.585 494.01 365.469 495.158C362.535 498.129 358.097 499.403 352.246 498.978C353.208 501.742 355.738 507.566 360.833 511.089C374.975 520.852 409.411 511.845 409.759 511.751L411.097 511.395L411.054 512.876C411.054 513.279 410.38 554.052 455.237 618.197L453.578 619.538Z" fill="#737C6E"/>
<path d="M485.539 627.926C469.347 631.568 457.43 629.2 451.697 627.366C451.666 627.57 451.638 627.79 451.61 628.011C451.547 628.436 451.484 628.86 451.428 629.306C451.4 629.565 451.377 629.853 451.345 630.121C451.301 630.545 451.25 630.995 451.21 631.467C451.171 631.938 451.151 632.367 451.123 632.816C451.1 633.16 451.072 633.487 451.056 633.844C451.016 634.693 450.989 635.542 450.977 636.45H496.993C496.993 636.45 493.81 632.541 485.539 627.926Z" fill="#3A3A3A"/>
<path d="M364.436 357.983L361.419 380.935C361.419 380.935 349.344 389.043 337.015 381.861L341.006 351.866L364.436 357.983Z" fill="#FF9EA3"/>
<path d="M339.529 362.975C345.65 373.163 356.755 375.99 362.001 376.517L364.103 360.662L340.531 355.568L339.529 362.975Z" fill="#FF7A81"/>
<path d="M363.173 297.455C372.876 299.153 388.875 318.514 380.616 349.464C373.617 375.68 350.432 371.817 341.968 361.608C328.147 344.939 331.124 291.894 363.173 297.455Z" fill="#FF9EA3"/>
<path d="M380.854 428.708C368.05 394.485 382.374 380.685 382.988 380.116L384.306 381.746C384.168 381.878 370.493 395.215 382.723 427.906L380.854 428.708ZM320.605 442.674C313.581 422.65 312.944 392.465 312.936 392.159L314.951 392.117C314.951 392.414 315.589 422.256 322.474 441.905L320.605 442.674Z" fill="#58A494"/>
<path d="M342.265 437.045H277.479L299.653 543.164H364.436L342.265 437.045Z" fill="#D4AC0D"/>
<path d="M288.916 636.594L287.064 636.306L300.441 537.505H354.166V539.513H302.061L288.916 636.594ZM347.534 636.594L345.681 636.306L359.059 537.505H367.056V539.513H360.678L347.534 636.594Z" fill="#737C6E"/>
<path d="M420.393 636.594L407.249 539.513H355.14V537.505H408.868L422.246 636.306L420.393 636.594ZM361.775 636.594L348.627 539.513H342.253V537.505H350.246L363.628 636.306L361.775 636.594Z" fill="#737C6E"/>
<path d="M299.653 533.859H409.601V543.168H299.653V533.859Z" fill="#D4AC0D"/>
<path d="M290.856 614.262H349.474V616.27H290.856V614.262ZM359.831 614.262H418.449V616.27H359.831V614.262Z" fill="#737C6E"/>
<path d="M355.1 293.97C355.1 293.97 343.354 286.036 328.519 302.824C312.049 321.46 304.606 358.522 319.413 393.747H325.352C324.101 389.429 321.789 380.434 321.175 370.663C321.175 370.663 327.779 386.471 335.158 393.747H352.162C349.747 388.228 346.62 375.247 344.601 366.044C344.601 366.044 353.275 386.038 361.961 393.747H370.042C370.042 393.747 355.817 378.337 351.161 342.807L356.878 334.852C356.878 334.852 369.662 341.47 372.342 313.772C372.342 313.772 381.309 326.439 390.997 318.089C403.903 306.951 384.829 279.579 355.1 293.97Z" fill="#3A3A3A"/>
<path d="M360.54 335.51C360.54 335.51 358.477 327.674 351.331 330.552C344.185 333.43 347.641 351.327 356.609 352.855L363.561 345.121L362.052 337.569L360.54 335.51Z" fill="#FF9EA3"/>
<path d="M357.432 347.621L355.346 347.125C355.346 347.027 357.325 337.323 352.745 333.965L353.956 332.076C359.708 336.313 357.527 347.163 357.432 347.621Z" fill="#FF7A81"/>
<path d="M351.494 338.949L352.592 336.982L357.345 340.03L356.248 341.997L351.494 338.949Z" fill="#FF7A81"/>
<path d="M697.5 604.435L696.039 610.611C696.039 610.611 696.538 616.826 688.517 628.572L651.84 598.777C651.84 598.777 663.741 593.284 689.847 605.866L697.5 604.435Z" fill="#FF9EA3"/>
<path d="M664.517 597.855C675.78 612.364 687.222 618.498 693.046 620.863C691.715 623.552 690.197 626.129 688.505 628.572L651.828 598.776C651.828 598.776 655.957 596.947 664.517 597.855Z" fill="#3A3A3A"/>
<path d="M738.67 611.384L740.986 617.259C740.986 617.259 744.882 621.886 745.092 636.45H699.075C699.075 636.45 705.806 624.14 733.721 617.259L738.67 611.384Z" fill="#FF9EA3"/>
<path d="M785.933 514.888C789.1 479.999 800.087 462.816 800.087 462.816L818.54 458.571L836.047 462.816C836.047 462.816 857.105 489.856 858.055 514.014L819.751 522.733H810.685L785.933 514.888Z" fill="#C9D3C3"/>
<path d="M741.378 501.835C765.639 493.49 786.84 486.044 814.728 486.163L840.066 514.014C838.343 546.594 798.998 531.516 769.008 522.733C769.008 522.733 771.384 531.184 769.618 548.092C766.482 578.299 742.083 619.139 742.083 619.139L733.812 617.31L741.378 501.835Z" fill="#C9D3C3"/>
<path d="M835.738 383.317C835.738 383.317 846.966 386.488 854.86 390.211L848.526 435.984L851.072 488.035H790.439C790.439 488.035 797.498 449.788 793.21 434.46C793.21 434.46 785.066 429.714 781.907 416.334C781.907 416.334 794.259 396.145 798.535 383.648L811.35 382.375L835.738 383.317Z" fill="#A2D9CE"/>
<path d="M824.542 445.522L844.428 417.748L843.704 407.224L847.607 398.488L854.88 390.211C854.88 390.211 878.373 416.241 877.843 445.548L824.542 445.522Z" fill="#A2D9CE"/>
<path d="M744.965 501.835L834.974 493.613L858.055 514.018C856.333 546.598 800.59 531.52 770.6 522.737C768.901 533.277 763.869 544.14 755.1 556.552C745.539 570.055 696.039 611.027 696.039 611.027L689.851 605.87L744.965 501.835Z" fill="#C9D3C3"/>
<path d="M752.839 629.964L750.789 629.54C764.083 557.8 764.954 514.608 764.962 514.184L764.99 512.736L766.288 513.122C766.601 513.212 797.787 522.309 811.913 512.558C817.028 509.026 819.546 503.219 820.504 500.447C814.652 500.872 810.21 499.564 807.276 496.627C806.16 495.478 805.273 494.099 804.667 492.573C804.062 491.047 803.751 489.405 803.753 487.746L805.843 487.844C805.859 489.185 806.123 490.508 806.619 491.739C807.115 492.97 807.834 494.083 808.733 495.014C811.465 497.747 815.86 498.779 821.881 498.087L823.386 497.913L822.99 499.484C822.895 499.878 820.559 509.247 813.029 514.46C799.639 523.709 773.205 517.342 766.997 515.661C766.74 523.663 764.831 565.267 752.839 629.964Z" fill="#737C6E"/>
<path d="M708.676 627.502C725.823 631.772 738.401 629.251 744.371 627.366C744.827 630.37 745.067 633.407 745.092 636.45H699.075C699.075 636.45 701.34 632.316 708.676 627.502Z" fill="#3A3A3A"/>
<path d="M813.694 363.132L811.319 382.391C811.319 382.391 823.398 390.499 835.726 383.317V358.06L813.694 363.132Z" fill="#FF9EA3"/>
<path d="M813.694 363.132L811.924 377.565C816.857 377.225 827.472 375.179 833.814 364.198C833.865 364.109 833.897 364.036 833.945 363.947L813.694 363.132Z" fill="#FF7A81"/>
<path d="M809.581 298.911C799.873 300.609 783.875 319.97 792.137 350.919C799.133 377.136 822.321 373.273 830.782 363.064C844.603 346.394 841.629 293.35 809.581 298.911Z" fill="#FF9EA3"/>
<path d="M791.48 298.346C786.159 301.475 775.125 311.459 780.268 321.426C786.753 333.987 802.973 326.125 802.973 326.125C802.973 326.125 802.577 333.447 810.468 335.782C816.01 337.421 815.298 334.836 815.298 334.836C815.298 334.836 811.422 364.55 824.744 365.998C838.735 367.526 849.928 344.968 846.206 320C842.485 295.031 829.768 292.284 829.768 292.284C829.768 292.284 814.225 284.949 791.48 298.346Z" fill="#3A3A3A"/>
<path d="M810.467 335.761C813.635 330.009 821.553 327.912 822.107 336.86C822.661 345.809 817.059 357.037 809.699 352.401C802.339 347.766 810.887 345.609 810.887 345.609L810.467 335.761Z" fill="#FF9EA3"/>
<path d="M854.528 335.829C846.788 296.521 829.768 292.263 829.768 292.263L832.678 315.054C832.678 315.054 833.074 333.405 832.678 335.757C832.282 338.108 830.057 348.598 830.057 348.598L815.503 353.484C815.503 353.484 813.619 372.255 820.852 386.046C828.085 399.838 828.046 416.143 828.046 416.143H835.738C835.738 416.143 836.637 401.804 830.916 385.499C830.916 385.499 840.022 392.715 842.477 416.143H867.379C867.731 410.624 867.878 395.067 860.399 377.54C860.399 377.54 872.55 390.945 874.565 416.143H878.809C889.649 376.211 862.268 375.133 854.528 335.829Z" fill="#3A3A3A"/>
<path d="M816.683 401.621L802.549 451.35C793.519 466.11 782.651 477.355 770.6 486.341L761.047 479.303L785.933 439.613L798.515 383.669L816.683 401.621Z" fill="#A2D9CE"/>
<path d="M739.596 502.256C739.596 502.256 764.887 496.881 770.6 486.341L761.046 479.303C761.046 479.303 746.548 488.782 739.596 502.256Z" fill="#FF9EA3"/>
<path d="M795.019 464.009L793.531 462.557L804.363 449.754C810.606 425.694 809.153 401.031 800.653 386.87L802.347 385.703C811.311 400.632 812.799 425.494 806.239 450.582L806.176 450.828L795.019 464.009Z" fill="#58A494"/>
<path d="M787.075 427.743L794.593 395.887L796.542 396.416L789.024 428.272L787.075 427.743Z" fill="#58A494"/>
<path d="M849.563 427.32H854.861V429.476H849.563V427.32Z" fill="#58A494"/>
<path d="M811.936 346.704C811.936 346.603 810.535 336.423 817.942 332.615L818.809 334.56C812.764 337.671 813.876 346.021 813.928 346.373L811.936 346.704Z" fill="#FF7A81"/>
<path d="M812.682 339.202L818.086 337.466L818.664 339.532L813.259 341.268L812.682 339.202Z" fill="#FF7A81"/>
<path d="M582.829 306.628L588.111 296.597L635.255 311.34L684.348 289.81L690.409 296.461C690.409 296.461 656.832 327.526 642.465 330.259C620.9 334.36 580.81 322.67 580.81 322.67L582.829 306.628Z" fill="#A2D9CE"/>
<path d="M684.332 289.81C684.332 289.81 701.249 275.024 712.861 274.129C711.903 276.926 707.164 280.131 702.025 283.383C704.612 285.681 706.386 288.86 707.053 292.39C701.605 295.179 695.861 297.599 690.393 296.461L684.332 289.81Z" fill="#FF9EA3"/>
<path d="M580.695 323.756L580.938 321.615L596.996 323.714L596.753 325.854L580.695 323.756Z" fill="#58A494"/>
<path d="M978.656 326.027L959.566 317.296C959.566 317.296 949.668 348.882 946.449 384.713C946.449 384.713 931.298 408.243 925.791 437.775L936.35 445.446L967.112 401.345L976.724 359.554L978.656 326.027Z" fill="#A2D9CE"/>
<path d="M973.969 269.205C973.969 269.205 962.135 256.894 964.467 243.234C966.799 229.574 978.549 232.011 978.549 232.011C978.549 232.011 980.925 222.54 991.519 221.488C1002.11 220.435 1024.04 227.456 1025.66 245.348C1027.28 263.241 1015.87 282.619 1009.86 288.697C1003.85 294.776 996.583 282.033 996.583 282.033L985.739 270.398L973.969 269.205Z" fill="#3A3A3A"/>
<path d="M1042.24 314.477C1042.24 314.477 1061.51 355.852 1067.02 394.579C1067.02 394.579 1062.89 425.1 1047.86 454.967L1036.62 450.37L1038.66 392.172L1023.86 362.805V322.368C1023.86 321.383 1042.24 314.477 1042.24 314.477Z" fill="#A2D9CE"/>
<path d="M906.126 630.274C906.126 630.274 919.246 618.388 939.121 616.571C939.121 616.571 943.235 609.525 943.132 609.72C943.029 609.915 946.837 617.611 946.837 617.611C946.837 617.611 952.815 625.566 951.545 636.404L906.126 630.274ZM1012.4 635.911C1012.4 635.911 1022.25 618.465 1039.68 608.06C1039.68 608.06 1042.45 599.252 1042.45 599.473C1042.45 599.694 1048.99 604.991 1048.99 604.991C1048.99 604.991 1057.35 609.661 1060.35 620.09L1012.4 635.911Z" fill="#3A3A3A"/>
<path d="M1021.11 514.29C1021.11 514.29 1041.39 433.352 1018.74 414.008L987.01 395.593L975.925 398.399L961.795 414.008C961.795 414.008 948.955 465.605 953.279 517.074L977.714 519.434C977.714 519.434 984.65 475.805 991.021 457.726C991.021 457.726 992.485 480.857 995.668 511.98L1021.11 514.29Z" fill="#C9D3C3"/>
<path d="M995.676 511.981C1007.68 541.784 1023.81 579.216 1039.68 608.06L1048.99 604.987C1048.99 604.987 1042.05 530.628 1020.62 506.165C1009.96 504.178 1001.98 506.674 995.676 511.981ZM953.287 517.074L939.121 616.571L947.93 619.331C947.93 619.331 976.039 571.732 977.722 519.435C970.002 514.837 961.862 513.988 953.287 517.074Z" fill="#C9D3C3"/>
<path d="M959.566 317.296C959.566 317.296 972.472 309.37 990.922 307.053C1009.37 304.735 1042.24 314.477 1042.24 314.477L1032.29 357.775C1032.29 357.775 1016.15 391.467 1018.75 414.033H961.803C961.803 414.033 953.172 358.751 959.566 317.296Z" fill="#A2D9CE"/>
<path d="M1004.18 278.921H1007.09C1007.09 278.921 1004.64 300.146 1009.86 307.596L982.857 311.841V293.588C982.857 293.588 991.218 285.858 992.086 284.932C992.953 284.007 1004.18 278.921 1004.18 278.921Z" fill="#FF9EA3"/>
<path d="M992.078 284.949C992.941 284.02 1004.18 278.921 1004.18 278.921H1007.09C1007.09 278.921 1006.92 280.458 1006.76 282.835C998.563 301.594 987.964 304.96 982.849 305.359V293.6C982.849 293.6 991.219 285.875 992.078 284.949Z" fill="#FF7A81"/>
<path d="M984.963 240.229C977.663 245.896 971.126 257.748 971.502 274.749C971.878 291.749 978.629 297.828 991.397 293.503C1004.16 289.177 1009.95 272.877 1009.95 272.877L1014.89 263.355C1020.44 239.936 1000 228.067 984.963 240.229Z" fill="#FF9EA3"/>
<path d="M987.825 447.02L986.281 446.524C971.178 441.697 972.793 415.06 972.868 413.927L974.959 414.088C974.959 414.339 973.506 438.025 985.315 443.752L981.673 414.156L983.744 413.863L987.825 447.02ZM981.542 456.601H991.028V458.842H981.542V456.601Z" fill="#737C6E"/>
<path d="M1027.06 367.933C1021.64 337.54 1037.71 314.952 1037.87 314.727L1039.46 316.052C1039.3 316.268 1023.79 338.125 1029.03 367.526L1027.06 367.933ZM959.546 404.593C949.672 362.712 959.91 320.288 960.013 319.864L961.961 320.42C961.858 320.844 951.758 362.738 961.498 404.045L959.546 404.593Z" fill="#58A494"/>
<path d="M1029.37 615.342L1030.6 613.876L1034.12 617.265L1032.89 618.731L1029.37 615.342Z" fill="white"/>
<path d="M1033.18 612.41L1034.41 610.945L1037.93 614.334L1036.7 615.799L1033.18 612.41Z" fill="white"/>
<path d="M925.921 618.393L927.598 617.599L929.507 622.241L927.83 623.034L925.921 618.393Z" fill="white"/>
<path d="M930.501 617.566L932.178 616.774L934.084 621.412L932.407 622.204L930.501 617.566Z" fill="white"/>
<path d="M1043.97 606.451C1034.71 532.199 1012.44 515.61 1012.21 515.449L1011.64 515.024L1011.76 514.298C1017.59 478.314 1014.46 451.898 1013.72 446.596H1013.69C1011.33 446.602 1009.05 445.686 1007.27 444.019C1000.49 437.907 999.315 422.918 999.267 422.285L1001.35 422.107C1001.35 422.256 1002.51 436.799 1008.62 442.309C1009.42 443.063 1010.35 443.63 1011.37 443.975C1012.38 444.32 1013.45 444.435 1014.51 444.312L1015.46 444.219L1015.63 445.229C1015.68 445.509 1020.34 473.802 1013.93 513.997C1017.62 517.049 1037.34 536.363 1046.04 606.137L1043.97 606.451Z" fill="#737C6E"/>
<path d="M1036.62 450.361C1036.62 450.361 1028.7 455.171 1026.39 466.411L1033.05 462.425C1030.73 468.164 1029.26 474.253 1028.69 480.475C1028.69 480.475 1036.34 482.495 1042.01 478.352C1042.01 478.352 1049.45 465.617 1047.87 454.967L1036.62 450.361Z" fill="#FF9EA3"/>
<path d="M1019.42 252.051L1012.26 271.289C1012.26 271.289 978.074 267.044 978.66 242.453L999.726 227.88L1015.82 238.013L1019.42 249.581V252.051Z" fill="#3A3A3A"/>
<path d="M1005.91 265.372C1005.91 265.372 1008.41 258.775 1013.7 259.187C1018.98 259.598 1016.47 280.411 1003.71 279.074C1003.71 279.074 1002.84 273.513 1003.71 272.482C1004.57 271.45 1005.24 268.16 1005.34 267.536C1005.44 266.912 1005.91 265.372 1005.91 265.372Z" fill="#FF9EA3"/>
<path d="M1006.66 274.15L1004.81 273.471C1004.94 273.072 1008 263.708 1013.65 261.394L1014.35 263.351C1009.53 265.325 1006.66 274.074 1006.66 274.15Z" fill="#FF7A81"/>
<path d="M1007.35 268.26L1011.86 266.027L1012.68 267.927L1008.17 270.16L1007.35 268.26Z" fill="#FF7A81"/>
<path d="M936.35 445.45C935.691 449.559 934.026 453.407 931.525 456.6C929.025 459.793 925.778 462.216 922.117 463.622L925.791 455.009C925.791 455.009 918.665 464.484 907.769 465.592C907.769 465.592 905.358 457.722 907.54 453.532C909.915 448.96 914.492 444.257 925.791 437.779L936.35 445.45Z" fill="#FF9EA3"/>
<path d="M907.286 458.304L906 456.729C909.123 453.8 915.153 449.657 915.41 449.483L916.46 451.244C916.392 451.287 910.28 455.481 907.286 458.304Z" fill="#FF7A81"/>
<path d="M906.322 460.159L917.264 453.138L918.267 454.933L907.325 461.955L906.322 460.159Z" fill="#FF7A81"/>
<path d="M906.789 462.196L918.737 456.455L919.535 458.365L907.587 464.106L906.789 462.196Z" fill="#FF7A81"/>
<path d="M1030.97 480.71L1034.32 467.595L1036.2 468.147L1032.85 481.262L1030.97 480.71Z" fill="#FF7A81"/>
<path d="M1034.75 480.384L1038.31 468.522L1040.17 469.162L1036.61 481.024L1034.75 480.384Z" fill="#FF7A81"/>
<path d="M1038.4 479.44L1042.41 468.528L1044.23 469.295L1040.22 480.207L1038.4 479.44Z" fill="#FF7A81"/>
<path d="M977.655 411.924C977.591 411.389 971.554 357.915 981.875 316.103L983.823 316.655C973.601 358.068 979.591 411.125 979.654 411.656L977.655 411.924Z" fill="#58A494"/>
<path d="M996.393 325.076L983.324 316.85L972.068 322.445L977.762 310.631L979.551 311.62L976.554 317.835L983.435 314.417L996.31 322.525L1014.72 309.005L1015.86 310.784L996.393 325.076ZM986.285 341.95C985.797 341.951 985.32 341.796 984.914 341.506C984.507 341.216 984.191 340.803 984.003 340.319C983.816 339.836 983.767 339.304 983.862 338.791C983.957 338.277 984.192 337.806 984.537 337.435C984.883 337.065 985.322 336.813 985.801 336.711C986.28 336.61 986.776 336.662 987.227 336.863C987.678 337.064 988.063 337.403 988.334 337.839C988.605 338.274 988.749 338.786 988.748 339.31C988.747 340.01 988.487 340.681 988.026 341.175C987.564 341.67 986.938 341.949 986.285 341.95ZM986.285 338.826C986.166 338.827 986.052 338.878 985.967 338.969C985.883 339.059 985.835 339.182 985.834 339.31C985.834 339.84 986.737 339.84 986.737 339.31C986.737 339.181 986.689 339.058 986.605 338.967C986.52 338.877 986.405 338.826 986.285 338.826ZM984.27 362.767C983.783 362.767 983.307 362.612 982.902 362.322C982.497 362.032 982.181 361.62 981.995 361.137C981.809 360.655 981.76 360.124 981.855 359.612C981.95 359.099 982.185 358.629 982.529 358.26C982.873 357.891 983.312 357.639 983.79 357.537C984.268 357.435 984.763 357.488 985.213 357.687C985.663 357.887 986.047 358.226 986.318 358.66C986.588 359.094 986.733 359.605 986.733 360.127C986.732 360.827 986.472 361.498 986.01 361.993C985.549 362.487 984.923 362.766 984.27 362.767ZM984.27 359.643C984.151 359.643 984.036 359.694 983.951 359.785C983.866 359.875 983.819 359.998 983.819 360.127C983.819 360.657 984.718 360.657 984.718 360.127C984.718 359.999 984.671 359.877 984.587 359.786C984.503 359.695 984.389 359.644 984.27 359.643ZM983.047 383.584C982.56 383.583 982.084 383.428 981.68 383.137C981.275 382.847 980.96 382.434 980.775 381.951C980.589 381.469 980.541 380.938 980.636 380.426C980.732 379.914 980.966 379.444 981.311 379.075C981.656 378.707 982.094 378.456 982.572 378.354C983.049 378.252 983.544 378.305 983.994 378.505C984.444 378.705 984.828 379.043 985.099 379.477C985.369 379.912 985.513 380.422 985.513 380.944C985.512 381.645 985.252 382.316 984.79 382.811C984.327 383.306 983.7 383.584 983.047 383.584ZM983.047 380.464C982.929 380.465 982.815 380.516 982.732 380.606C982.648 380.696 982.601 380.817 982.6 380.944C982.6 381.479 983.498 381.479 983.498 380.944C983.497 380.816 983.449 380.694 983.365 380.604C983.28 380.515 983.166 380.464 983.047 380.464ZM984.27 404.406C983.782 404.406 983.305 404.252 982.898 403.962C982.492 403.671 982.175 403.258 981.988 402.775C981.801 402.292 981.752 401.76 981.847 401.246C981.942 400.733 982.177 400.261 982.522 399.891C982.867 399.521 983.307 399.269 983.786 399.167C984.265 399.065 984.761 399.118 985.212 399.319C985.663 399.519 986.048 399.859 986.319 400.294C986.589 400.73 986.734 401.242 986.733 401.765C986.732 402.465 986.472 403.136 986.01 403.631C985.549 404.126 984.923 404.404 984.27 404.406ZM984.27 401.281C984.151 401.281 984.036 401.332 983.951 401.423C983.866 401.514 983.819 401.637 983.819 401.765C983.819 402.296 984.718 402.296 984.718 401.765C984.718 401.638 984.671 401.515 984.587 401.425C984.503 401.334 984.389 401.282 984.27 401.281Z" fill="#58A494"/>
<path d="M613.409 260.634L612.103 258.991C612.162 258.941 613.587 257.642 616.2 255.693L617.348 257.468C614.826 259.348 613.425 260.622 613.409 260.634ZM624.582 252.611L623.592 250.731C626.11 249.203 628.739 247.759 631.367 246.486L632.195 248.451C629.61 249.721 627.052 251.113 624.582 252.611ZM640.129 245.072L639.476 243.031C642.247 242.003 645.074 241.125 647.857 240.416L648.32 242.538C645.592 243.209 642.849 244.066 640.129 245.072ZM698.074 248.477C695.527 247.124 692.912 245.923 690.243 244.877L690.932 242.848C693.67 243.922 696.352 245.156 698.965 246.545L698.074 248.477ZM682.091 242.262C679.328 241.568 676.53 241.052 673.71 240.717L673.927 238.569C676.829 238.915 679.708 239.447 682.55 240.161L682.091 242.262ZM656.713 240.883L656.464 238.76C659.353 238.368 662.262 238.155 665.174 238.123V240.28C662.345 240.308 659.521 240.509 656.713 240.883ZM709.662 255.948C708.324 254.925 706.93 253.927 705.529 252.976L706.602 251.151C708.035 252.123 709.456 253.146 710.83 254.19L709.662 255.948Z" fill="#737C6E"/>
<path d="M233.252 432.142H222.511C221.789 432.142 221.074 432.295 220.407 432.591C219.74 432.887 219.133 433.321 218.623 433.869C218.112 434.416 217.707 435.066 217.431 435.782C217.154 436.497 217.012 437.264 217.012 438.038V445.505H238.747V438.038C238.747 436.475 238.168 434.976 237.138 433.87C236.108 432.765 234.71 432.143 233.252 432.142Z" fill="#2B2B2B"/>
<path d="M217.012 438.823H238.747V445.505H217.012V438.823Z" fill="#171717"/>
<path d="M231.395 395.687H224.368C223.633 395.687 222.928 396 222.408 396.557C221.889 397.114 221.597 397.87 221.597 398.658V436.591H234.167V398.658C234.167 397.87 233.875 397.114 233.355 396.557C232.835 396 232.13 395.687 231.395 395.687Z" fill="#3A3A3A"/>
<path d="M223.105 404.499H232.654V410.255H223.105V404.499Z" fill="#80B3FF"/>
<path d="M229.99 400.224C229.99 399.777 229.866 399.339 229.634 398.967C229.402 398.595 229.073 398.305 228.687 398.134C228.302 397.963 227.877 397.918 227.468 398.005C227.059 398.093 226.683 398.308 226.387 398.624C226.092 398.941 225.891 399.344 225.81 399.783C225.729 400.222 225.77 400.677 225.93 401.09C226.09 401.504 226.36 401.857 226.707 402.106C227.054 402.354 227.462 402.487 227.88 402.487C228.439 402.487 228.976 402.249 229.372 401.824C229.767 401.4 229.99 400.824 229.99 400.224Z" fill="#2B2B2B"/>
<path d="M229.99 414.262C229.991 413.815 229.867 413.377 229.636 413.004C229.405 412.632 229.075 412.341 228.69 412.169C228.304 411.997 227.88 411.952 227.47 412.039C227.061 412.125 226.684 412.341 226.389 412.657C226.093 412.973 225.892 413.376 225.81 413.815C225.729 414.254 225.77 414.709 225.93 415.123C226.089 415.537 226.36 415.89 226.707 416.139C227.054 416.388 227.462 416.521 227.88 416.521C228.439 416.521 228.975 416.283 229.37 415.86C229.766 415.436 229.989 414.862 229.99 414.262Z" fill="#171717"/>
<path d="M223.188 418.108H225.861V419.87H223.188V418.108ZM226.546 418.108H229.218V419.87H226.546V418.108ZM229.903 418.108H232.575V419.87H229.903V418.108ZM223.188 420.681H225.861V422.442H223.188V420.681ZM226.546 420.681H229.218V422.442H226.546V420.681ZM229.903 420.681H232.575V422.442H229.903V420.681ZM223.188 423.249H225.861V425.011H223.188V423.249ZM226.546 423.249H229.218V425.011H226.546V423.249ZM229.903 423.249H232.575V425.011H229.903V423.249ZM223.188 425.817H225.861V427.579H223.188V425.817ZM226.546 425.817H229.218V427.579H226.546V425.817ZM229.903 425.817H232.575V427.579H229.903V425.817Z" fill="#636363"/>
<path d="M219.597 436.052H236.162V437.125H219.597V436.052Z" fill="#1C1C1C"/>
</svg>
